{
.appVersion = "3151";
.formatVersion = 3;
DisplayStrings = (
RISD
);
axes = (
{
name = Burst;
tag = BRST;
}
);
customParameters = (
{
name = panose;
value = (
0,
0,
0,
0,
0,
0,
0,
0,
0,
0
);
},
{
name = unicodeRanges;
value = (
0,
1,
2,
3,
4,
5,
6,
7,
29,
31,
32,
33,
35,
36,
37,
38,
42,
45,
47
);
},
{
name = codePageRanges;
value = (
"1252",
"1250",
"1254",
"1257",
"bit 29"
);
},
{
name = fsType;
value = (
);
},
{
name = blueScale;
value = 0.037;
},
{
name = glyphOrder;
value = (
.notdef,
space,
A,
Aacute,
Abreve,
Acircumflex,
Adieresis,
Agrave,
Amacron,
Aogonek,
Aring,
Atilde,
AE,
AEacute,
B,
C,
Cacute,
Ccaron,
Ccedilla,
Ccircumflex,
Cdotaccent,
D,
Eth,
Dcaron,
Dcroat,
E,
Eacute,
Ebreve,
Ecaron,
Ecircumflex,
Edieresis,
Edotaccent,
Egrave,
Emacron,
Eogonek,
uni1EBC,
F,
G,
Gbreve,
Gcircumflex,
uni0122,
Gdotaccent,
uni1E20,
H,
Hbar,
Hcircumflex,
I,
IJ,
Iacute,
Ibreve,
Icircumflex,
Idieresis,
Idotaccent,
Igrave,
Imacron,
Iogonek,
Itilde,
J,
uni004A0301,
Jcircumflex,
K,
uni0136,
L,
Lacute,
Lcaron,
uni013B,
Ldot,
Lslash,
M,
N,
Nacute,
Ncaron,
uni0145,
Ntilde,
Eng,
O,
Oacute,
Obreve,
Ocircumflex,
Odieresis,
Ograve,
Ohungarumlaut,
Omacron,
Oslash,
Oslashacute,
Otilde,
OE,
P,
Thorn,
Q,
R,
Racute,
Rcaron,
uni0156,
S,
Sacute,
Scaron,
Scedilla,
Scircumflex,
uni0218,
uni1E9E,
T,
Tbar,
Tcaron,
uni0162,
uni021A,
U,
Uacute,
Ubreve,
Ucircumflex,
Udieresis,
Ugrave,
Uhungarumlaut,
Umacron,
Uogonek,
Uring,
Utilde,
V,
W,
Wacute,
Wcircumflex,
Wdieresis,
Wgrave,
X,
Y,
Yacute,
Ycircumflex,
Ydieresis,
Ygrave,
uni1EF8,
Z,
Zacute,
Zcaron,
Zdotaccent,
R.ss01,
Racute.ss01,
Rcaron.ss01,
uni0156.ss01,
Y.ss02,
Yacute.ss02,
Ycircumflex.ss02,
Ydieresis.ss02,
Ygrave.ss02,
uni1EF8.ss02,
Oslash.ss03,
Oslashacute.ss03,
Q.ss03,
Adieresis.ss07,
Cdotaccent.ss07,
Edieresis.ss07,
Edotaccent.ss07,
uni0122.ss07,
Gdotaccent.ss07,
Idieresis.ss07,
Idotaccent.ss07,
uni0136.ss07,
Lcaron.ss07,
uni013B.ss07,
Ldot.ss07,
uni0145.ss07,
Odieresis.ss07,
uni0156.ss07,
uni0218.ss07,
uni021A.ss07,
Udieresis.ss07,

glyphs = (
{
glyphname = .notdef;
lastChange = "2024-02-25 16:05:16 +0000";
layers = (
{
hints = (
{
horizontal = 1;
place = (-230, 82);
place = (-230, 82);
type = Stem;
},
{
horizontal = 1;
place = (-109, 56);
place = (-109, 56);
type = Stem;
},
{
horizontal = 1;
place = (-13, 27);
place = (-13, 27);
type = Stem;
},
{
horizontal = 1;
place = (53, 56);
place = (53, 56);
type = Stem;
},
{
horizontal = 1;
place = (148, 72);
place = (148, 72);
type = Stem;
},
{
horizontal = 1;
place = (259, 29);
place = (259, 29);
type = Stem;
},
{
horizontal = 1;
place = (354, 26);
place = (354, 26);
type = Stem;
},
{
horizontal = 1;
place = (421, 27);
place = (421, 27);
type = Stem;
},
{
horizontal = 1;
place = (488, 44);
place = (488, 44);
type = Stem;
},
{
horizontal = 1;
place = (571, 32);
place = (571, 32);
type = Stem;
},
{
horizontal = 1;
place = (643, 43);
place = (643, 43);
type = Stem;
},
{
horizontal = 1;
place = (727, 31);
place = (727, 31);
type = Stem;
},
{
horizontal = 1;
place = (797, 44);
place = (797, 44);
type = Stem;
},
{
horizontal = 1;
place = (880, 80);
place = (880, 80);
type = Stem;
},
{
place = (111, 88);
place = (111, 88);
type = Stem;
},
{
place = (238, 39);
place = (238, 39);
type = Stem;
},
{
place = (318, 39);
place = (318, 39);
type = Stem;
},
{
place = (396, 92);
place = (396, 92);
type = Stem;
},
{
place = (111, 166);
place = (111, 166);
type = Stem;
},
{
place = (318, 170);
place = (318, 170);
type = Stem;
},
{
horizontal = 1;
place = (499, 33);
place = (499, 33);
type = Stem;
},
{
place = (111, 89);
place = (111, 89);
type = Stem;
},
{
place = (238, 250);
place = (238, 250);
type = Stem;
},
{
place = (111, 246);
place = (111, 246);
type = Stem;
}
);
layerId = m01;
shapes = (
{
closed = 1;
nodes = (
(488,960,l),
(111,960,l),
(111,-230,l),
(488,-230,l)
);
},
{
closed = 1;
nodes = (
(199,-148,l),
(199,-109,l),
(282,-53,l),
(199,-53,l),
(199,-13,l),
(396,-13,l),
(396,-53,l),
(358,-53,l),
(275,-109,l),
(396,-109,l),
(396,-148,l)
);
},
{
closed = 1;
nodes = (
(199,14,l),
(199,148,l),
(396,148,l),
(396,14,l)
);
},
{
closed = 1;
nodes = (
(199,220,l),
(199,354,l),
(238,354,l),
(238,259,l),
(357,259,l),
(357,315,l),
(318,315,l),
(318,288,l),
(277,288,l),
(277,354,l),
(396,354,l),
(396,220,l)
);
},
{
closed = 1;
nodes = (
(199,380,l),
(199,421,l),
(357,421,l),
(357,499,l),
(396,499,l),
(396,380,l)
);
},
{
closed = 1;
nodes = (
(199,448,l),
(199,488,l),
(277,488,l),
(277,532,l),
(199,532,l),
(199,571,l),
(396,571,l),
(396,532,l),
(318,532,l),
(318,448,l)
);
},
{
closed = 1;
nodes = (
(199,603,l),
(199,727,l),
(318,727,l),
(318,643,l),
(396,643,l),
(396,603,l)
);
},
{
closed = 1;
nodes = (
(199,758,l),
(199,797,l),
(277,797,l),
(277,841,l),
(200,841,l),
(200,880,l),
(396,880,l),
(396,841,l),
(318,841,l),
(318,797,l),
(396,797,l),
(396,758,l)
);
},
{
closed = 1;
nodes = (
(238,53,l),
(357,53,l),
(357,109,l),
(238,109,l)
);
},
{
closed = 1;
nodes = (
(238,643,l),
(277,643,l),
(277,686,l),
(238,686,l)
);
}
);
width = 595;
},
{
hints = (
{
horizontal = 1;
place = (-230, 82);
place = (-230, 82);
type = Stem;
},
{
horizontal = 1;
place = (-109, 56);
place = (-109, 56);
type = Stem;
},
{
horizontal = 1;
place = (-13, 27);
place = (-13, 27);
type = Stem;
},
{
horizontal = 1;
place = (53, 56);
place = (53, 56);
type = Stem;
},
{
horizontal = 1;
place = (148, 72);
place = (148, 72);
type = Stem;
},
{
horizontal = 1;
place = (259, 29);
place = (259, 29);
type = Stem;
},
{
horizontal = 1;
place = (354, 26);
place = (354, 26);
type = Stem;
},
{
horizontal = 1;
place = (421, 27);
place = (421, 27);
type = Stem;
},
{
horizontal = 1;
place = (488, 44);
place = (488, 44);
type = Stem;
},
{
horizontal = 1;
place = (571, 32);
place = (571, 32);
type = Stem;
},
{
horizontal = 1;
place = (643, 43);
place = (643, 43);
type = Stem;
},
{
horizontal = 1;
place = (727, 31);
place = (727, 31);
type = Stem;
},
{
horizontal = 1;
place = (797, 44);
place = (797, 44);
type = Stem;
},
{
horizontal = 1;
place = (880, 80);
place = (880, 80);
type = Stem;
},
{
place = (111, 88);
place = (111, 88);
type = Stem;
},
{
place = (238, 39);
place = (238, 39);
type = Stem;
},
{
place = (318, 39);
place = (318, 39);
type = Stem;
},
{
place = (396, 92);
place = (396, 92);
type = Stem;
},
{
place = (111, 166);
place = (111, 166);
type = Stem;
},
{
place = (318, 170);
place = (318, 170);
type = Stem;
},
{
horizontal = 1;
place = (499, 33);
place = (499, 33);
type = Stem;
},
{
place = (111, 89);
place = (111, 89);
type = Stem;
},
{
place = (238, 250);
place = (238, 250);
type = Stem;
},
{
place = (111, 246);
place = (111, 246);
type = Stem;
}
);
layerId = "6A72B8B1-0803-4BB2-A3A1-70C2871A9914";
shapes = (
{
closed = 1;
nodes = (
(488,960,l),
(111,960,l),
(111,-230,l),
(488,-230,l)
);
},
{
closed = 1;
nodes = (
(199,-148,l),
(199,-109,l),
(282,-53,l),
(199,-53,l),
(199,-13,l),
(396,-13,l),
(396,-53,l),
(358,-53,l),
(275,-109,l),
(396,-109,l),
(396,-148,l)
);
},
{
closed = 1;
nodes = (
(199,14,l),
(199,148,l),
(396,148,l),
(396,14,l)
);
},
{
closed = 1;
nodes = (
(199,220,l),
(199,354,l),
(238,354,l),
(238,259,l),
(357,259,l),
(357,315,l),
(318,315,l),
(318,288,l),
(277,288,l),
(277,354,l),
(396,354,l),
(396,220,l)
);
},
{
closed = 1;
nodes = (
(199,380,l),
(199,421,l),
(357,421,l),
(357,499,l),
(396,499,l),
(396,380,l)
);
},
{
closed = 1;
nodes = (
(199,448,l),
(199,488,l),
(277,488,l),
(277,532,l),
(199,532,l),
(199,571,l),
(396,571,l),
(396,532,l),
(318,532,l),
(318,448,l)
);
},
{
closed = 1;
nodes = (
(199,603,l),
(199,727,l),
(318,727,l),
(318,643,l),
(396,643,l),
(396,603,l)
);
},
{
closed = 1;
nodes = (
(199,758,l),
(199,797,l),
(277,797,l),
(277,841,l),
(200,841,l),
(200,880,l),
(396,880,l),
(396,841,l),
(318,841,l),
(318,797,l),
(396,797,l),
(396,758,l)
);
},
{
closed = 1;
nodes = (
(238,53,l),
(357,53,l),
(357,109,l),
(238,109,l)
);
},
{
closed = 1;
nodes = (
(238,643,l),
(277,643,l),
(277,686,l),
(238,686,l)
);
}
);
width = 595;
}
);
note = ".notdef";
},
{
glyphname = A;
kernLeft = A;
kernRight = A;
lastChange = "2024-02-25 16:05:16 +0000";
layers = (
{
hints = (
{
horizontal = 1;
place = (0, 21);
target = up;
type = BottomGhost;
},
{
horizontal = 1;
place = (196, 113);
place = (196, 113);
type = Stem;
},
{
place = (16, 669);
place = (16, 669);
type = Stem;
}
);
layerId = m01;
shapes = (
{
closed = 1;
nodes = (
(16,0,l),
(156,0,l),
(222,196,l),
(480,196,l),
(545,0,l),
(685,0,l),
(451,700,l),
(250,700,l)
);
},
{
closed = 1;
nodes = (
(260,309,l),
(351,581,l),
(442,309,l)
);
}
);
width = 701;
},
{
hints = (
{
horizontal = 1;
place = (0, 21);
target = up;
type = BottomGhost;
},
{
horizontal = 1;
place = (196, 113);
place = (196, 113);
type = Stem;
},
{
place = (16, 669);
place = (16, 669);
type = Stem;
}
);
layerId = "6A72B8B1-0803-4BB2-A3A1-70C2871A9914";
shapes = (
{
closed = 1;
nodes = (
(16,0,l),
(156,0,l),
(222,196,l),
(480,196,l),
(545,0,l),
(685,0,l),
(451,700,l),
(250,700,l)
);
},
{
closed = 1;
nodes = (
(260,309,l),
(351,581,l),
(442,309,l)
);
}
);
width = 701;
}
);
note = A;
unicode = 65;
},
{
glyphname = Aacute;
kernLeft = A;
kernRight = A;
lastChange = "2024-02-25 16:05:16 +0000";
layers = (
{
hints = (
{
horizontal = 1;
place = (0, 21);
target = up;
type = BottomGhost;
},
{
horizontal = 1;
place = (196, 113);
place = (196, 113);
type = Stem;
},
{
horizontal = 1;
place = (780, 140);
place = (780, 140);
type = Stem;
},
{
place = (16, 669);
place = (16, 669);
type = Stem;
}
);
layerId = m01;
shapes = (
{
closed = 1;
nodes = (
(16,0,l),
(156,0,l),
(222,196,l),
(480,196,l),
(545,0,l),
(685,0,l),
(451,700,l),
(250,700,l)
);
},
{
closed = 1;
nodes = (
(260,309,l),
(351,581,l),
(442,309,l)
);
},
{
closed = 1;
nodes = (
(314,780,l),
(404,780,l),
(508,920,l),
(370,920,l)
);
}
);
width = 701;
},
{
hints = (
{
horizontal = 1;
place = (0, 21);
target = up;
type = BottomGhost;
},
{
horizontal = 1;
place = (196, 113);
place = (196, 113);
type = Stem;
},
{
horizontal = 1;
place = (780, 140);
place = (780, 140);
type = Stem;
},
{
place = (16, 669);
place = (16, 669);
type = Stem;
}
);
layerId = "6A72B8B1-0803-4BB2-A3A1-70C2871A9914";
shapes = (
{
closed = 1;
nodes = (
(16,0,l),
(156,0,l),
(222,196,l),
(480,196,l),
(545,0,l),
(685,0,l),
(451,700,l),
(250,700,l)
);
},
{
closed = 1;
nodes = (
(260,309,l),
(351,581,l),
(442,309,l)
);
},
{
closed = 1;
nodes = (
(314,780,l),
(404,780,l),
(508,920,l),
(370,920,l)
);
}
);
width = 701;
}
);
note = Aacute;
unicode = 193;
},
{
glyphname = Abreve;
kernLeft = A;
kernRight = A;
lastChange = "2024-02-25 16:05:16 +0000";
layers = (
{
hints = (
{
horizontal = 1;
place = (0, 21);
target = up;
type = BottomGhost;
},
{
horizontal = 1;
place = (196, 113);
place = (196, 113);
type = Stem;
},
{
horizontal = 1;
place = (780, 95);
place = (780, 95);
type = Stem;
},
{
place = (181, 95);
place = (181, 95);
type = Stem;
},
{
place = (426, 95);
place = (426, 95);
type = Stem;
},
{
horizontal = 1;
place = (780, 170);
place = (780, 170);
type = Stem;
}
);
layerId = m01;
shapes = (
{
closed = 1;
nodes = (
(16,0,l),
(156,0,l),
(222,196,l),
(480,196,l),
(545,0,l),
(685,0,l),
(451,700,l),
(250,700,l)
);
},
{
closed = 1;
nodes = (
(181,950,l),
(181,850,o),
(256,780,o),
(351,780,cs),
(443,780,o),
(521,850,o),
(521,950,c),
(426,950,l),
(426,905,o),
(392,875,o),
(351,875,cs),
(309,875,o),
(276,905,o),
(276,950,c)
);
},
{
closed = 1;
nodes = (
(260,309,l),
(351,581,l),
(442,309,l)
);
}
);
width = 701;
},
{
hints = (
{
horizontal = 1;
place = (0, 21);
target = up;
type = BottomGhost;
},
{
horizontal = 1;
place = (196, 113);
place = (196, 113);
type = Stem;
},
{
horizontal = 1;
place = (780, 95);
place = (780, 95);
type = Stem;
},
{
place = (181, 95);
place = (181, 95);
type = Stem;
},
{
place = (426, 95);
place = (426, 95);
type = Stem;
},
{
horizontal = 1;
place = (780, 170);
place = (780, 170);
type = Stem;
}
);
layerId = "6A72B8B1-0803-4BB2-A3A1-70C2871A9914";
shapes = (
{
closed = 1;
nodes = (
(16,0,l),
(156,0,l),
(222,196,l),
(480,196,l),
(545,0,l),
(685,0,l),
(451,700,l),
(250,700,l)
);
},
{
closed = 1;
nodes = (
(181,950,l),
(181,850,o),
(256,780,o),
(351,780,cs),
(443,780,o),
(521,850,o),
(521,950,c),
(426,950,l),
(426,905,o),
(392,875,o),
(351,875,cs),
(309,875,o),
(276,905,o),
(276,950,c)
);
},
{
closed = 1;
nodes = (
(260,309,l),
(351,581,l),
(442,309,l)
);
}
);
width = 701;
}
);
note = Abreve;
unicode = 258;
},
{
glyphname = Acircumflex;
kernLeft = A;
kernRight = A;
lastChange = "2024-02-25 16:05:16 +0000";
layers = (
{
hints = (
{
horizontal = 1;
place = (0, 21);
target = up;
type = BottomGhost;
},
{
horizontal = 1;
place = (196, 113);
place = (196, 113);
type = Stem;
},
{
horizontal = 1;
place = (780, 140);
place = (780, 140);
type = Stem;
},
{
place = (16, 669);
place = (16, 669);
type = Stem;
},
{
horizontal = 1;
place = (880, 40);
place = (880, 40);
type = Stem;
}
);
layerId = m01;
shapes = (
{
closed = 1;
nodes = (
(16,0,l),
(156,0,l),
(222,196,l),
(480,196,l),
(545,0,l),
(685,0,l),
(451,700,l),
(250,700,l)
);
},
{
closed = 1;
nodes = (
(167,780,l),
(291,780,l),
(351,880,l),
(411,780,l),
(535,780,l),
(453,920,l),
(249,920,l)
);
},
{
closed = 1;
nodes = (
(260,309,l),
(351,581,l),
(442,309,l)
);
}
);
width = 701;
},
{
hints = (
{
horizontal = 1;
place = (0, 21);
target = up;
type = BottomGhost;
},
{
horizontal = 1;
place = (196, 113);
place = (196, 113);
type = Stem;
},
{
horizontal = 1;
place = (780, 140);
place = (780, 140);
type = Stem;
},
{
place = (16, 669);
place = (16, 669);
type = Stem;
},
{
horizontal = 1;
place = (880, 40);
place = (880, 40);
type = Stem;
}
);
layerId = "6A72B8B1-0803-4BB2-A3A1-70C2871A9914";
shapes = (
{
closed = 1;
nodes = (
(16,0,l),
(156,0,l),
(222,196,l),
(480,196,l),
(545,0,l),
(685,0,l),
(451,700,l),
(250,700,l)
);
},
{
closed = 1;
nodes = (
(167,780,l),
(291,780,l),
(351,880,l),
(411,780,l),
(535,780,l),
(453,920,l),
(249,920,l)
);
},
{
closed = 1;
nodes = (
(260,309,l),
(351,581,l),
(442,309,l)
);
}
);
width = 701;
}
);
note = Acircumflex;
unicode = 194;
},
{
glyphname = Adieresis;
kernLeft = A;
kernRight = A;
lastChange = "2024-02-25 16:05:16 +0000";
layers = (
{
hints = (
{
horizontal = 1;
place = (0, 21);
target = up;
type = BottomGhost;
},
{
horizontal = 1;
place = (196, 113);
place = (196, 113);
type = Stem;
},
{
horizontal = 1;
place = (770, 120);
place = (770, 120);
type = Stem;
},
{
place = (191, 130);
place = (191, 130);
type = Stem;
},
{
place = (381, 130);
place = (381, 130);
type = Stem;
}
);
layerId = m01;
shapes = (
{
closed = 1;
nodes = (
(16,0,l),
(156,0,l),
(222,196,l),
(480,196,l),
(545,0,l),
(685,0,l),
(451,700,l),
(250,700,l)
);
},
{
closed = 1;
nodes = (
(191,770,l),
(321,770,l),
(321,890,l),
(191,890,l)
);
},
{
closed = 1;
nodes = (
(260,309,l),
(351,581,l),
(442,309,l)
);
},
{
closed = 1;
nodes = (
(381,770,l),
(511,770,l),
(511,890,l),
(381,890,l)
);
}
);
width = 701;
},
{
hints = (
{
horizontal = 1;
place = (0, 21);
target = up;
type = BottomGhost;
},
{
horizontal = 1;
place = (196, 113);
place = (196, 113);
type = Stem;
},
{
horizontal = 1;
place = (770, 120);
place = (770, 120);
type = Stem;
},
{
place = (191, 130);
place = (191, 130);
type = Stem;
},
{
place = (381, 130);
place = (381, 130);
type = Stem;
}
);
layerId = "6A72B8B1-0803-4BB2-A3A1-70C2871A9914";
shapes = (
{
closed = 1;
nodes = (
(16,0,l),
(156,0,l),
(222,196,l),
(480,196,l),
(545,0,l),
(685,0,l),
(451,700,l),
(250,700,l)
);
},
{
closed = 1;
nodes = (
(191,770,l),
(321,770,l),
(321,890,l),
(191,890,l)
);
},
{
closed = 1;
nodes = (
(260,309,l),
(351,581,l),
(442,309,l)
);
},
{
closed = 1;
nodes = (
(381,770,l),
(511,770,l),
(511,890,l),
(381,890,l)
);
}
);
width = 701;
}
);
note = Adieresis;
unicode = 196;
},
{
glyphname = Agrave;
kernLeft = A;
kernRight = A;
lastChange = "2024-02-25 16:05:16 +0000";
layers = (
{
hints = (
{
horizontal = 1;
place = (0, 21);
target = up;
type = BottomGhost;
},
{
horizontal = 1;
place = (196, 113);
place = (196, 113);
type = Stem;
},
{
horizontal = 1;
place = (780, 140);
place = (780, 140);
type = Stem;
},
{
place = (16, 669);
place = (16, 669);
type = Stem;
}
);
layerId = m01;
shapes = (
{
closed = 1;
nodes = (
(16,0,l),
(156,0,l),
(222,196,l),
(480,196,l),
(545,0,l),
(685,0,l),
(451,700,l),
(250,700,l)
);
},
{
closed = 1;
nodes = (
(194,920,l),
(298,780,l),
(388,780,l),
(332,920,l)
);
},
{
closed = 1;
nodes = (
(260,309,l),
(351,581,l),
(442,309,l)
);
}
);
width = 701;
},
{
hints = (
{
horizontal = 1;
place = (0, 21);
target = up;
type = BottomGhost;
},
{
horizontal = 1;
place = (196, 113);
place = (196, 113);
type = Stem;
},
{
horizontal = 1;
place = (780, 140);
place = (780, 140);
type = Stem;
},
{
place = (16, 669);
place = (16, 669);
type = Stem;
}
);
layerId = "6A72B8B1-0803-4BB2-A3A1-70C2871A9914";
shapes = (
{
closed = 1;
nodes = (
(16,0,l),
(156,0,l),
(222,196,l),
(480,196,l),
(545,0,l),
(685,0,l),
(451,700,l),
(250,700,l)
);
},
{
closed = 1;
nodes = (
(194,920,l),
(298,780,l),
(388,780,l),
(332,920,l)
);
},
{
closed = 1;
nodes = (
(260,309,l),
(351,581,l),
(442,309,l)
);
}
);
width = 701;
}
);
note = Agrave;
unicode = 192;
},
{
glyphname = Amacron;
kernLeft = A;
kernRight = A;
lastChange = "2024-02-25 16:05:16 +0000";
layers = (
{
hints = (
{
horizontal = 1;
place = (0, 21);
target = up;
type = BottomGhost;
},
{
horizontal = 1;
place = (196, 113);
place = (196, 113);
type = Stem;
},
{
horizontal = 1;
place = (770, 103);
place = (770, 103);
type = Stem;
},
{
place = (16, 669);
place = (16, 669);
type = Stem;
}
);
layerId = m01;
shapes = (
{
closed = 1;
nodes = (
(16,0,l),
(156,0,l),
(222,196,l),
(480,196,l),
(545,0,l),
(685,0,l),
(451,700,l),
(250,700,l)
);
},
{
closed = 1;
nodes = (
(175,770,l),
(527,770,l),
(527,873,l),
(175,873,l)
);
},
{
closed = 1;
nodes = (
(260,309,l),
(351,581,l),
(442,309,l)
);
}
);
width = 701;
},
{
hints = (
{
horizontal = 1;
place = (0, 21);
target = up;
type = BottomGhost;
},
{
horizontal = 1;
place = (196, 113);
place = (196, 113);
type = Stem;
},
{
horizontal = 1;
place = (770, 103);
place = (770, 103);
type = Stem;
},
{
place = (16, 669);
place = (16, 669);
type = Stem;
}
);
layerId = "6A72B8B1-0803-4BB2-A3A1-70C2871A9914";
shapes = (
{
closed = 1;
nodes = (
(16,0,l),
(156,0,l),
(222,196,l),
(480,196,l),
(545,0,l),
(685,0,l),
(451,700,l),
(250,700,l)
);
},
{
closed = 1;
nodes = (
(175,770,l),
(527,770,l),
(527,873,l),
(175,873,l)
);
},
{
closed = 1;
nodes = (
(260,309,l),
(351,581,l),
(442,309,l)
);
}
);
width = 701;
}
);
note = Amacron;
unicode = 256;
},
{
glyphname = Aogonek;
kernLeft = A;
kernRight = A;
lastChange = "2024-02-25 16:05:16 +0000";
layers = (
{
hints = (
{
horizontal = 1;
place = (-178, 85);
place = (-178, 85);
type = Stem;
},
{
horizontal = 1;
place = (0, 21);
target = up;
type = BottomGhost;
},
{
horizontal = 1;
place = (196, 113);
place = (196, 113);
type = Stem;
},
{
place = (516, 85);
place = (516, 85);
type = Stem;
},
{
place = (656, 77);
place = (656, 77);
type = Stem;
}
);
layerId = m01;
shapes = (
{
closed = 1;
nodes = (
(16,0,l),
(156,0,l),
(222,196,l),
(480,196,l),
(545,0,l),
(600,0,l),
(549,-17,o),
(516,-55,o),
(516,-98,cs),
(516,-146,o),
(556,-178,o),
(615,-178,cs),
(684,-178,o),
(733,-134,o),
(733,-73,c),
(656,-63,l),
(656,-81,o),
(643,-93,o),
(625,-93,cs),
(610,-93,o),
(601,-84,o),
(601,-69,cs),
(601,-42,o),
(628,-20,o),
(685,0,c),
(451,700,l),
(250,700,l)
);
},
{
closed = 1;
nodes = (
(260,309,l),
(351,581,l),
(442,309,l)
);
}
);
width = 689;
},
{
hints = (
{
horizontal = 1;
place = (-178, 85);
place = (-178, 85);
type = Stem;
},
{
horizontal = 1;
place = (0, 21);
target = up;
type = BottomGhost;
},
{
horizontal = 1;
place = (196, 113);
place = (196, 113);
type = Stem;
},
{
place = (516, 85);
place = (516, 85);
type = Stem;
},
{
place = (656, 77);
place = (656, 77);
type = Stem;
}
);
layerId = "6A72B8B1-0803-4BB2-A3A1-70C2871A9914";
shapes = (
{
closed = 1;
nodes = (
(16,0,l),
(156,0,l),
(222,196,l),
(480,196,l),
(545,0,l),
(600,0,l),
(549,-17,o),
(516,-55,o),
(516,-98,cs),
(516,-146,o),
(556,-178,o),
(615,-178,cs),
(684,-178,o),
(733,-134,o),
(733,-73,c),
(656,-63,l),
(656,-81,o),
(643,-93,o),
(625,-93,cs),
(610,-93,o),
(601,-84,o),
(601,-69,cs),
(601,-42,o),
(628,-20,o),
(685,0,c),
(451,700,l),
(250,700,l)
);
},
{
closed = 1;
nodes = (
(260,309,l),
(351,581,l),
(442,309,l)
);
}
);
width = 689;
}
);
note = Aogonek;
unicode = 260;
},
{
glyphname = Aring;
kernLeft = A;
kernRight = A;
lastChange = "2024-02-25 16:05:16 +0000";
layers = (
{
hints = (
{
horizontal = 1;
place = (0, 21);
target = up;
type = BottomGhost;
},
{
horizontal = 1;
place = (196, 113);
place = (196, 113);
type = Stem;
},
{
horizontal = 1;
place = (746, 76);
place = (746, 76);
type = Stem;
},
{
horizontal = 1;
place = (908, 76);
place = (908, 76);
type = Stem;
},
{
place = (232, 76);
place = (232, 76);
type = Stem;
},
{
place = (394, 76);
place = (394, 76);
type = Stem;
}
);
layerId = m01;
shapes = (
{
closed = 1;
nodes = (
(16,0,l),
(156,0,l),
(222,196,l),
(480,196,l),
(545,0,l),
(685,0,l),
(451,700,l),
(250,700,l)
);
},
{
closed = 1;
nodes = (
(232,801,o),
(287,746,o),
(351,746,cs),
(415,746,o),
(470,801,o),
(470,865,cs),
(470,929,o),
(415,984,o),
(351,984,cs),
(287,984,o),
(232,929,o),
(232,865,cs)
);
},
{
closed = 1;
nodes = (
(260,309,l),
(351,581,l),
(442,309,l)
);
},
{
closed = 1;
nodes = (
(308,890,o),
(326,908,o),
(351,908,cs),
(376,908,o),
(394,890,o),
(394,865,cs),
(394,840,o),
(376,822,o),
(351,822,cs),
(326,822,o),
(308,840,o),
(308,865,cs)
);
}
);
width = 701;
},
{
hints = (
{
horizontal = 1;
place = (0, 21);
target = up;
type = BottomGhost;
},
{
horizontal = 1;
place = (196, 113);
place = (196, 113);
type = Stem;
},
{
horizontal = 1;
place = (746, 76);
place = (746, 76);
type = Stem;
},
{
horizontal = 1;
place = (908, 76);
place = (908, 76);
type = Stem;
},
{
place = (232, 76);
place = (232, 76);
type = Stem;
},
{
place = (394, 76);
place = (394, 76);
type = Stem;
}
);
layerId = "6A72B8B1-0803-4BB2-A3A1-70C2871A9914";
shapes = (
{
closed = 1;
nodes = (
(16,0,l),
(156,0,l),
(222,196,l),
(480,196,l),
(545,0,l),
(685,0,l),
(451,700,l),
(250,700,l)
);
},
{
closed = 1;
nodes = (
(232,801,o),
(287,746,o),
(351,746,cs),
(415,746,o),
(470,801,o),
(470,865,cs),
(470,929,o),
(415,984,o),
(351,984,cs),
(287,984,o),
(232,929,o),
(232,865,cs)
);
},
{
closed = 1;
nodes = (
(260,309,l),
(351,581,l),
(442,309,l)
);
},
{
closed = 1;
nodes = (
(308,890,o),
(326,908,o),
(351,908,cs),
(376,908,o),
(394,890,o),
(394,865,cs),
(394,840,o),
(376,822,o),
(351,822,cs),
(326,822,o),
(308,840,o),
(308,865,cs)
);
}
);
width = 701;
}
);
note = Aring;
unicode = 197;
},
{
glyphname = Atilde;
kernLeft = A;
kernRight = A;
lastChange = "2024-02-25 16:05:16 +0000";
layers = (
{
hints = (
{
horizontal = 1;
place = (0, 21);
target = up;
type = BottomGhost;
},
{
horizontal = 1;
place = (196, 113);
place = (196, 113);
type = Stem;
},
{
place = (16, 669);
place = (16, 669);
type = Stem;
},
{
horizontal = 1;
place = (837, 105);
place = (837, 105);
type = Stem;
},
{
place = (141, 112);
place = (141, 112);
type = Stem;
},
{
horizontal = 1;
place = (780, 104);
place = (780, 104);
type = Stem;
},
{
place = (449, 112);
place = (449, 112);
type = Stem;
}
);
layerId = m01;
shapes = (
{
closed = 1;
nodes = (
(16,0,l),
(156,0,l),
(222,196,l),
(480,196,l),
(545,0,l),
(685,0,l),
(451,700,l),
(250,700,l)
);
},
{
closed = 1;
nodes = (
(253,780,l),
(253,811,o),
(262,837,o),
(291,837,cs),
(333,837,o),
(354,780,o),
(431,780,cs),
(516,780,o),
(561,848,o),
(561,932,c),
(449,942,l),
(449,910,o),
(439,884,o),
(411,884,cs),
(369,884,o),
(351,942,o),
(275,942,cs),
(190,942,o),
(141,873,o),
(141,790,c)
);
},
{
closed = 1;
nodes = (
(260,309,l),
(351,581,l),
(442,309,l)
);
}
);
width = 701;
},
{
hints = (
{
horizontal = 1;
place = (0, 21);
target = up;
type = BottomGhost;
},
{
horizontal = 1;
place = (196, 113);
place = (196, 113);
type = Stem;
},
{
place = (16, 669);
place = (16, 669);
type = Stem;
},
{
horizontal = 1;
place = (837, 105);
place = (837, 105);
type = Stem;
},
{
place = (141, 112);
place = (141, 112);
type = Stem;
},
{
horizontal = 1;
place = (780, 104);
place = (780, 104);
type = Stem;
},
{
place = (449, 112);
place = (449, 112);
type = Stem;
}
);
layerId = "6A72B8B1-0803-4BB2-A3A1-70C2871A9914";
shapes = (
{
closed = 1;
nodes = (
(16,0,l),
(156,0,l),
(222,196,l),
(480,196,l),
(545,0,l),
(685,0,l),
(451,700,l),
(250,700,l)
);
},
{
closed = 1;
nodes = (
(253,780,l),
(253,811,o),
(262,837,o),
(291,837,cs),
(333,837,o),
(354,780,o),
(431,780,cs),
(516,780,o),
(561,848,o),
(561,932,c),
(449,942,l),
(449,910,o),
(439,884,o),
(411,884,cs),
(369,884,o),
(351,942,o),
(275,942,cs),
(190,942,o),
(141,873,o),
(141,790,c)
);
},
{
closed = 1;
nodes = (
(260,309,l),
(351,581,l),
(442,309,l)
);
}
);
width = 701;
}
);
note = Atilde;
unicode = 195;
},
{
glyphname = AE;
kernLeft = A;
kernRight = AE;
lastChange = "2024-02-25 16:05:16 +0000";
layers = (
{
hints = (
{
horizontal = 1;
place = (0, 113);
place = (0, 113);
type = Stem;
},
{
horizontal = 1;
place = (307, 113);
place = (307, 113);
type = Stem;
},
{
horizontal = 1;
place = (587, 113);
place = (587, 113);
type = Stem;
},
{
place = (16, 829);
place = (16, 829);
type = Stem;
},
{
horizontal = 1;
place = (196, 113);
place = (196, 113);
type = Stem;
}
);
layerId = m01;
shapes = (
{
closed = 1;
nodes = (
(16,0,l),
(156,0,l),
(222,196,l),
(480,196,l),
(545,0,l),
(845,0,l),
(845,113,l),
(647,113,l),
(582,307,l),
(785,307,l),
(785,420,l),
(545,420,l),
(489,587,l),
(845,587,l),
(845,700,l),
(250,700,l)
);
},
{
closed = 1;
nodes = (
(260,309,l),
(351,581,l),
(442,309,l)
);
}
);
width = 889;
},
{
hints = (
{
horizontal = 1;
place = (0, 113);
place = (0, 113);
type = Stem;
},
{
horizontal = 1;
place = (307, 113);
place = (307, 113);
type = Stem;
},
{
horizontal = 1;
place = (587, 113);
place = (587, 113);
type = Stem;
},
{
place = (16, 829);
place = (16, 829);
type = Stem;
},
{
horizontal = 1;
place = (196, 113);
place = (196, 113);
type = Stem;
}
);
layerId = "6A72B8B1-0803-4BB2-A3A1-70C2871A9914";
shapes = (
{
closed = 1;
nodes = (
(16,0,l),
(156,0,l),
(222,196,l),
(480,196,l),
(545,0,l),
(845,0,l),
(845,113,l),
(647,113,l),
(582,307,l),
(785,307,l),
(785,420,l),
(545,420,l),
(489,587,l),
(845,587,l),
(845,700,l),
(250,700,l)
);
},
{
closed = 1;
nodes = (
(260,309,l),
(351,581,l),
(442,309,l)
);
}
);
width = 889;
}
);
note = AE;
unicode = 198;
},
{
glyphname = AEacute;
kernLeft = A;
kernRight = AE;
lastChange = "2024-02-25 16:05:16 +0000";
layers = (
{
hints = (
{
horizontal = 1;
place = (0, 113);
place = (0, 113);
type = Stem;
},
{
horizontal = 1;
place = (307, 113);
place = (307, 113);
type = Stem;
},
{
horizontal = 1;
place = (587, 113);
place = (587, 113);
type = Stem;
},
{
horizontal = 1;
place = (780, 140);
place = (780, 140);
type = Stem;
},
{
place = (16, 829);
place = (16, 829);
type = Stem;
},
{
horizontal = 1;
place = (196, 113);
place = (196, 113);
type = Stem;
}
);
layerId = m01;
shapes = (
{
closed = 1;
nodes = (
(16,0,l),
(156,0,l),
(222,196,l),
(480,196,l),
(545,0,l),
(845,0,l),
(845,113,l),
(647,113,l),
(582,307,l),
(785,307,l),
(785,420,l),
(545,420,l),
(489,587,l),
(845,587,l),
(845,700,l),
(250,700,l)
);
},
{
closed = 1;
nodes = (
(260,309,l),
(351,581,l),
(442,309,l)
);
},
{
closed = 1;
nodes = (
(314,780,l),
(404,780,l),
(508,920,l),
(370,920,l)
);
}
);
width = 889;
},
{
hints = (
{
horizontal = 1;
place = (0, 113);
place = (0, 113);
type = Stem;
},
{
horizontal = 1;
place = (307, 113);
place = (307, 113);
type = Stem;
},
{
horizontal = 1;
place = (587, 113);
place = (587, 113);
type = Stem;
},
{
horizontal = 1;
place = (780, 140);
place = (780, 140);
type = Stem;
},
{
place = (16, 829);
place = (16, 829);
type = Stem;
},
{
horizontal = 1;
place = (196, 113);
place = (196, 113);
type = Stem;
}
);
layerId = "6A72B8B1-0803-4BB2-A3A1-70C2871A9914";
shapes = (
{
closed = 1;
nodes = (
(16,0,l),
(156,0,l),
(222,196,l),
(480,196,l),
(545,0,l),
(845,0,l),
(845,113,l),
(647,113,l),
(582,307,l),
(785,307,l),
(785,420,l),
(545,420,l),
(489,587,l),
(845,587,l),
(845,700,l),
(250,700,l)
);
},
{
closed = 1;
nodes = (
(260,309,l),
(351,581,l),
(442,309,l)
);
},
{
closed = 1;
nodes = (
(314,780,l),
(404,780,l),
(508,920,l),
(370,920,l)
);
}
);
width = 889;
}
);
note = AEacute;
unicode = 508;
},
{
glyphname = B;
kernLeft = B;
kernRight = B;
lastChange = "2024-02-25 16:05:16 +0000";
layers = (
{
hints = (
{
horizontal = 1;
place = (0, 113);
place = (0, 113);
type = Stem;
},
{
horizontal = 1;
place = (299, 112);
place = (299, 112);
type = Stem;
},
{
horizontal = 1;
place = (587, 113);
place = (587, 113);
type = Stem;
},
{
place = (68, 133);
place = (68, 133);
type = Stem;
},
{
place = (441, 138);
place = (441, 138);
type = Stem;
},
{
place = (401, 138);
place = (401, 138);
type = Stem;
}
);
layerId = m01;
shapes = (
{
closed = 1;
nodes = (
(68,0,l),
(308,0,ls),
(470,0,o),
(579,80,o),
(579,200,cs),
(579,284,o),
(525,344,o),
(438,363,c),
(500,382,o),
(539,434,o),
(539,506,cs),
(539,624,o),
(432,700,o),
(268,700,cs),
(68,700,l)
);
},
{
closed = 1;
nodes = (
(201,113,l),
(201,299,l),
(308,299,ls),
(391,299,o),
(441,264,o),
(441,206,cs),
(441,148,o),
(391,113,o),
(308,113,cs)
);
},
{
closed = 1;
nodes = (
(201,411,l),
(201,587,l),
(268,587,ls),
(353,587,o),
(401,555,o),
(401,499,cs),
(401,443,o),
(353,411,o),
(268,411,cs)
);
}
);
width = 619;
},
{
hints = (
{
horizontal = 1;
place = (0, 113);
place = (0, 113);
type = Stem;
},
{
horizontal = 1;
place = (299, 112);
place = (299, 112);
type = Stem;
},
{
horizontal = 1;
place = (587, 113);
place = (587, 113);
type = Stem;
},
{
place = (68, 133);
place = (68, 133);
type = Stem;
},
{
place = (441, 138);
place = (441, 138);
type = Stem;
},
{
place = (401, 138);
place = (401, 138);
type = Stem;
}
);
layerId = "6A72B8B1-0803-4BB2-A3A1-70C2871A9914";
shapes = (
{
closed = 1;
nodes = (
(68,0,l),
(308,0,ls),
(470,0,o),
(579,80,o),
(579,200,cs),
(579,284,o),
(525,344,o),
(438,363,c),
(500,382,o),
(539,434,o),
(539,506,cs),
(539,624,o),
(432,700,o),
(268,700,cs),
(68,700,l)
);
},
{
closed = 1;
nodes = (
(201,113,l),
(201,299,l),
(308,299,ls),
(391,299,o),
(441,264,o),
(441,206,cs),
(441,148,o),
(391,113,o),
(308,113,cs)
);
},
{
closed = 1;
nodes = (
(201,411,l),
(201,587,l),
(268,587,ls),
(353,587,o),
(401,555,o),
(401,499,cs),
(401,443,o),
(353,411,o),
(268,411,cs)
);
}
);
width = 619;
}
);
note = B;
unicode = 66;
},
{
glyphname = C;
kernLeft = C;
kernRight = C;
lastChange = "2024-02-25 16:05:16 +0000";
layers = (
{
hints = (
{
horizontal = 1;
place = (-16, 113);
place = (-16, 113);
type = Stem;
},
{
horizontal = 1;
place = (602, 114);
place = (602, 114);
type = Stem;
},
{
place = (44, 138);
place = (44, 138);
type = Stem;
}
);
layerId = m01;
shapes = (
{
closed = 1;
nodes = (
(572,-16,o),
(699,99,o),
(713,273,c),
(575,283,l),
(557,164,o),
(493,97,o),
(395,97,cs),
(272,97,o),
(182,203,o),
(182,348,cs),
(182,493,o),
(273,602,o),
(396,602,cs),
(494,602,o),
(559,533,o),
(575,412,c),
(713,422,l),
(699,599,o),
(573,716,o),
(395,716,cs),
(191,716,o),
(44,563,o),
(44,350,cs),
(44,137,o),
(192,-16,o),
(396,-16,cs)
);
}
);
width = 767;
},
{
hints = (
{
horizontal = 1;
place = (-16, 113);
place = (-16, 113);
type = Stem;
},
{
horizontal = 1;
place = (602, 114);
place = (602, 114);
type = Stem;
},
{
place = (44, 138);
place = (44, 138);
type = Stem;
}
);
layerId = "6A72B8B1-0803-4BB2-A3A1-70C2871A9914";
shapes = (
{
closed = 1;
nodes = (
(572,-16,o),
(699,99,o),
(713,273,c),
(575,283,l),
(557,164,o),
(493,97,o),
(395,97,cs),
(272,97,o),
(182,203,o),
(182,348,cs),
(182,493,o),
(273,602,o),
(396,602,cs),
(494,602,o),
(559,533,o),
(575,412,c),
(713,422,l),
(699,599,o),
(573,716,o),
(395,716,cs),
(191,716,o),
(44,563,o),
(44,350,cs),
(44,137,o),
(192,-16,o),
(396,-16,cs)
);
}
);
width = 767;
}
);
note = C;
unicode = 67;
},
{
glyphname = Cacute;
kernLeft = C;
kernRight = C;
lastChange = "2024-02-25 16:05:16 +0000";
layers = (
{
hints = (
{
horizontal = 1;
place = (-16, 113);
place = (-16, 113);
type = Stem;
},
{
horizontal = 1;
place = (602, 114);
place = (602, 114);
type = Stem;
},
{
horizontal = 1;
place = (780, 140);
place = (780, 140);
type = Stem;
},
{
place = (44, 138);
place = (44, 138);
type = Stem;
}
);
layerId = m01;
shapes = (
{
closed = 1;
nodes = (
(572,-16,o),
(699,99,o),
(713,273,c),
(575,283,l),
(557,164,o),
(493,97,o),
(395,97,cs),
(272,97,o),
(182,203,o),
(182,348,cs),
(182,493,o),
(273,602,o),
(396,602,cs),
(494,602,o),
(559,533,o),
(575,412,c),
(713,422,l),
(699,599,o),
(573,716,o),
(395,716,cs),
(191,716,o),
(44,563,o),
(44,350,cs),
(44,137,o),
(192,-16,o),
(396,-16,cs)
);
},
{
closed = 1;
nodes = (
(341,780,l),
(431,780,l),
(535,920,l),
(397,920,l)
);
}
);
width = 767;
},
{
hints = (
{
horizontal = 1;
place = (-16, 113);
place = (-16, 113);
type = Stem;
},
{
horizontal = 1;
place = (602, 114);
place = (602, 114);
type = Stem;
},
{
horizontal = 1;
place = (780, 140);
place = (780, 140);
type = Stem;
},
{
place = (44, 138);
place = (44, 138);
type = Stem;
}
);
layerId = "6A72B8B1-0803-4BB2-A3A1-70C2871A9914";
shapes = (
{
closed = 1;
nodes = (
(572,-16,o),
(699,99,o),
(713,273,c),
(575,283,l),
(557,164,o),
(493,97,o),
(395,97,cs),
(272,97,o),
(182,203,o),
(182,348,cs),
(182,493,o),
(273,602,o),
(396,602,cs),
(494,602,o),
(559,533,o),
(575,412,c),
(713,422,l),
(699,599,o),
(573,716,o),
(395,716,cs),
(191,716,o),
(44,563,o),
(44,350,cs),
(44,137,o),
(192,-16,o),
(396,-16,cs)
);
},
{
closed = 1;
nodes = (
(341,780,l),
(431,780,l),
(535,920,l),
(397,920,l)
);
}
);
width = 767;
}
);
note = Cacute;
unicode = 262;
},
{
glyphname = Ccaron;
kernLeft = C;
kernRight = C;
lastChange = "2024-02-25 16:05:16 +0000";
layers = (
{
hints = (
{
horizontal = 1;
place = (-16, 113);
place = (-16, 113);
type = Stem;
},
{
horizontal = 1;
place = (602, 114);
place = (602, 114);
type = Stem;
},
{
horizontal = 1;
place = (790, 140);
place = (790, 140);
type = Stem;
},
{
place = (44, 138);
place = (44, 138);
type = Stem;
}
);
layerId = m01;
shapes = (
{
closed = 1;
nodes = (
(572,-16,o),
(699,99,o),
(713,273,c),
(575,283,l),
(557,164,o),
(493,97,o),
(395,97,cs),
(272,97,o),
(182,203,o),
(182,348,cs),
(182,493,o),
(273,602,o),
(396,602,cs),
(494,602,o),
(559,533,o),
(575,412,c),
(713,422,l),
(699,599,o),
(573,716,o),
(395,716,cs),
(191,716,o),
(44,563,o),
(44,350,cs),
(44,137,o),
(192,-16,o),
(396,-16,cs)
);
},
{
closed = 1;
nodes = (
(194,930,l),
(276,790,l),
(480,790,l),
(562,930,l),
(438,930,l),
(378,830,l),
(318,930,l)
);
}
);
width = 767;
},
{
hints = (
{
horizontal = 1;
place = (-16, 113);
place = (-16, 113);
type = Stem;
},
{
horizontal = 1;
place = (602, 114);
place = (602, 114);
type = Stem;
},
{
horizontal = 1;
place = (790, 140);
place = (790, 140);
type = Stem;
},
{
place = (44, 138);
place = (44, 138);
type = Stem;
}
);
layerId = "6A72B8B1-0803-4BB2-A3A1-70C2871A9914";
shapes = (
{
closed = 1;
nodes = (
(572,-16,o),
(699,99,o),
(713,273,c),
(575,283,l),
(557,164,o),
(493,97,o),
(395,97,cs),
(272,97,o),
(182,203,o),
(182,348,cs),
(182,493,o),
(273,602,o),
(396,602,cs),
(494,602,o),
(559,533,o),
(575,412,c),
(713,422,l),
(699,599,o),
(573,716,o),
(395,716,cs),
(191,716,o),
(44,563,o),
(44,350,cs),
(44,137,o),
(192,-16,o),
(396,-16,cs)
);
},
{
closed = 1;
nodes = (
(194,930,l),
(276,790,l),
(480,790,l),
(562,930,l),
(438,930,l),
(378,830,l),
(318,930,l)
);
}
);
width = 767;
}
);
note = Ccaron;
unicode = 268;
},
{
glyphname = Ccedilla;
kernLeft = C;
kernRight = C;
lastChange = "2024-02-25 16:05:16 +0000";
layers = (
{
hints = (
{
horizontal = 1;
place = (-216, 65);
place = (-216, 65);
type = Stem;
},
{
horizontal = 1;
place = (-16, 113);
place = (-16, 113);
type = Stem;
},
{
horizontal = 1;
place = (602, 114);
place = (602, 114);
type = Stem;
},
{
place = (44, 138);
place = (44, 138);
type = Stem;
},
{
place = (413, 75);
place = (413, 75);
type = Stem;
},
{
horizontal = 1;
place = (-11, 21);
target = up;
type = BottomGhost;
},
{
horizontal = 1;
place = (-94, 55);
place = (-94, 55);
type = Stem;
}
);
layerId = m01;
shapes = (
{
closed = 1;
nodes = (
(396,-16,l),
(572,-16,o),
(699,99,o),
(713,273,c),
(575,283,l),
(557,164,o),
(493,97,o),
(395,97,cs),
(272,97,o),
(182,203,o),
(182,348,cs),
(182,493,o),
(273,602,o),
(396,602,cs),
(494,602,o),
(559,533,o),
(575,412,c),
(713,422,l),
(699,599,o),
(573,716,o),
(395,716,cs),
(191,716,o),
(44,563,o),
(44,350,cs),
(44,159,o),
(163,16,o),
(334,-11,c),
(295,-84,l),
(355,-103,l),
(360,-97,o),
(369,-94,o),
(379,-94,cs),
(399,-94,o),
(413,-105,o),
(413,-122,cs),
(413,-139,o),
(399,-151,o),
(378,-151,cs),
(359,-151,o),
(346,-142,o),
(343,-127,c),
(270,-137,l),
(272,-183,o),
(316,-216,o),
(377,-216,cs),
(442,-216,o),
(488,-178,o),
(488,-124,cs),
(488,-75,o),
(451,-39,o),
(402,-39,cs),
(396,-39,o),
(390,-40,o),
(384,-41,c)
);
}
);
width = 767;
},
{
hints = (
{
horizontal = 1;
place = (-216, 65);
place = (-216, 65);
type = Stem;
},
{
horizontal = 1;
place = (-16, 113);
place = (-16, 113);
type = Stem;
},
{
horizontal = 1;
place = (602, 114);
place = (602, 114);
type = Stem;
},
{
place = (44, 138);
place = (44, 138);
type = Stem;
},
{
place = (413, 75);
place = (413, 75);
type = Stem;
},
{
horizontal = 1;
place = (-11, 21);
target = up;
type = BottomGhost;
},
{
horizontal = 1;
place = (-94, 55);
place = (-94, 55);
type = Stem;
}
);
layerId = "6A72B8B1-0803-4BB2-A3A1-70C2871A9914";
shapes = (
{
closed = 1;
nodes = (
(396,-16,l),
(572,-16,o),
(699,99,o),
(713,273,c),
(575,283,l),
(557,164,o),
(493,97,o),
(395,97,cs),
(272,97,o),
(182,203,o),
(182,348,cs),
(182,493,o),
(273,602,o),
(396,602,cs),
(494,602,o),
(559,533,o),
(575,412,c),
(713,422,l),
(699,599,o),
(573,716,o),
(395,716,cs),
(191,716,o),
(44,563,o),
(44,350,cs),
(44,159,o),
(163,16,o),
(334,-11,c),
(295,-84,l),
(355,-103,l),
(360,-97,o),
(369,-94,o),
(379,-94,cs),
(399,-94,o),
(413,-105,o),
(413,-122,cs),
(413,-139,o),
(399,-151,o),
(378,-151,cs),
(359,-151,o),
(346,-142,o),
(343,-127,c),
(270,-137,l),
(272,-183,o),
(316,-216,o),
(377,-216,cs),
(442,-216,o),
(488,-178,o),
(488,-124,cs),
(488,-75,o),
(451,-39,o),
(402,-39,cs),
(396,-39,o),
(390,-40,o),
(384,-41,c)
);
}
);
width = 767;
}
);
note = Ccedilla;
unicode = 199;
},
{
glyphname = Ccircumflex;
kernLeft = C;
kernRight = C;
lastChange = "2024-02-25 16:05:16 +0000";
layers = (
{
hints = (
{
horizontal = 1;
place = (-16, 113);
place = (-16, 113);
type = Stem;
},
{
horizontal = 1;
place = (602, 114);
place = (602, 114);
type = Stem;
},
{
horizontal = 1;
place = (780, 140);
place = (780, 140);
type = Stem;
},
{
place = (44, 138);
place = (44, 138);
type = Stem;
},
{
horizontal = 1;
place = (880, 40);
place = (880, 40);
type = Stem;
}
);
layerId = m01;
shapes = (
{
closed = 1;
nodes = (
(572,-16,o),
(699,99,o),
(713,273,c),
(575,283,l),
(557,164,o),
(493,97,o),
(395,97,cs),
(272,97,o),
(182,203,o),
(182,348,cs),
(182,493,o),
(273,602,o),
(396,602,cs),
(494,602,o),
(559,533,o),
(575,412,c),
(713,422,l),
(699,599,o),
(573,716,o),
(395,716,cs),
(191,716,o),
(44,563,o),
(44,350,cs),
(44,137,o),
(192,-16,o),
(396,-16,cs)
);
},
{
closed = 1;
nodes = (
(195,780,l),
(319,780,l),
(379,880,l),
(439,780,l),
(563,780,l),
(481,920,l),
(277,920,l)
);
}
);
width = 767;
},
{
hints = (
{
horizontal = 1;
place = (-16, 113);
place = (-16, 113);
type = Stem;
},
{
horizontal = 1;
place = (602, 114);
place = (602, 114);
type = Stem;
},
{
horizontal = 1;
place = (780, 140);
place = (780, 140);
type = Stem;
},
{
place = (44, 138);
place = (44, 138);
type = Stem;
},
{
horizontal = 1;
place = (880, 40);
place = (880, 40);
type = Stem;
}
);
layerId = "6A72B8B1-0803-4BB2-A3A1-70C2871A9914";
shapes = (
{
closed = 1;
nodes = (
(572,-16,o),
(699,99,o),
(713,273,c),
(575,283,l),
(557,164,o),
(493,97,o),
(395,97,cs),
(272,97,o),
(182,203,o),
(182,348,cs),
(182,493,o),
(273,602,o),
(396,602,cs),
(494,602,o),
(559,533,o),
(575,412,c),
(713,422,l),
(699,599,o),
(573,716,o),
(395,716,cs),
(191,716,o),
(44,563,o),
(44,350,cs),
(44,137,o),
(192,-16,o),
(396,-16,cs)
);
},
{
closed = 1;
nodes = (
(195,780,l),
(319,780,l),
(379,880,l),
(439,780,l),
(563,780,l),
(481,920,l),
(277,920,l)
);
}
);
width = 767;
}
);
note = Ccircumflex;
unicode = 264;
},
{
glyphname = Cdotaccent;
kernLeft = C;
kernRight = C;
lastChange = "2024-02-25 16:05:16 +0000";
layers = (
{
hints = (
{
horizontal = 1;
place = (-16, 113);
place = (-16, 113);
type = Stem;
},
{
horizontal = 1;
place = (602, 114);
place = (602, 114);
type = Stem;
},
{
horizontal = 1;
place = (750, 130);
place = (750, 130);
type = Stem;
},
{
place = (44, 138);
place = (44, 138);
type = Stem;
},
{
place = (299, 160);
place = (299, 160);
type = Stem;
}
);
layerId = m01;
shapes = (
{
closed = 1;
nodes = (
(572,-16,o),
(699,99,o),
(713,273,c),
(575,283,l),
(557,164,o),
(493,97,o),
(395,97,cs),
(272,97,o),
(182,203,o),
(182,348,cs),
(182,493,o),
(273,602,o),
(396,602,cs),
(494,602,o),
(559,533,o),
(575,412,c),
(713,422,l),
(699,599,o),
(573,716,o),
(395,716,cs),
(191,716,o),
(44,563,o),
(44,350,cs),
(44,137,o),
(192,-16,o),
(396,-16,cs)
);
},
{
closed = 1;
nodes = (
(299,750,l),
(459,750,l),
(459,880,l),
(299,880,l)
);
}
);
width = 767;
},
{
hints = (
{
horizontal = 1;
place = (-16, 113);
place = (-16, 113);
type = Stem;
},
{
horizontal = 1;
place = (602, 114);
place = (602, 114);
type = Stem;
},
{
horizontal = 1;
place = (750, 130);
place = (750, 130);
type = Stem;
},
{
place = (44, 138);
place = (44, 138);
type = Stem;
},
{
place = (299, 160);
place = (299, 160);
type = Stem;
}
);
layerId = "6A72B8B1-0803-4BB2-A3A1-70C2871A9914";
shapes = (
{
closed = 1;
nodes = (
(572,-16,o),
(699,99,o),
(713,273,c),
(575,283,l),
(557,164,o),
(493,97,o),
(395,97,cs),
(272,97,o),
(182,203,o),
(182,348,cs),
(182,493,o),
(273,602,o),
(396,602,cs),
(494,602,o),
(559,533,o),
(575,412,c),
(713,422,l),
(699,599,o),
(573,716,o),
(395,716,cs),
(191,716,o),
(44,563,o),
(44,350,cs),
(44,137,o),
(192,-16,o),
(396,-16,cs)
);
},
{
closed = 1;
nodes = (
(299,750,l),
(459,750,l),
(459,880,l),
(299,880,l)
);
}
);
width = 767;
}
);
note = Cdotaccent;
unicode = 266;
},
{
glyphname = D;
kernLeft = B;
kernRight = C;
lastChange = "2024-02-25 16:24:23 +0000";
layers = (
{
hints = (
{
horizontal = 1;
place = (0, 113);
place = (0, 113);
type = Stem;
},
{
horizontal = 1;
place = (587, 113);
place = (587, 113);
type = Stem;
},
{
place = (68, 138);
place = (68, 138);
type = Stem;
},
{
place = (528, 138);
place = (528, 138);
type = Stem;
}
);
layerId = m01;
shapes = (
{
closed = 1;
nodes = (
(1712,1679,l),
(1673,1817,o),
(1556,1913,o),
(1398,1923,cs),
(1302,1929,l),
(1332,1814,l),
(1390,1810,ls),
(1483,1804,o),
(1552,1746,o),
(1576,1658,c)
);
},
{
closed = 1;
nodes = (
(-1501,866,l),
(-1644,808,l),
(-1466,367,l),
(-1374,507,l),
(-1474,755,l),
(-1425,775,l)
);
},
{
closed = 1;
nodes = (
(-359,-890,l),
(-383,-906,o),
(-411,-916,o),
(-442,-921,cs),
(-553,-938,l),
(-584,-734,l),
(-706,-849,l),
(-672,-1071,l),
(-425,-1033,ls),
(-381,-1026,o),
(-341,-1013,o),
(-305,-994,c)
);
},
{
closed = 1;
nodes = (
(1797,-362,l),
(1805,-392,o),
(1807,-425,o),
(1803,-460,cs),
(1793,-564,o),
(1738,-640,o),
(1660,-666,c),
(1687,-780,l),
(1826,-748,o),
(1925,-634,o),
(1941,-473,cs),
(1945,-429,o),
(1942,-386,o),
(1933,-346,c)
);
}
);
width = 710;
},
{
hints = (
{
horizontal = 1;
place = (0, 113);
place = (0, 113);
type = Stem;
},
{
horizontal = 1;
place = (587, 113);
place = (587, 113);
type = Stem;
},
{
place = (68, 138);
place = (68, 138);
type = Stem;
},
{
place = (528, 138);
place = (528, 138);
type = Stem;
}
);
layerId = "6A72B8B1-0803-4BB2-A3A1-70C2871A9914";
shapes = (
{
closed = 1;
nodes = (
(646,476,l),
(600,612,o),
(477,700,o),
(318,700,cs),
(222,700,l),
(259,587,l),
(318,587,ls),
(411,587,o),
(482,533,o),
(512,447,c)
);
},
{
closed = 1;
nodes = (
(222,700,l),
(68,700,l),
(68,224,l),
(206,320,l),
(206,587,l),
(259,587,l)
);
},
{
closed = 1;
nodes = (
(405,131,l),
(379,119,o),
(350,113,o),
(318,113,cs),
(206,113,l),
(206,320,l),
(68,224,l),
(68,0,l),
(318,0,ls),
(363,0,o),
(404,7,o),
(443,20,c)
);
},
{
closed = 1;
nodes = (
(512,447,l),
(523,418,o),
(528,385,o),
(528,350,cs),
(528,246,o),
(480,165,o),
(405,131,c),
(443,20,l),
(578,66,o),
(666,189,o),
(666,350,cs),
(666,395,o),
(659,437,o),
(646,476,c)
);
}
);
width = 710;
}
);
note = D;
unicode = 68;
},
{
glyphname = Eth;
kernLeft = B;
kernRight = C;
lastChange = "2024-02-25 16:05:16 +0000";
layers = (
{
hints = (
{
horizontal = 1;
place = (0, 113);
place = (0, 113);
type = Stem;
},
{
horizontal = 1;
place = (294, 113);
place = (294, 113);
type = Stem;
},
{
horizontal = 1;
place = (587, 113);
place = (587, 113);
type = Stem;
},
{
place = (56, 138);
place = (56, 138);
type = Stem;
},
{
place = (516, 138);
place = (516, 138);
type = Stem;
}
);
layerId = m01;
shapes = (
{
closed = 1;
nodes = (
(-2,294,l),
(56,294,l),
(56,0,l),
(306,0,ls),
(510,0,o),
(654,144,o),
(654,350,cs),
(654,556,o),
(510,700,o),
(306,700,cs),
(56,700,l),
(56,407,l),
(-2,407,l)
);
},
{
closed = 1;
nodes = (
(194,113,l),
(194,294,l),
(326,294,l),
(326,407,l),
(194,407,l),
(194,587,l),
(306,587,ls),
(430,587,o),
(516,490,o),
(516,350,cs),
(516,210,o),
(430,113,o),
(306,113,cs)
);
}
);
width = 698;
},
{
hints = (
{
horizontal = 1;
place = (0, 113);
place = (0, 113);
type = Stem;
},
{
horizontal = 1;
place = (294, 113);
place = (294, 113);
type = Stem;
},
{
horizontal = 1;
place = (587, 113);
place = (587, 113);
type = Stem;
},
{
place = (56, 138);
place = (56, 138);
type = Stem;
},
{
place = (516, 138);
place = (516, 138);
type = Stem;
}
);
layerId = "6A72B8B1-0803-4BB2-A3A1-70C2871A9914";
shapes = (
{
closed = 1;
nodes = (
(-2,294,l),
(56,294,l),
(56,0,l),
(306,0,ls),
(510,0,o),
(654,144,o),
(654,350,cs),
(654,556,o),
(510,700,o),
(306,700,cs),
(56,700,l),
(56,407,l),
(-2,407,l)
);
},
{
closed = 1;
nodes = (
(194,113,l),
(194,294,l),
(326,294,l),
(326,407,l),
(194,407,l),
(194,587,l),
(306,587,ls),
(430,587,o),
(516,490,o),
(516,350,cs),
(516,210,o),
(430,113,o),
(306,113,cs)
);
}
);
width = 698;
}
);
note = Eth;
unicode = 208;
},
{
glyphname = Dcaron;
kernLeft = B;
kernRight = C;
lastChange = "2024-02-25 16:05:16 +0000";
layers = (
{
hints = (
{
horizontal = 1;
place = (0, 113);
place = (0, 113);
type = Stem;
},
{
horizontal = 1;
place = (587, 113);
place = (587, 113);
type = Stem;
},
{
horizontal = 1;
place = (790, 140);
place = (790, 140);
type = Stem;
},
{
place = (68, 138);
place = (68, 138);
type = Stem;
},
{
place = (528, 138);
place = (528, 138);
type = Stem;
}
);
layerId = m01;
shapes = (
{
closed = 1;
nodes = (
(68,0,l),
(318,0,ls),
(522,0,o),
(666,144,o),
(666,350,cs),
(666,556,o),
(522,700,o),
(318,700,cs),
(68,700,l)
);
},
{
closed = 1;
nodes = (
(153,930,l),
(235,790,l),
(439,790,l),
(521,930,l),
(397,930,l),
(337,830,l),
(277,930,l)
);
},
{
closed = 1;
nodes = (
(206,113,l),
(206,587,l),
(318,587,ls),
(442,587,o),
(528,490,o),
(528,350,cs),
(528,210,o),
(442,113,o),
(318,113,cs)
);
}
);
width = 710;
},
{
hints = (
{
horizontal = 1;
place = (0, 113);
place = (0, 113);
type = Stem;
},
{
horizontal = 1;
place = (587, 113);
place = (587, 113);
type = Stem;
},
{
horizontal = 1;
place = (790, 140);
place = (790, 140);
type = Stem;
},
{
place = (68, 138);
place = (68, 138);
type = Stem;
},
{
place = (528, 138);
place = (528, 138);
type = Stem;
}
);
layerId = "6A72B8B1-0803-4BB2-A3A1-70C2871A9914";
shapes = (
{
closed = 1;
nodes = (
(68,0,l),
(318,0,ls),
(522,0,o),
(666,144,o),
(666,350,cs),
(666,556,o),
(522,700,o),
(318,700,cs),
(68,700,l)
);
},
{
closed = 1;
nodes = (
(153,930,l),
(235,790,l),
(439,790,l),
(521,930,l),
(397,930,l),
(337,830,l),
(277,930,l)
);
},
{
closed = 1;
nodes = (
(206,113,l),
(206,587,l),
(318,587,ls),
(442,587,o),
(528,490,o),
(528,350,cs),
(528,210,o),
(442,113,o),
(318,113,cs)
);
}
);
width = 710;
}
);
note = Dcaron;
unicode = 270;
},
{
glyphname = Dcroat;
kernLeft = B;
kernRight = C;
lastChange = "2024-02-25 16:05:16 +0000";
layers = (
{
hints = (
{
horizontal = 1;
place = (0, 113);
place = (0, 113);
type = Stem;
},
{
horizontal = 1;
place = (294, 113);
place = (294, 113);
type = Stem;
},
{
horizontal = 1;
place = (587, 113);
place = (587, 113);
type = Stem;
},
{
place = (56, 138);
place = (56, 138);
type = Stem;
},
{
place = (516, 138);
place = (516, 138);
type = Stem;
}
);
layerId = m01;
shapes = (
{
closed = 1;
nodes = (
(-2,294,l),
(56,294,l),
(56,0,l),
(306,0,ls),
(510,0,o),
(654,144,o),
(654,350,cs),
(654,556,o),
(510,700,o),
(306,700,cs),
(56,700,l),
(56,407,l),
(-2,407,l)
);
},
{
closed = 1;
nodes = (
(194,113,l),
(194,294,l),
(326,294,l),
(326,407,l),
(194,407,l),
(194,587,l),
(306,587,ls),
(430,587,o),
(516,490,o),
(516,350,cs),
(516,210,o),
(430,113,o),
(306,113,cs)
);
}
);
width = 698;
},
{
hints = (
{
horizontal = 1;
place = (0, 113);
place = (0, 113);
type = Stem;
},
{
horizontal = 1;
place = (294, 113);
place = (294, 113);
type = Stem;
},
{
horizontal = 1;
place = (587, 113);
place = (587, 113);
type = Stem;
},
{
place = (56, 138);
place = (56, 138);
type = Stem;
},
{
place = (516, 138);
place = (516, 138);
type = Stem;
}
);
layerId = "6A72B8B1-0803-4BB2-A3A1-70C2871A9914";
shapes = (
{
closed = 1;
nodes = (
(-2,294,l),
(56,294,l),
(56,0,l),
(306,0,ls),
(510,0,o),
(654,144,o),
(654,350,cs),
(654,556,o),
(510,700,o),
(306,700,cs),
(56,700,l),
(56,407,l),
(-2,407,l)
);
},
{
closed = 1;
nodes = (
(194,113,l),
(194,294,l),
(326,294,l),
(326,407,l),
(194,407,l),
(194,587,l),
(306,587,ls),
(430,587,o),
(516,490,o),
(516,350,cs),
(516,210,o),
(430,113,o),
(306,113,cs)
);
}
);
width = 698;
}
);
note = Dcroat;
unicode = 272;
},
{
glyphname = E;
kernLeft = B;
kernRight = AE;
lastChange = "2024-02-25 16:05:16 +0000";
layers = (
{
hints = (
{
horizontal = 1;
place = (0, 113);
place = (0, 113);
type = Stem;
},
{
horizontal = 1;
place = (307, 113);
place = (307, 113);
type = Stem;
},
{
horizontal = 1;
place = (587, 113);
place = (587, 113);
type = Stem;
},
{
place = (68, 138);
place = (68, 138);
type = Stem;
}
);
layerId = m01;
shapes = (
{
closed = 1;
nodes = (
(68,0,l),
(536,0,l),
(536,113,l),
(206,113,l),
(206,307,l),
(476,307,l),
(476,420,l),
(206,420,l),
(206,587,l),
(536,587,l),
(536,700,l),
(68,700,l)
);
}
);
width = 580;
},
{
hints = (
{
horizontal = 1;
place = (0, 113);
place = (0, 113);
type = Stem;
},
{
horizontal = 1;
place = (307, 113);
place = (307, 113);
type = Stem;
},
{
horizontal = 1;
place = (587, 113);
place = (587, 113);
type = Stem;
},
{
place = (68, 138);
place = (68, 138);
type = Stem;
}
);
layerId = "6A72B8B1-0803-4BB2-A3A1-70C2871A9914";
shapes = (
{
closed = 1;
nodes = (
(68,0,l),
(536,0,l),
(536,113,l),
(206,113,l),
(206,307,l),
(476,307,l),
(476,420,l),
(206,420,l),
(206,587,l),
(536,587,l),
(536,700,l),
(68,700,l)
);
}
);
width = 580;
}
);
note = E;
unicode = 69;
},
{
glyphname = Eacute;
kernLeft = B;
kernRight = AE;
lastChange = "2024-02-25 16:05:16 +0000";
layers = (
{
hints = (
{
horizontal = 1;
place = (0, 113);
place = (0, 113);
type = Stem;
},
{
horizontal = 1;
place = (307, 113);
place = (307, 113);
type = Stem;
},
{
horizontal = 1;
place = (587, 113);
place = (587, 113);
type = Stem;
},
{
horizontal = 1;
place = (760, 140);
place = (760, 140);
type = Stem;
},
{
place = (68, 138);
place = (68, 138);
type = Stem;
}
);
layerId = m01;
shapes = (
{
closed = 1;
nodes = (
(68,0,l),
(536,0,l),
(536,113,l),
(206,113,l),
(206,307,l),
(476,307,l),
(476,420,l),
(206,420,l),
(206,587,l),
(536,587,l),
(536,700,l),
(68,700,l)
);
},
{
closed = 1;
nodes = (
(265,760,l),
(355,760,l),
(459,900,l),
(321,900,l)
);
}
);
width = 580;
},
{
hints = (
{
horizontal = 1;
place = (0, 113);
place = (0, 113);
type = Stem;
},
{
horizontal = 1;
place = (307, 113);
place = (307, 113);
type = Stem;
},
{
horizontal = 1;
place = (587, 113);
place = (587, 113);
type = Stem;
},
{
horizontal = 1;
place = (760, 140);
place = (760, 140);
type = Stem;
},
{
place = (68, 138);
place = (68, 138);
type = Stem;
}
);
layerId = "6A72B8B1-0803-4BB2-A3A1-70C2871A9914";
shapes = (
{
closed = 1;
nodes = (
(68,0,l),
(536,0,l),
(536,113,l),
(206,113,l),
(206,307,l),
(476,307,l),
(476,420,l),
(206,420,l),
(206,587,l),
(536,587,l),
(536,700,l),
(68,700,l)
);
},
{
closed = 1;
nodes = (
(265,760,l),
(355,760,l),
(459,900,l),
(321,900,l)
);
}
);
width = 580;
}
);
note = Eacute;
unicode = 201;
},
{
glyphname = Ebreve;
kernLeft = B;
kernRight = AE;
lastChange = "2024-02-25 16:05:16 +0000";
layers = (
{
hints = (
{
horizontal = 1;
place = (0, 113);
place = (0, 113);
type = Stem;
},
{
horizontal = 1;
place = (307, 113);
place = (307, 113);
type = Stem;
},
{
horizontal = 1;
place = (587, 113);
place = (587, 113);
type = Stem;
},
{
horizontal = 1;
place = (760, 95);
place = (760, 95);
type = Stem;
},
{
place = (68, 138);
place = (68, 138);
type = Stem;
},
{
horizontal = 1;
place = (760, 170);
place = (760, 170);
type = Stem;
},
{
place = (132, 95);
place = (132, 95);
type = Stem;
},
{
place = (377, 95);
place = (377, 95);
type = Stem;
}
);
layerId = m01;
shapes = (
{
closed = 1;
nodes = (
(68,0,l),
(536,0,l),
(536,113,l),
(206,113,l),
(206,307,l),
(476,307,l),
(476,420,l),
(206,420,l),
(206,587,l),
(536,587,l),
(536,700,l),
(68,700,l)
);
},
{
closed = 1;
nodes = (
(132,930,l),
(132,830,o),
(207,760,o),
(302,760,cs),
(394,760,o),
(472,830,o),
(472,930,c),
(377,930,l),
(377,885,o),
(343,855,o),
(302,855,cs),
(260,855,o),
(227,885,o),
(227,930,c)
);
}
);
width = 580;
},
{
hints = (
{
horizontal = 1;
place = (0, 113);
place = (0, 113);
type = Stem;
},
{
horizontal = 1;
place = (307, 113);
place = (307, 113);
type = Stem;
},
{
horizontal = 1;
place = (587, 113);
place = (587, 113);
type = Stem;
},
{
horizontal = 1;
place = (760, 95);
place = (760, 95);
type = Stem;
},
{
place = (68, 138);
place = (68, 138);
type = Stem;
},
{
horizontal = 1;
place = (760, 170);
place = (760, 170);
type = Stem;
},
{
place = (132, 95);
place = (132, 95);
type = Stem;
},
{
place = (377, 95);
place = (377, 95);
type = Stem;
}
);
layerId = "6A72B8B1-0803-4BB2-A3A1-70C2871A9914";
shapes = (
{
closed = 1;
nodes = (
(68,0,l),
(536,0,l),
(536,113,l),
(206,113,l),
(206,307,l),
(476,307,l),
(476,420,l),
(206,420,l),
(206,587,l),
(536,587,l),
(536,700,l),
(68,700,l)
);
},
{
closed = 1;
nodes = (
(132,930,l),
(132,830,o),
(207,760,o),
(302,760,cs),
(394,760,o),
(472,830,o),
(472,930,c),
(377,930,l),
(377,885,o),
(343,855,o),
(302,855,cs),
(260,855,o),
(227,885,o),
(227,930,c)
);
}
);
width = 580;
}
);
note = Ebreve;
unicode = 276;
},
{
glyphname = Ecaron;
kernLeft = B;
kernRight = AE;
lastChange = "2024-02-25 16:05:16 +0000";
layers = (
{
hints = (
{
horizontal = 1;
place = (0, 113);
place = (0, 113);
type = Stem;
},
{
horizontal = 1;
place = (307, 113);
place = (307, 113);
type = Stem;
},
{
horizontal = 1;
place = (587, 113);
place = (587, 113);
type = Stem;
},
{
horizontal = 1;
place = (798, 140);
place = (798, 140);
type = Stem;
},
{
place = (68, 138);
place = (68, 138);
type = Stem;
}
);
layerId = m01;
shapes = (
{
closed = 1;
nodes = (
(68,0,l),
(536,0,l),
(536,113,l),
(206,113,l),
(206,307,l),
(476,307,l),
(476,420,l),
(206,420,l),
(206,587,l),
(536,587,l),
(536,700,l),
(68,700,l)
);
},
{
closed = 1;
nodes = (
(118,938,l),
(200,798,l),
(404,798,l),
(486,938,l),
(362,938,l),
(302,838,l),
(242,938,l)
);
}
);
width = 580;
},
{
hints = (
{
horizontal = 1;
place = (0, 113);
place = (0, 113);
type = Stem;
},
{
horizontal = 1;
place = (307, 113);
place = (307, 113);
type = Stem;
},
{
horizontal = 1;
place = (587, 113);
place = (587, 113);
type = Stem;
},
{
horizontal = 1;
place = (798, 140);
place = (798, 140);
type = Stem;
},
{
place = (68, 138);
place = (68, 138);
type = Stem;
}
);
layerId = "6A72B8B1-0803-4BB2-A3A1-70C2871A9914";
shapes = (
{
closed = 1;
nodes = (
(68,0,l),
(536,0,l),
(536,113,l),
(206,113,l),
(206,307,l),
(476,307,l),
(476,420,l),
(206,420,l),
(206,587,l),
(536,587,l),
(536,700,l),
(68,700,l)
);
},
{
closed = 1;
nodes = (
(118,938,l),
(200,798,l),
(404,798,l),
(486,938,l),
(362,938,l),
(302,838,l),
(242,938,l)
);
}
);
width = 580;
}
);
note = Ecaron;
unicode = 282;
},
{
glyphname = Ecircumflex;
kernLeft = B;
kernRight = AE;
lastChange = "2024-02-25 16:05:16 +0000";
layers = (
{
hints = (
{
horizontal = 1;
place = (0, 113);
place = (0, 113);
type = Stem;
},
{
horizontal = 1;
place = (307, 113);
place = (307, 113);
type = Stem;
},
{
horizontal = 1;
place = (587, 113);
place = (587, 113);
type = Stem;
},
{
horizontal = 1;
place = (788, 140);
place = (788, 140);
type = Stem;
},
{
place = (68, 138);
place = (68, 138);
type = Stem;
},
{
horizontal = 1;
place = (888, 40);
place = (888, 40);
type = Stem;
}
);
layerId = m01;
shapes = (
{
closed = 1;
nodes = (
(68,0,l),
(536,0,l),
(536,113,l),
(206,113,l),
(206,307,l),
(476,307,l),
(476,420,l),
(206,420,l),
(206,587,l),
(536,587,l),
(536,700,l),
(68,700,l)
);
},
{
closed = 1;
nodes = (
(118,788,l),
(242,788,l),
(302,888,l),
(362,788,l),
(486,788,l),
(404,928,l),
(200,928,l)
);
}
);
width = 580;
},
{
hints = (
{
horizontal = 1;
place = (0, 113);
place = (0, 113);
type = Stem;
},
{
horizontal = 1;
place = (307, 113);
place = (307, 113);
type = Stem;
},
{
horizontal = 1;
place = (587, 113);
place = (587, 113);
type = Stem;
},
{
horizontal = 1;
place = (788, 140);
place = (788, 140);
type = Stem;
},
{
place = (68, 138);
place = (68, 138);
type = Stem;
},
{
horizontal = 1;
place = (888, 40);
place = (888, 40);
type = Stem;
}
);
layerId = "6A72B8B1-0803-4BB2-A3A1-70C2871A9914";
shapes = (
{
closed = 1;
nodes = (
(68,0,l),
(536,0,l),
(536,113,l),
(206,113,l),
(206,307,l),
(476,307,l),
(476,420,l),
(206,420,l),
(206,587,l),
(536,587,l),
(536,700,l),
(68,700,l)
);
},
{
closed = 1;
nodes = (
(118,788,l),
(242,788,l),
(302,888,l),
(362,788,l),
(486,788,l),
(404,928,l),
(200,928,l)
);
}
);
width = 580;
}
);
note = Ecircumflex;
unicode = 202;
},
{
glyphname = Edieresis;
kernLeft = B;
kernRight = AE;
lastChange = "2024-02-25 16:05:16 +0000";
layers = (
{
hints = (
{
horizontal = 1;
place = (0, 113);
place = (0, 113);
type = Stem;
},
{
horizontal = 1;
place = (307, 113);
place = (307, 113);
type = Stem;
},
{
horizontal = 1;
place = (587, 113);
place = (587, 113);
type = Stem;
},
{
horizontal = 1;
place = (770, 120);
place = (770, 120);
type = Stem;
},
{
place = (68, 138);
place = (68, 138);
type = Stem;
},
{
place = (332, 130);
place = (332, 130);
type = Stem;
},
{
place = (142, 130);
place = (142, 130);
type = Stem;
}
);
layerId = m01;
shapes = (
{
closed = 1;
nodes = (
(332,770,l),
(462,770,l),
(462,890,l),
(332,890,l)
);
},
{
closed = 1;
nodes = (
(68,0,l),
(536,0,l),
(536,113,l),
(206,113,l),
(206,307,l),
(476,307,l),
(476,420,l),
(206,420,l),
(206,587,l),
(536,587,l),
(536,700,l),
(68,700,l)
);
},
{
closed = 1;
nodes = (
(142,770,l),
(272,770,l),
(272,890,l),
(142,890,l)
);
}
);
width = 580;
},
{
hints = (
{
horizontal = 1;
place = (0, 113);
place = (0, 113);
type = Stem;
},
{
horizontal = 1;
place = (307, 113);
place = (307, 113);
type = Stem;
},
{
horizontal = 1;
place = (587, 113);
place = (587, 113);
type = Stem;
},
{
horizontal = 1;
place = (770, 120);
place = (770, 120);
type = Stem;
},
{
place = (68, 138);
place = (68, 138);
type = Stem;
},
{
place = (332, 130);
place = (332, 130);
type = Stem;
},
{
place = (142, 130);
place = (142, 130);
type = Stem;
}
);
layerId = "6A72B8B1-0803-4BB2-A3A1-70C2871A9914";
shapes = (
{
closed = 1;
nodes = (
(332,770,l),
(462,770,l),
(462,890,l),
(332,890,l)
);
},
{
closed = 1;
nodes = (
(68,0,l),
(536,0,l),
(536,113,l),
(206,113,l),
(206,307,l),
(476,307,l),
(476,420,l),
(206,420,l),
(206,587,l),
(536,587,l),
(536,700,l),
(68,700,l)
);
},
{
closed = 1;
nodes = (
(142,770,l),
(272,770,l),
(272,890,l),
(142,890,l)
);
}
);
width = 580;
}
);
note = Edieresis;
unicode = 203;
},
{
glyphname = Edotaccent;
kernLeft = B;
kernRight = AE;
lastChange = "2024-02-25 16:05:16 +0000";
layers = (
{
hints = (
{
horizontal = 1;
place = (0, 113);
place = (0, 113);
type = Stem;
},
{
horizontal = 1;
place = (307, 113);
place = (307, 113);
type = Stem;
},
{
horizontal = 1;
place = (587, 113);
place = (587, 113);
type = Stem;
},
{
horizontal = 1;
place = (750, 130);
place = (750, 130);
type = Stem;
},
{
place = (68, 138);
place = (68, 138);
type = Stem;
},
{
place = (222, 160);
place = (222, 160);
type = Stem;
}
);
layerId = m01;
shapes = (
{
closed = 1;
nodes = (
(68,0,l),
(536,0,l),
(536,113,l),
(206,113,l),
(206,307,l),
(476,307,l),
(476,420,l),
(206,420,l),
(206,587,l),
(536,587,l),
(536,700,l),
(68,700,l)
);
},
{
closed = 1;
nodes = (
(222,750,l),
(382,750,l),
(382,880,l),
(222,880,l)
);
}
);
width = 580;
},
{
hints = (
{
horizontal = 1;
place = (0, 113);
place = (0, 113);
type = Stem;
},
{
horizontal = 1;
place = (307, 113);
place = (307, 113);
type = Stem;
},
{
horizontal = 1;
place = (587, 113);
place = (587, 113);
type = Stem;
},
{
horizontal = 1;
place = (750, 130);
place = (750, 130);
type = Stem;
},
{
place = (68, 138);
place = (68, 138);
type = Stem;
},
{
place = (222, 160);
place = (222, 160);
type = Stem;
}
);
layerId = "6A72B8B1-0803-4BB2-A3A1-70C2871A9914";
shapes = (
{
closed = 1;
nodes = (
(68,0,l),
(536,0,l),
(536,113,l),
(206,113,l),
(206,307,l),
(476,307,l),
(476,420,l),
(206,420,l),
(206,587,l),
(536,587,l),
(536,700,l),
(68,700,l)
);
},
{
closed = 1;
nodes = (
(222,750,l),
(382,750,l),
(382,880,l),
(222,880,l)
);
}
);
width = 580;
}
);
note = Edotaccent;
unicode = 278;
},
{
glyphname = Egrave;
kernLeft = B;
kernRight = AE;
lastChange = "2024-02-25 16:05:16 +0000";
layers = (
{
hints = (
{
horizontal = 1;
place = (0, 113);
place = (0, 113);
type = Stem;
},
{
horizontal = 1;
place = (307, 113);
place = (307, 113);
type = Stem;
},
{
horizontal = 1;
place = (587, 113);
place = (587, 113);
type = Stem;
},
{
horizontal = 1;
place = (760, 140);
place = (760, 140);
type = Stem;
},
{
place = (68, 138);
place = (68, 138);
type = Stem;
}
);
layerId = m01;
shapes = (
{
closed = 1;
nodes = (
(68,0,l),
(536,0,l),
(536,113,l),
(206,113,l),
(206,307,l),
(476,307,l),
(476,420,l),
(206,420,l),
(206,587,l),
(536,587,l),
(536,700,l),
(68,700,l)
);
},
{
closed = 1;
nodes = (
(145,900,l),
(249,760,l),
(339,760,l),
(283,900,l)
);
}
);
width = 580;
},
{
hints = (
{
horizontal = 1;
place = (0, 113);
place = (0, 113);
type = Stem;
},
{
horizontal = 1;
place = (307, 113);
place = (307, 113);
type = Stem;
},
{
horizontal = 1;
place = (587, 113);
place = (587, 113);
type = Stem;
},
{
horizontal = 1;
place = (760, 140);
place = (760, 140);
type = Stem;
},
{
place = (68, 138);
place = (68, 138);
type = Stem;
}
);
layerId = "6A72B8B1-0803-4BB2-A3A1-70C2871A9914";
shapes = (
{
closed = 1;
nodes = (
(68,0,l),
(536,0,l),
(536,113,l),
(206,113,l),
(206,307,l),
(476,307,l),
(476,420,l),
(206,420,l),
(206,587,l),
(536,587,l),
(536,700,l),
(68,700,l)
);
},
{
closed = 1;
nodes = (
(145,900,l),
(249,760,l),
(339,760,l),
(283,900,l)
);
}
);
width = 580;
}
);
note = Egrave;
unicode = 200;
},
{
glyphname = Emacron;
kernLeft = B;
kernRight = AE;
lastChange = "2024-02-25 16:05:16 +0000";
layers = (
{
hints = (
{
horizontal = 1;
place = (0, 113);
place = (0, 113);
type = Stem;
},
{
horizontal = 1;
place = (307, 113);
place = (307, 113);
type = Stem;
},
{
horizontal = 1;
place = (587, 113);
place = (587, 113);
type = Stem;
},
{
horizontal = 1;
place = (750, 103);
place = (750, 103);
type = Stem;
},
{
place = (68, 138);
place = (68, 138);
type = Stem;
}
);
layerId = m01;
shapes = (
{
closed = 1;
nodes = (
(68,0,l),
(536,0,l),
(536,113,l),
(206,113,l),
(206,307,l),
(476,307,l),
(476,420,l),
(206,420,l),
(206,587,l),
(536,587,l),
(536,700,l),
(68,700,l)
);
},
{
closed = 1;
nodes = (
(126,750,l),
(478,750,l),
(478,853,l),
(126,853,l)
);
}
);
width = 580;
},
{
hints = (
{
horizontal = 1;
place = (0, 113);
place = (0, 113);
type = Stem;
},
{
horizontal = 1;
place = (307, 113);
place = (307, 113);
type = Stem;
},
{
horizontal = 1;
place = (587, 113);
place = (587, 113);
type = Stem;
},
{
horizontal = 1;
place = (750, 103);
place = (750, 103);
type = Stem;
},
{
place = (68, 138);
place = (68, 138);
type = Stem;
}
);
layerId = "6A72B8B1-0803-4BB2-A3A1-70C2871A9914";
shapes = (
{
closed = 1;
nodes = (
(68,0,l),
(536,0,l),
(536,113,l),
(206,113,l),
(206,307,l),
(476,307,l),
(476,420,l),
(206,420,l),
(206,587,l),
(536,587,l),
(536,700,l),
(68,700,l)
);
},
{
closed = 1;
nodes = (
(126,750,l),
(478,750,l),
(478,853,l),
(126,853,l)
);
}
);
width = 580;
}
);
note = Emacron;
unicode = 274;
},
{
glyphname = Eogonek;
kernLeft = B;
kernRight = AE;
lastChange = "2024-02-25 16:05:16 +0000";
layers = (
{
hints = (
{
horizontal = 1;
place = (-178, 85);
place = (-178, 85);
type = Stem;
},
{
horizontal = 1;
place = (0, 113);
place = (0, 113);
type = Stem;
},
{
horizontal = 1;
place = (307, 113);
place = (307, 113);
type = Stem;
},
{
horizontal = 1;
place = (587, 113);
place = (587, 113);
type = Stem;
},
{
place = (68, 138);
place = (68, 138);
type = Stem;
},
{
place = (367, 85);
place = (367, 85);
type = Stem;
},
{
place = (507, 77);
place = (507, 77);
type = Stem;
},
{
place = (367, 169);
place = (367, 169);
type = Stem;
}
);
layerId = m01;
shapes = (
{
closed = 1;
nodes = (
(68,0,l),
(451,0,l),
(400,-17,o),
(367,-55,o),
(367,-98,cs),
(367,-146,o),
(407,-178,o),
(466,-178,cs),
(535,-178,o),
(584,-134,o),
(584,-73,c),
(507,-63,l),
(507,-81,o),
(494,-93,o),
(476,-93,cs),
(461,-93,o),
(452,-84,o),
(452,-69,cs),
(452,-42,o),
(479,-20,o),
(536,0,c),
(536,113,l),
(206,113,l),
(206,307,l),
(476,307,l),
(476,420,l),
(206,420,l),
(206,587,l),
(536,587,l),
(536,700,l),
(68,700,l)
);
}
);
width = 618;
},
{
hints = (
{
horizontal = 1;
place = (-178, 85);
place = (-178, 85);
type = Stem;
},
{
horizontal = 1;
place = (0, 113);
place = (0, 113);
type = Stem;
},
{
horizontal = 1;
place = (307, 113);
place = (307, 113);
type = Stem;
},
{
horizontal = 1;
place = (587, 113);
place = (587, 113);
type = Stem;
},
{
place = (68, 138);
place = (68, 138);
type = Stem;
},
{
place = (367, 85);
place = (367, 85);
type = Stem;
},
{
place = (507, 77);
place = (507, 77);
type = Stem;
},
{
place = (367, 169);
place = (367, 169);
type = Stem;
}
);
layerId = "6A72B8B1-0803-4BB2-A3A1-70C2871A9914";
shapes = (
{
closed = 1;
nodes = (
(68,0,l),
(451,0,l),
(400,-17,o),
(367,-55,o),
(367,-98,cs),
(367,-146,o),
(407,-178,o),
(466,-178,cs),
(535,-178,o),
(584,-134,o),
(584,-73,c),
(507,-63,l),
(507,-81,o),
(494,-93,o),
(476,-93,cs),
(461,-93,o),
(452,-84,o),
(452,-69,cs),
(452,-42,o),
(479,-20,o),
(536,0,c),
(536,113,l),
(206,113,l),
(206,307,l),
(476,307,l),
(476,420,l),
(206,420,l),
(206,587,l),
(536,587,l),
(536,700,l),
(68,700,l)
);
}
);
width = 618;
}
);
note = Eogonek;
unicode = 280;
},
{
glyphname = uni1EBC;
kernLeft = B;
kernRight = AE;
lastChange = "2024-02-25 16:05:16 +0000";
layers = (
{
hints = (
{
horizontal = 1;
place = (0, 113);
place = (0, 113);
type = Stem;
},
{
horizontal = 1;
place = (307, 113);
place = (307, 113);
type = Stem;
},
{
horizontal = 1;
place = (587, 113);
place = (587, 113);
type = Stem;
},
{
place = (68, 138);
place = (68, 138);
type = Stem;
},
{
horizontal = 1;
place = (817, 105);
place = (817, 105);
type = Stem;
},
{
place = (92, 112);
place = (92, 112);
type = Stem;
},
{
horizontal = 1;
place = (760, 104);
place = (760, 104);
type = Stem;
},
{
place = (400, 112);
place = (400, 112);
type = Stem;
}
);
layerId = m01;
shapes = (
{
closed = 1;
nodes = (
(68,0,l),
(536,0,l),
(536,113,l),
(206,113,l),
(206,307,l),
(476,307,l),
(476,420,l),
(206,420,l),
(206,587,l),
(536,587,l),
(536,700,l),
(68,700,l)
);
},
{
closed = 1;
nodes = (
(204,760,l),
(204,791,o),
(213,817,o),
(242,817,cs),
(284,817,o),
(305,760,o),
(382,760,cs),
(467,760,o),
(512,828,o),
(512,912,c),
(400,922,l),
(400,890,o),
(390,864,o),
(362,864,cs),
(320,864,o),
(302,922,o),
(226,922,cs),
(141,922,o),
(92,853,o),
(92,770,c)
);
}
);
width = 580;
},
{
hints = (
{
horizontal = 1;
place = (0, 113);
place = (0, 113);
type = Stem;
},
{
horizontal = 1;
place = (307, 113);
place = (307, 113);
type = Stem;
},
{
horizontal = 1;
place = (587, 113);
place = (587, 113);
type = Stem;
},
{
place = (68, 138);
place = (68, 138);
type = Stem;
},
{
horizontal = 1;
place = (817, 105);
place = (817, 105);
type = Stem;
},
{
place = (92, 112);
place = (92, 112);
type = Stem;
},
{
horizontal = 1;
place = (760, 104);
place = (760, 104);
type = Stem;
},
{
place = (400, 112);
place = (400, 112);
type = Stem;
}
);
layerId = "6A72B8B1-0803-4BB2-A3A1-70C2871A9914";
shapes = (
{
closed = 1;
nodes = (
(68,0,l),
(536,0,l),
(536,113,l),
(206,113,l),
(206,307,l),
(476,307,l),
(476,420,l),
(206,420,l),
(206,587,l),
(536,587,l),
(536,700,l),
(68,700,l)
);
},
{
closed = 1;
nodes = (
(204,760,l),
(204,791,o),
(213,817,o),
(242,817,cs),
(284,817,o),
(305,760,o),
(382,760,cs),
(467,760,o),
(512,828,o),
(512,912,c),
(400,922,l),
(400,890,o),
(390,864,o),
(362,864,cs),
(320,864,o),
(302,922,o),
(226,922,cs),
(141,922,o),
(92,853,o),
(92,770,c)
);
}
);
width = 580;
}
);
note = uni1EBC;
unicode = 7868;
},
{
glyphname = F;
kernLeft = B;
kernRight = F;
lastChange = "2024-02-25 16:05:16 +0000";
layers = (
{
hints = (
{
horizontal = 1;
place = (0, 21);
target = up;
type = BottomGhost;
},
{
horizontal = 1;
place = (307, 113);
place = (307, 113);
type = Stem;
},
{
horizontal = 1;
place = (587, 113);
place = (587, 113);
type = Stem;
},
{
place = (68, 138);
place = (68, 138);
type = Stem;
}
);
layerId = m01;
shapes = (
{
closed = 1;
nodes = (
(68,0,l),
(206,0,l),
(206,307,l),
(486,307,l),
(486,420,l),
(206,420,l),
(206,587,l),
(536,587,l),
(536,700,l),
(68,700,l)
);
}
);
width = 568;
},
{
hints = (
{
horizontal = 1;
place = (0, 21);
target = up;
type = BottomGhost;
},
{
horizontal = 1;
place = (307, 113);
place = (307, 113);
type = Stem;
},
{
horizontal = 1;
place = (587, 113);
place = (587, 113);
type = Stem;
},
{
place = (68, 138);
place = (68, 138);
type = Stem;
}
);
layerId = "6A72B8B1-0803-4BB2-A3A1-70C2871A9914";
shapes = (
{
closed = 1;
nodes = (
(68,0,l),
(206,0,l),
(206,307,l),
(486,307,l),
(486,420,l),
(206,420,l),
(206,587,l),
(536,587,l),
(536,700,l),
(68,700,l)
);
}
);
width = 568;
}
);
note = F;
unicode = 70;
},
{
glyphname = G;
kernLeft = C;
kernRight = G;
lastChange = "2024-02-25 16:05:16 +0000";
layers = (
{
hints = (
{
horizontal = 1;
place = (-16, 113);
place = (-16, 113);
type = Stem;
},
{
horizontal = 1;
place = (241, 113);
place = (241, 113);
type = Stem;
},
{
horizontal = 1;
place = (602, 113);
place = (602, 113);
type = Stem;
},
{
place = (44, 138);
place = (44, 138);
type = Stem;
},
{
place = (640, 119);
place = (640, 119);
type = Stem;
},
{
horizontal = 1;
place = (0, 21);
target = up;
type = BottomGhost;
},
{
place = (596, 163);
place = (596, 163);
type = Stem;
},
{
place = (596, 139);
place = (596, 139);
type = Stem;
}
);
layerId = m01;
shapes = (
{
closed = 1;
nodes = (
(512,-16,o),
(595,33,o),
(640,127,c),
(625,0,l),
(759,0,l),
(759,354,l),
(371,354,l),
(371,241,l),
(609,241,l),
(597,160,o),
(504,97,o),
(397,97,cs),
(264,97,o),
(182,194,o),
(182,350,cs),
(182,506,o),
(263,602,o),
(396,602,cs),
(510,602,o),
(590,531,o),
(596,425,c),
(735,435,l),
(730,593,o),
(583,715,o),
(397,715,cs),
(191,715,o),
(44,564,o),
(44,351,cs),
(44,138,o),
(192,-16,o),
(396,-16,cs)
);
}
);
width = 822;
},
{
hints = (
{
horizontal = 1;
place = (-16, 113);
place = (-16, 113);
type = Stem;
},
{
horizontal = 1;
place = (241, 113);
place = (241, 113);
type = Stem;
},
{
horizontal = 1;
place = (602, 113);
place = (602, 113);
type = Stem;
},
{
place = (44, 138);
place = (44, 138);
type = Stem;
},
{
place = (640, 119);
place = (640, 119);
type = Stem;
},
{
horizontal = 1;
place = (0, 21);
target = up;
type = BottomGhost;
},
{
place = (596, 163);
place = (596, 163);
type = Stem;
},
{
place = (596, 139);
place = (596, 139);
type = Stem;
}
);
layerId = "6A72B8B1-0803-4BB2-A3A1-70C2871A9914";
shapes = (
{
closed = 1;
nodes = (
(512,-16,o),
(595,33,o),
(640,127,c),
(625,0,l),
(759,0,l),
(759,354,l),
(371,354,l),
(371,241,l),
(609,241,l),
(597,160,o),
(504,97,o),
(397,97,cs),
(264,97,o),
(182,194,o),
(182,350,cs),
(182,506,o),
(263,602,o),
(396,602,cs),
(510,602,o),
(590,531,o),
(596,425,c),
(735,435,l),
(730,593,o),
(583,715,o),
(397,715,cs),
(191,715,o),
(44,564,o),
(44,351,cs),
(44,138,o),
(192,-16,o),
(396,-16,cs)
);
}
);
width = 822;
}
);
note = G;
unicode = 71;
},
{
glyphname = Gbreve;
kernLeft = C;
kernRight = G;
lastChange = "2024-02-25 16:05:16 +0000";
layers = (
{
hints = (
{
horizontal = 1;
place = (-16, 113);
place = (-16, 113);
type = Stem;
},
{
horizontal = 1;
place = (241, 113);
place = (241, 113);
type = Stem;
},
{
horizontal = 1;
place = (602, 113);
place = (602, 113);
type = Stem;
},
{
horizontal = 1;
place = (780, 95);
place = (780, 95);
type = Stem;
},
{
place = (44, 138);
place = (44, 138);
type = Stem;
},
{
place = (640, 119);
place = (640, 119);
type = Stem;
},
{
horizontal = 1;
place = (0, 21);
target = up;
type = BottomGhost;
},
{
place = (596, 163);
place = (596, 163);
type = Stem;
},
{
place = (596, 139);
place = (596, 139);
type = Stem;
},
{
horizontal = 1;
place = (780, 170);
place = (780, 170);
type = Stem;
},
{
place = (232, 95);
place = (232, 95);
type = Stem;
},
{
place = (477, 95);
place = (477, 95);
type = Stem;
}
);
layerId = m01;
shapes = (
{
closed = 1;
nodes = (
(512,-16,o),
(595,33,o),
(640,127,c),
(625,0,l),
(759,0,l),
(759,354,l),
(371,354,l),
(371,241,l),
(609,241,l),
(597,160,o),
(504,97,o),
(397,97,cs),
(264,97,o),
(182,194,o),
(182,350,cs),
(182,506,o),
(263,602,o),
(396,602,cs),
(510,602,o),
(590,531,o),
(596,425,c),
(735,435,l),
(730,593,o),
(583,715,o),
(397,715,cs),
(191,715,o),
(44,564,o),
(44,351,cs),
(44,138,o),
(192,-16,o),
(396,-16,cs)
);
},
{
closed = 1;
nodes = (
(232,950,l),
(232,850,o),
(307,780,o),
(402,780,cs),
(494,780,o),
(572,850,o),
(572,950,c),
(477,950,l),
(477,905,o),
(443,875,o),
(402,875,cs),
(360,875,o),
(327,905,o),
(327,950,c)
);
}
);
width = 822;
},
{
hints = (
{
horizontal = 1;
place = (-16, 113);
place = (-16, 113);
type = Stem;
},
{
horizontal = 1;
place = (241, 113);
place = (241, 113);
type = Stem;
},
{
horizontal = 1;
place = (602, 113);
place = (602, 113);
type = Stem;
},
{
horizontal = 1;
place = (780, 95);
place = (780, 95);
type = Stem;
},
{
place = (44, 138);
place = (44, 138);
type = Stem;
},
{
place = (640, 119);
place = (640, 119);
type = Stem;
},
{
horizontal = 1;
place = (0, 21);
target = up;
type = BottomGhost;
},
{
place = (596, 163);
place = (596, 163);
type = Stem;
},
{
place = (596, 139);
place = (596, 139);
type = Stem;
},
{
horizontal = 1;
place = (780, 170);
place = (780, 170);
type = Stem;
},
{
place = (232, 95);
place = (232, 95);
type = Stem;
},
{
place = (477, 95);
place = (477, 95);
type = Stem;
}
);
layerId = "6A72B8B1-0803-4BB2-A3A1-70C2871A9914";
shapes = (
{
closed = 1;
nodes = (
(512,-16,o),
(595,33,o),
(640,127,c),
(625,0,l),
(759,0,l),
(759,354,l),
(371,354,l),
(371,241,l),
(609,241,l),
(597,160,o),
(504,97,o),
(397,97,cs),
(264,97,o),
(182,194,o),
(182,350,cs),
(182,506,o),
(263,602,o),
(396,602,cs),
(510,602,o),
(590,531,o),
(596,425,c),
(735,435,l),
(730,593,o),
(583,715,o),
(397,715,cs),
(191,715,o),
(44,564,o),
(44,351,cs),
(44,138,o),
(192,-16,o),
(396,-16,cs)
);
},
{
closed = 1;
nodes = (
(232,950,l),
(232,850,o),
(307,780,o),
(402,780,cs),
(494,780,o),
(572,850,o),
(572,950,c),
(477,950,l),
(477,905,o),
(443,875,o),
(402,875,cs),
(360,875,o),
(327,905,o),
(327,950,c)
);
}
);
width = 822;
}
);
note = Gbreve;
unicode = 286;
},
{
glyphname = Gcircumflex;
kernLeft = C;
kernRight = G;
lastChange = "2024-02-25 16:05:16 +0000";
layers = (
{
hints = (
{
horizontal = 1;
place = (-16, 113);
place = (-16, 113);
type = Stem;
},
{
horizontal = 1;
place = (241, 113);
place = (241, 113);
type = Stem;
},
{
horizontal = 1;
place = (602, 113);
place = (602, 113);
type = Stem;
},
{
horizontal = 1;
place = (780, 140);
place = (780, 140);
type = Stem;
},
{
place = (44, 138);
place = (44, 138);
type = Stem;
},
{
place = (640, 119);
place = (640, 119);
type = Stem;
},
{
horizontal = 1;
place = (0, 21);
target = up;
type = BottomGhost;
},
{
place = (596, 163);
place = (596, 163);
type = Stem;
},
{
place = (596, 139);
place = (596, 139);
type = Stem;
},
{
horizontal = 1;
place = (880, 40);
place = (880, 40);
type = Stem;
}
);
layerId = m01;
shapes = (
{
closed = 1;
nodes = (
(512,-16,o),
(595,33,o),
(640,127,c),
(625,0,l),
(759,0,l),
(759,354,l),
(371,354,l),
(371,241,l),
(609,241,l),
(597,160,o),
(504,97,o),
(397,97,cs),
(264,97,o),
(182,194,o),
(182,350,cs),
(182,506,o),
(263,602,o),
(396,602,cs),
(510,602,o),
(590,531,o),
(596,425,c),
(735,435,l),
(730,593,o),
(583,715,o),
(397,715,cs),
(191,715,o),
(44,564,o),
(44,351,cs),
(44,138,o),
(192,-16,o),
(396,-16,cs)
);
},
{
closed = 1;
nodes = (
(218,780,l),
(342,780,l),
(402,880,l),
(462,780,l),
(586,780,l),
(504,920,l),
(300,920,l)
);
}
);
width = 822;
},
{
hints = (
{
horizontal = 1;
place = (-16, 113);
place = (-16, 113);
type = Stem;
},
{
horizontal = 1;
place = (241, 113);
place = (241, 113);
type = Stem;
},
{
horizontal = 1;
place = (602, 113);
place = (602, 113);
type = Stem;
},
{
horizontal = 1;
place = (780, 140);
place = (780, 140);
type = Stem;
},
{
place = (44, 138);
place = (44, 138);
type = Stem;
},
{
place = (640, 119);
place = (640, 119);
type = Stem;
},
{
horizontal = 1;
place = (0, 21);
target = up;
type = BottomGhost;
},
{
place = (596, 163);
place = (596, 163);
type = Stem;
},
{
place = (596, 139);
place = (596, 139);
type = Stem;
},
{
horizontal = 1;
place = (880, 40);
place = (880, 40);
type = Stem;
}
);
layerId = "6A72B8B1-0803-4BB2-A3A1-70C2871A9914";
shapes = (
{
closed = 1;
nodes = (
(512,-16,o),
(595,33,o),
(640,127,c),
(625,0,l),
(759,0,l),
(759,354,l),
(371,354,l),
(371,241,l),
(609,241,l),
(597,160,o),
(504,97,o),
(397,97,cs),
(264,97,o),
(182,194,o),
(182,350,cs),
(182,506,o),
(263,602,o),
(396,602,cs),
(510,602,o),
(590,531,o),
(596,425,c),
(735,435,l),
(730,593,o),
(583,715,o),
(397,715,cs),
(191,715,o),
(44,564,o),
(44,351,cs),
(44,138,o),
(192,-16,o),
(396,-16,cs)
);
},
{
closed = 1;
nodes = (
(218,780,l),
(342,780,l),
(402,880,l),
(462,780,l),
(586,780,l),
(504,920,l),
(300,920,l)
);
}
);
width = 822;
}
);
note = Gcircumflex;
unicode = 284;
},
{
glyphname = uni0122;
kernLeft = C;
kernRight = G;
lastChange = "2024-02-25 16:05:16 +0000";
layers = (
{
hints = (
{
horizontal = 1;
place = (-287, 73);
place = (-287, 73);
type = Stem;
},
{
horizontal = 1;
place = (-160, 100);
place = (-160, 100);
type = Stem;
},
{
horizontal = 1;
place = (-16, 113);
place = (-16, 113);
type = Stem;
},
{
horizontal = 1;
place = (241, 113);
place = (241, 113);
type = Stem;
},
{
horizontal = 1;
place = (602, 113);
place = (602, 113);
type = Stem;
},
{
place = (44, 138);
place = (44, 138);
type = Stem;
},
{
place = (331, 150);
place = (331, 150);
type = Stem;
},
{
place = (596, 163);
place = (596, 163);
type = Stem;
},
{
place = (640, 119);
place = (640, 119);
type = Stem;
},
{
horizontal = 1;
place = (0, 21);
target = up;
type = BottomGhost;
},
{
place = (596, 139);
place = (596, 139);
type = Stem;
},
{
place = (411, 70);
place = (411, 70);
type = Stem;
}
);
layerId = m01;
shapes = (
{
closed = 1;
nodes = (
(512,-16,o),
(595,33,o),
(640,127,c),
(625,0,l),
(759,0,l),
(759,354,l),
(371,354,l),
(371,241,l),
(609,241,l),
(597,160,o),
(504,97,o),
(397,97,cs),
(264,97,o),
(182,194,o),
(182,350,cs),
(182,506,o),
(263,602,o),
(396,602,cs),
(510,602,o),
(590,531,o),
(596,425,c),
(735,435,l),
(730,593,o),
(583,715,o),
(397,715,cs),
(191,715,o),
(44,564,o),
(44,351,cs),
(44,138,o),
(192,-16,o),
(396,-16,cs)
);
},
{
closed = 1;
nodes = (
(322,-287,l),
(428,-287,o),
(481,-245,o),
(481,-160,cs),
(481,-60,l),
(331,-60,l),
(331,-160,l),
(411,-160,l),
(411,-198,o),
(385,-214,o),
(322,-214,c)
);
}
);
width = 822;
},
{
hints = (
{
horizontal = 1;
place = (-287, 73);
place = (-287, 73);
type = Stem;
},
{
horizontal = 1;
place = (-160, 100);
place = (-160, 100);
type = Stem;
},
{
horizontal = 1;
place = (-16, 113);
place = (-16, 113);
type = Stem;
},
{
horizontal = 1;
place = (241, 113);
place = (241, 113);
type = Stem;
},
{
horizontal = 1;
place = (602, 113);
place = (602, 113);
type = Stem;
},
{
place = (44, 138);
place = (44, 138);
type = Stem;
},
{
place = (331, 150);
place = (331, 150);
type = Stem;
},
{
place = (596, 163);
place = (596, 163);
type = Stem;
},
{
place = (640, 119);
place = (640, 119);
type = Stem;
},
{
horizontal = 1;
place = (0, 21);
target = up;
type = BottomGhost;
},
{
place = (596, 139);
place = (596, 139);
type = Stem;
},
{
place = (411, 70);
place = (411, 70);
type = Stem;
}
);
layerId = "6A72B8B1-0803-4BB2-A3A1-70C2871A9914";
shapes = (
{
closed = 1;
nodes = (
(512,-16,o),
(595,33,o),
(640,127,c),
(625,0,l),
(759,0,l),
(759,354,l),
(371,354,l),
(371,241,l),
(609,241,l),
(597,160,o),
(504,97,o),
(397,97,cs),
(264,97,o),
(182,194,o),
(182,350,cs),
(182,506,o),
(263,602,o),
(396,602,cs),
(510,602,o),
(590,531,o),
(596,425,c),
(735,435,l),
(730,593,o),
(583,715,o),
(397,715,cs),
(191,715,o),
(44,564,o),
(44,351,cs),
(44,138,o),
(192,-16,o),
(396,-16,cs)
);
},
{
closed = 1;
nodes = (
(322,-287,l),
(428,-287,o),
(481,-245,o),
(481,-160,cs),
(481,-60,l),
(331,-60,l),
(331,-160,l),
(411,-160,l),
(411,-198,o),
(385,-214,o),
(322,-214,c)
);
}
);
width = 822;
}
);
note = uni0122;
unicode = 290;
},
{
glyphname = Gdotaccent;
kernLeft = C;
kernRight = G;
lastChange = "2024-02-25 16:05:16 +0000";
layers = (
{
hints = (
{
horizontal = 1;
place = (-16, 113);
place = (-16, 113);
type = Stem;
},
{
horizontal = 1;
place = (241, 113);
place = (241, 113);
type = Stem;
},
{
horizontal = 1;
place = (602, 113);
place = (602, 113);
type = Stem;
},
{
horizontal = 1;
place = (770, 130);
place = (770, 130);
type = Stem;
},
{
place = (44, 138);
place = (44, 138);
type = Stem;
},
{
place = (322, 160);
place = (322, 160);
type = Stem;
},
{
place = (596, 163);
place = (596, 163);
type = Stem;
},
{
place = (640, 119);
place = (640, 119);
type = Stem;
},
{
horizontal = 1;
place = (0, 21);
target = up;
type = BottomGhost;
},
{
place = (596, 139);
place = (596, 139);
type = Stem;
}
);
layerId = m01;
shapes = (
{
closed = 1;
nodes = (
(512,-16,o),
(595,33,o),
(640,127,c),
(625,0,l),
(759,0,l),
(759,354,l),
(371,354,l),
(371,241,l),
(609,241,l),
(597,160,o),
(504,97,o),
(397,97,cs),
(264,97,o),
(182,194,o),
(182,350,cs),
(182,506,o),
(263,602,o),
(396,602,cs),
(510,602,o),
(590,531,o),
(596,425,c),
(735,435,l),
(730,593,o),
(583,715,o),
(397,715,cs),
(191,715,o),
(44,564,o),
(44,351,cs),
(44,138,o),
(192,-16,o),
(396,-16,cs)
);
},
{
closed = 1;
nodes = (
(322,770,l),
(482,770,l),
(482,900,l),
(322,900,l)
);
}
);
width = 822;
},
{
hints = (
{
horizontal = 1;
place = (-16, 113);
place = (-16, 113);
type = Stem;
},
{
horizontal = 1;
place = (241, 113);
place = (241, 113);
type = Stem;
},
{
horizontal = 1;
place = (602, 113);
place = (602, 113);
type = Stem;
},
{
horizontal = 1;
place = (770, 130);
place = (770, 130);
type = Stem;
},
{
place = (44, 138);
place = (44, 138);
type = Stem;
},
{
place = (322, 160);
place = (322, 160);
type = Stem;
},
{
place = (596, 163);
place = (596, 163);
type = Stem;
},
{
place = (640, 119);
place = (640, 119);
type = Stem;
},
{
horizontal = 1;
place = (0, 21);
target = up;
type = BottomGhost;
},
{
place = (596, 139);
place = (596, 139);
type = Stem;
}
);
layerId = "6A72B8B1-0803-4BB2-A3A1-70C2871A9914";
shapes = (
{
closed = 1;
nodes = (
(512,-16,o),
(595,33,o),
(640,127,c),
(625,0,l),
(759,0,l),
(759,354,l),
(371,354,l),
(371,241,l),
(609,241,l),
(597,160,o),
(504,97,o),
(397,97,cs),
(264,97,o),
(182,194,o),
(182,350,cs),
(182,506,o),
(263,602,o),
(396,602,cs),
(510,602,o),
(590,531,o),
(596,425,c),
(735,435,l),
(730,593,o),
(583,715,o),
(397,715,cs),
(191,715,o),
(44,564,o),
(44,351,cs),
(44,138,o),
(192,-16,o),
(396,-16,cs)
);
},
{
closed = 1;
nodes = (
(322,770,l),
(482,770,l),
(482,900,l),
(322,900,l)
);
}
);
width = 822;
}
);
note = Gdotaccent;
unicode = 288;
},
{
glyphname = uni1E20;
kernLeft = C;
kernRight = G;
lastChange = "2024-02-25 16:05:16 +0000";
layers = (
{
hints = (
{
horizontal = 1;
place = (-16, 113);
place = (-16, 113);
type = Stem;
},
{
horizontal = 1;
place = (241, 113);
place = (241, 113);
type = Stem;
},
{
horizontal = 1;
place = (602, 113);
place = (602, 113);
type = Stem;
},
{
horizontal = 1;
place = (770, 103);
place = (770, 103);
type = Stem;
},
{
place = (44, 138);
place = (44, 138);
type = Stem;
},
{
place = (640, 119);
place = (640, 119);
type = Stem;
},
{
horizontal = 1;
place = (0, 21);
target = up;
type = BottomGhost;
},
{
place = (596, 163);
place = (596, 163);
type = Stem;
},
{
place = (596, 139);
place = (596, 139);
type = Stem;
}
);
layerId = m01;
shapes = (
{
closed = 1;
nodes = (
(512,-16,o),
(595,33,o),
(640,127,c),
(625,0,l),
(759,0,l),
(759,354,l),
(371,354,l),
(371,241,l),
(609,241,l),
(597,160,o),
(504,97,o),
(397,97,cs),
(264,97,o),
(182,194,o),
(182,350,cs),
(182,506,o),
(263,602,o),
(396,602,cs),
(510,602,o),
(590,531,o),
(596,425,c),
(735,435,l),
(730,593,o),
(583,715,o),
(397,715,cs),
(191,715,o),
(44,564,o),
(44,351,cs),
(44,138,o),
(192,-16,o),
(396,-16,cs)
);
},
{
closed = 1;
nodes = (
(226,770,l),
(578,770,l),
(578,873,l),
(226,873,l)
);
}
);
width = 822;
},
{
hints = (
{
horizontal = 1;
place = (-16, 113);
place = (-16, 113);
type = Stem;
},
{
horizontal = 1;
place = (241, 113);
place = (241, 113);
type = Stem;
},
{
horizontal = 1;
place = (602, 113);
place = (602, 113);
type = Stem;
},
{
horizontal = 1;
place = (770, 103);
place = (770, 103);
type = Stem;
},
{
place = (44, 138);
place = (44, 138);
type = Stem;
},
{
place = (640, 119);
place = (640, 119);
type = Stem;
},
{
horizontal = 1;
place = (0, 21);
target = up;
type = BottomGhost;
},
{
place = (596, 163);
place = (596, 163);
type = Stem;
},
{
place = (596, 139);
place = (596, 139);
type = Stem;
}
);
layerId = "6A72B8B1-0803-4BB2-A3A1-70C2871A9914";
shapes = (
{
closed = 1;
nodes = (
(512,-16,o),
(595,33,o),
(640,127,c),
(625,0,l),
(759,0,l),
(759,354,l),
(371,354,l),
(371,241,l),
(609,241,l),
(597,160,o),
(504,97,o),
(397,97,cs),
(264,97,o),
(182,194,o),
(182,350,cs),
(182,506,o),
(263,602,o),
(396,602,cs),
(510,602,o),
(590,531,o),
(596,425,c),
(735,435,l),
(730,593,o),
(583,715,o),
(397,715,cs),
(191,715,o),
(44,564,o),
(44,351,cs),
(44,138,o),
(192,-16,o),
(396,-16,cs)
);
},
{
closed = 1;
nodes = (
(226,770,l),
(578,770,l),
(578,873,l),
(226,873,l)
);
}
);
width = 822;
}
);
note = uni1E20;
unicode = 7712;
},
{
glyphname = H;
kernLeft = B;
kernRight = H;
lastChange = "2024-02-25 16:05:16 +0000";
layers = (
{
hints = (
{
horizontal = 1;
place = (0, 21);
target = up;
type = BottomGhost;
},
{
horizontal = 1;
place = (307, 113);
place = (307, 113);
type = Stem;
},
{
place = (68, 138);
place = (68, 138);
type = Stem;
},
{
place = (486, 138);
place = (486, 138);
type = Stem;
}
);
layerId = m01;
shapes = (
{
closed = 1;
nodes = (
(68,0,l),
(206,0,l),
(206,307,l),
(486,307,l),
(486,0,l),
(624,0,l),
(624,700,l),
(486,700,l),
(486,420,l),
(206,420,l),
(206,700,l),
(68,700,l)
);
}
);
width = 692;
},
{
hints = (
{
horizontal = 1;
place = (0, 21);
target = up;
type = BottomGhost;
},
{
horizontal = 1;
place = (307, 113);
place = (307, 113);
type = Stem;
},
{
place = (68, 138);
place = (68, 138);
type = Stem;
},
{
place = (486, 138);
place = (486, 138);
type = Stem;
}
);
layerId = "6A72B8B1-0803-4BB2-A3A1-70C2871A9914";
shapes = (
{
closed = 1;
nodes = (
(68,0,l),
(206,0,l),
(206,307,l),
(486,307,l),
(486,0,l),
(624,0,l),
(624,700,l),
(486,700,l),
(486,420,l),
(206,420,l),
(206,700,l),
(68,700,l)
);
}
);
width = 692;
}
);
note = H;
unicode = 72;
},
{
glyphname = Hbar;
kernLeft = B;
kernRight = H;
lastChange = "2024-02-25 16:05:16 +0000";
layers = (
{
hints = (
{
horizontal = 1;
place = (0, 21);
target = up;
type = BottomGhost;
},
{
horizontal = 1;
place = (307, 113);
place = (307, 113);
type = Stem;
},
{
horizontal = 1;
place = (520, 80);
place = (520, 80);
type = Stem;
},
{
place = (58, 138);
place = (58, 138);
type = Stem;
},
{
place = (476, 138);
place = (476, 138);
type = Stem;
}
);
layerId = m01;
shapes = (
{
closed = 1;
nodes = (
(3,520,l),
(58,520,l),
(58,0,l),
(196,0,l),
(196,307,l),
(476,307,l),
(476,0,l),
(614,0,l),
(614,520,l),
(669,520,l),
(669,600,l),
(614,600,l),
(614,700,l),
(476,700,l),
(476,600,l),
(196,600,l),
(196,700,l),
(58,700,l),
(58,600,l),
(3,600,l)
);
},
{
closed = 1;
nodes = (
(196,420,l),
(196,520,l),
(476,520,l),
(476,420,l)
);
}
);
width = 672;
},
{
hints = (
{
horizontal = 1;
place = (0, 21);
target = up;
type = BottomGhost;
},
{
horizontal = 1;
place = (307, 113);
place = (307, 113);
type = Stem;
},
{
horizontal = 1;
place = (520, 80);
place = (520, 80);
type = Stem;
},
{
place = (58, 138);
place = (58, 138);
type = Stem;
},
{
place = (476, 138);
place = (476, 138);
type = Stem;
}
);
layerId = "6A72B8B1-0803-4BB2-A3A1-70C2871A9914";
shapes = (
{
closed = 1;
nodes = (
(3,520,l),
(58,520,l),
(58,0,l),
(196,0,l),
(196,307,l),
(476,307,l),
(476,0,l),
(614,0,l),
(614,520,l),
(669,520,l),
(669,600,l),
(614,600,l),
(614,700,l),
(476,700,l),
(476,600,l),
(196,600,l),
(196,700,l),
(58,700,l),
(58,600,l),
(3,600,l)
);
},
{
closed = 1;
nodes = (
(196,420,l),
(196,520,l),
(476,520,l),
(476,420,l)
);
}
);
width = 672;
}
);
note = Hbar;
unicode = 294;
},
{
glyphname = Hcircumflex;
kernLeft = B;
kernRight = H;
lastChange = "2024-02-25 16:05:16 +0000";
layers = (
{
hints = (
{
horizontal = 1;
place = (0, 21);
target = up;
type = BottomGhost;
},
{
horizontal = 1;
place = (307, 113);
place = (307, 113);
type = Stem;
},
{
horizontal = 1;
place = (780, 140);
place = (780, 140);
type = Stem;
},
{
place = (68, 138);
place = (68, 138);
type = Stem;
},
{
place = (486, 138);
place = (486, 138);
type = Stem;
},
{
horizontal = 1;
place = (880, 40);
place = (880, 40);
type = Stem;
}
);
layerId = m01;
shapes = (
{
closed = 1;
nodes = (
(68,0,l),
(206,0,l),
(206,307,l),
(486,307,l),
(486,0,l),
(624,0,l),
(624,700,l),
(486,700,l),
(486,420,l),
(206,420,l),
(206,700,l),
(68,700,l)
);
},
{
closed = 1;
nodes = (
(162,780,l),
(286,780,l),
(346,880,l),
(406,780,l),
(530,780,l),
(448,920,l),
(244,920,l)
);
}
);
width = 692;
},
{
hints = (
{
horizontal = 1;
place = (0, 21);
target = up;
type = BottomGhost;
},
{
horizontal = 1;
place = (307, 113);
place = (307, 113);
type = Stem;
},
{
horizontal = 1;
place = (780, 140);
place = (780, 140);
type = Stem;
},
{
place = (68, 138);
place = (68, 138);
type = Stem;
},
{
place = (486, 138);
place = (486, 138);
type = Stem;
},
{
horizontal = 1;
place = (880, 40);
place = (880, 40);
type = Stem;
}
);
layerId = "6A72B8B1-0803-4BB2-A3A1-70C2871A9914";
shapes = (
{
closed = 1;
nodes = (
(68,0,l),
(206,0,l),
(206,307,l),
(486,307,l),
(486,0,l),
(624,0,l),
(624,700,l),
(486,700,l),
(486,420,l),
(206,420,l),
(206,700,l),
(68,700,l)
);
},
{
closed = 1;
nodes = (
(162,780,l),
(286,780,l),
(346,880,l),
(406,780,l),
(530,780,l),
(448,920,l),
(244,920,l)
);
}
);
width = 692;
}
);
note = Hcircumflex;
unicode = 292;
},
{
glyphname = I;
kernLeft = B;
kernRight = H;
lastChange = "2024-02-25 16:24:27 +0000";
layers = (
{
hints = (
{
horizontal = 1;
place = (0, 21);
target = up;
type = BottomGhost;
},
{
place = (68, 138);
place = (68, 138);
type = Stem;
}
);
layerId = m01;
shapes = (
{
closed = 1;
nodes = (
(809,1574,l),
(619,2000,l),
(493,1944,l),
(633,1633,l)
);
},
{
closed = 1;
nodes = (
(-561,-967,l),
(-400,-1288,l),
(-277,-1226,l),
(-381,-1018,l)
);
}
);
width = 274;
},
{
hints = (
{
horizontal = 1;
place = (0, 21);
target = up;
type = BottomGhost;
},
{
place = (68, 138);
place = (68, 138);
type = Stem;
}
);
layerId = "6A72B8B1-0803-4BB2-A3A1-70C2871A9914";
shapes = (
{
closed = 1;
nodes = (
(206,233,l),
(206,700,l),
(68,700,l),
(68,359,l)
);
},
{
closed = 1;
nodes = (
(68,359,l),
(68,0,l),
(206,0,l),
(206,233,l)
);
}
);
width = 274;
}
);
note = I;
unicode = 73;
},
{
glyphname = IJ;
kernLeft = B;
kernRight = IJ;
lastChange = "2024-02-25 16:05:16 +0000";
layers = (
{
hints = (
{
horizontal = 1;
place = (0, 21);
target = up;
type = BottomGhost;
},
{
place = (68, 138);
place = (68, 138);
type = Stem;
},
{
place = (320, 138);
place = (320, 138);
type = Stem;
},
{
place = (677, 138);
place = (677, 138);
type = Stem;
},
{
horizontal = 1;
place = (-16, 113);
place = (-16, 113);
type = Stem;
}
);
layerId = m01;
shapes = (
{
closed = 1;
nodes = (
(68,0,l),
(206,0,l),
(206,700,l),
(68,700,l)
);
},
{
closed = 1;
nodes = (
(320,232,ls),
(320,87,o),
(423,-16,o),
(568,-16,cs),
(713,-16,o),
(815,86,o),
(815,232,cs),
(815,700,l),
(677,700,l),
(677,232,ls),
(677,151,o),
(633,97,o),
(568,97,cs),
(503,97,o),
(458,152,o),
(458,232,cs),
(458,270,l),
(320,270,l)
);
}
);
width = 879;
},
{
hints = (
{
horizontal = 1;
place = (0, 21);
target = up;
type = BottomGhost;
},
{
place = (68, 138);
place = (68, 138);
type = Stem;
},
{
place = (320, 138);
place = (320, 138);
type = Stem;
},
{
place = (677, 138);
place = (677, 138);
type = Stem;
},
{
horizontal = 1;
place = (-16, 113);
place = (-16, 113);
type = Stem;
}
);
layerId = "6A72B8B1-0803-4BB2-A3A1-70C2871A9914";
shapes = (
{
closed = 1;
nodes = (
(68,0,l),
(206,0,l),
(206,700,l),
(68,700,l)
);
},
{
closed = 1;
nodes = (
(320,232,ls),
(320,87,o),
(423,-16,o),
(568,-16,cs),
(713,-16,o),
(815,86,o),
(815,232,cs),
(815,700,l),
(677,700,l),
(677,232,ls),
(677,151,o),
(633,97,o),
(568,97,cs),
(503,97,o),
(458,152,o),
(458,232,cs),
(458,270,l),
(320,270,l)
);
}
);
width = 879;
}
);
note = IJ;
unicode = 306;
},
{
glyphname = Iacute;
kernLeft = B;
kernRight = H;
lastChange = "2024-02-25 16:05:16 +0000";
layers = (
{
hints = (
{
horizontal = 1;
place = (0, 21);
target = up;
type = BottomGhost;
},
{
horizontal = 1;
place = (780, 140);
place = (780, 140);
type = Stem;
},
{
place = (68, 138);
place = (68, 138);
type = Stem;
}
);
layerId = m01;
shapes = (
{
closed = 1;
nodes = (
(68,0,l),
(206,0,l),
(206,700,l),
(68,700,l)
);
},
{
closed = 1;
nodes = (
(100,780,l),
(190,780,l),
(294,920,l),
(156,920,l)
);
}
);
width = 272;
},
{
hints = (
{
horizontal = 1;
place = (0, 21);
target = up;
type = BottomGhost;
},
{
horizontal = 1;
place = (780, 140);
place = (780, 140);
type = Stem;
},
{
place = (68, 138);
place = (68, 138);
type = Stem;
}
);
layerId = "6A72B8B1-0803-4BB2-A3A1-70C2871A9914";
shapes = (
{
closed = 1;
nodes = (
(68,0,l),
(206,0,l),
(206,700,l),
(68,700,l)
);
},
{
closed = 1;
nodes = (
(100,780,l),
(190,780,l),
(294,920,l),
(156,920,l)
);
}
);
width = 272;
}
);
note = Iacute;
unicode = 205;
},
{
glyphname = Ibreve;
kernLeft = B;
kernRight = H;
lastChange = "2024-02-25 16:05:16 +0000";
layers = (
{
hints = (
{
horizontal = 1;
place = (0, 21);
target = up;
type = BottomGhost;
},
{
horizontal = 1;
place = (780, 95);
place = (780, 95);
type = Stem;
},
{
place = (89, 138);
place = (89, 138);
type = Stem;
},
{
horizontal = 1;
place = (780, 170);
place = (780, 170);
type = Stem;
},
{
place = (-12, 95);
place = (-12, 95);
type = Stem;
},
{
place = (233, 95);
place = (233, 95);
type = Stem;
}
);
layerId = m01;
shapes = (
{
closed = 1;
nodes = (
(89,0,l),
(227,0,l),
(227,700,l),
(89,700,l)
);
},
{
closed = 1;
nodes = (
(-12,950,l),
(-12,850,o),
(63,780,o),
(158,780,cs),
(250,780,o),
(328,850,o),
(328,950,c),
(233,950,l),
(233,905,o),
(199,875,o),
(158,875,cs),
(116,875,o),
(83,905,o),
(83,950,c)
);
}
);
width = 316;
},
{
hints = (
{
horizontal = 1;
place = (0, 21);
target = up;
type = BottomGhost;
},
{
horizontal = 1;
place = (780, 95);
place = (780, 95);
type = Stem;
},
{
place = (89, 138);
place = (89, 138);
type = Stem;
},
{
horizontal = 1;
place = (780, 170);
place = (780, 170);
type = Stem;
},
{
place = (-12, 95);
place = (-12, 95);
type = Stem;
},
{
place = (233, 95);
place = (233, 95);
type = Stem;
}
);
layerId = "6A72B8B1-0803-4BB2-A3A1-70C2871A9914";
shapes = (
{
closed = 1;
nodes = (
(89,0,l),
(227,0,l),
(227,700,l),
(89,700,l)
);
},
{
closed = 1;
nodes = (
(-12,950,l),
(-12,850,o),
(63,780,o),
(158,780,cs),
(250,780,o),
(328,850,o),
(328,950,c),
(233,950,l),
(233,905,o),
(199,875,o),
(158,875,cs),
(116,875,o),
(83,905,o),
(83,950,c)
);
}
);
width = 316;
}
);
note = Ibreve;
unicode = 300;
},
{
glyphname = Icircumflex;
kernLeft = B;
kernRight = H;
lastChange = "2024-02-25 16:05:16 +0000";
layers = (
{
hints = (
{
horizontal = 1;
place = (0, 21);
target = up;
type = BottomGhost;
},
{
horizontal = 1;
place = (780, 140);
place = (780, 140);
type = Stem;
},
{
place = (93, 138);
place = (93, 138);
type = Stem;
},
{
horizontal = 1;
place = (880, 40);
place = (880, 40);
type = Stem;
}
);
layerId = m01;
shapes = (
{
closed = 1;
nodes = (
(93,0,l),
(231,0,l),
(231,700,l),
(93,700,l)
);
},
{
closed = 1;
nodes = (
(-22,780,l),
(102,780,l),
(162,880,l),
(222,780,l),
(346,780,l),
(264,920,l),
(60,920,l)
);
}
);
width = 324;
},
{
hints = (
{
horizontal = 1;
place = (0, 21);
target = up;
type = BottomGhost;
},
{
horizontal = 1;
place = (780, 140);
place = (780, 140);
type = Stem;
},
{
place = (93, 138);
place = (93, 138);
type = Stem;
},
{
horizontal = 1;
place = (880, 40);
place = (880, 40);
type = Stem;
}
);
layerId = "6A72B8B1-0803-4BB2-A3A1-70C2871A9914";
shapes = (
{
closed = 1;
nodes = (
(93,0,l),
(231,0,l),
(231,700,l),
(93,700,l)
);
},
{
closed = 1;
nodes = (
(-22,780,l),
(102,780,l),
(162,880,l),
(222,780,l),
(346,780,l),
(264,920,l),
(60,920,l)
);
}
);
width = 324;
}
);
note = Icircumflex;
unicode = 206;
},
{
glyphname = Idieresis;
kernLeft = B;
kernRight = H;
lastChange = "2024-02-25 16:05:16 +0000";
layers = (
{
hints = (
{
horizontal = 1;
place = (0, 21);
target = up;
type = BottomGhost;
},
{
horizontal = 1;
place = (770, 120);
place = (770, 120);
type = Stem;
},
{
place = (74, 138);
place = (74, 138);
type = Stem;
},
{
place = (-17, 130);
place = (-17, 130);
type = Stem;
},
{
place = (74, 39);
place = (74, 39);
type = Stem;
},
{
place = (173, 39);
place = (173, 39);
type = Stem;
},
{
place = (173, 130);
place = (173, 130);
type = Stem;
}
);
layerId = m01;
shapes = (
{
closed = 1;
nodes = (
(74,0,l),
(212,0,l),
(212,700,l),
(74,700,l)
);
},
{
closed = 1;
nodes = (
(-17,770,l),
(113,770,l),
(113,890,l),
(-17,890,l)
);
},
{
closed = 1;
nodes = (
(173,770,l),
(303,770,l),
(303,890,l),
(173,890,l)
);
}
);
width = 286;
},
{
hints = (
{
horizontal = 1;
place = (0, 21);
target = up;
type = BottomGhost;
},
{
horizontal = 1;
place = (770, 120);
place = (770, 120);
type = Stem;
},
{
place = (74, 138);
place = (74, 138);
type = Stem;
},
{
place = (-17, 130);
place = (-17, 130);
type = Stem;
},
{
place = (74, 39);
place = (74, 39);
type = Stem;
},
{
place = (173, 39);
place = (173, 39);
type = Stem;
},
{
place = (173, 130);
place = (173, 130);
type = Stem;
}
);
layerId = "6A72B8B1-0803-4BB2-A3A1-70C2871A9914";
shapes = (
{
closed = 1;
nodes = (
(74,0,l),
(212,0,l),
(212,700,l),
(74,700,l)
);
},
{
closed = 1;
nodes = (
(-17,770,l),
(113,770,l),
(113,890,l),
(-17,890,l)
);
},
{
closed = 1;
nodes = (
(173,770,l),
(303,770,l),
(303,890,l),
(173,890,l)
);
}
);
width = 286;
}
);
note = Idieresis;
unicode = 207;
},
{
glyphname = Idotaccent;
kernLeft = B;
kernRight = H;
lastChange = "2024-02-25 16:05:16 +0000";
layers = (
{
hints = (
{
horizontal = 1;
place = (0, 21);
target = up;
type = BottomGhost;
},
{
horizontal = 1;
place = (770, 130);
place = (770, 130);
type = Stem;
},
{
place = (79, 138);
place = (79, 138);
type = Stem;
},
{
place = (68, 149);
place = (68, 149);
type = Stem;
},
{
place = (79, 149);
place = (79, 149);
type = Stem;
}
);
layerId = m01;
shapes = (
{
closed = 1;
nodes = (
(79,0,l),
(217,0,l),
(217,700,l),
(79,700,l)
);
},
{
closed = 1;
nodes = (
(68,770,l),
(228,770,l),
(228,900,l),
(68,900,l)
);
}
);
width = 296;
},
{
hints = (
{
horizontal = 1;
place = (0, 21);
target = up;
type = BottomGhost;
},
{
horizontal = 1;
place = (770, 130);
place = (770, 130);
type = Stem;
},
{
place = (79, 138);
place = (79, 138);
type = Stem;
},
{
place = (68, 149);
place = (68, 149);
type = Stem;
},
{
place = (79, 149);
place = (79, 149);
type = Stem;
}
);
layerId = "6A72B8B1-0803-4BB2-A3A1-70C2871A9914";
shapes = (
{
closed = 1;
nodes = (
(79,0,l),
(217,0,l),
(217,700,l),
(79,700,l)
);
},
{
closed = 1;
nodes = (
(68,770,l),
(228,770,l),
(228,900,l),
(68,900,l)
);
}
);
width = 296;
}
);
note = Idotaccent;
unicode = 304;
},
{
glyphname = Igrave;
kernLeft = B;
kernRight = H;
lastChange = "2024-02-25 16:05:16 +0000";
layers = (
{
hints = (
{
horizontal = 1;
place = (0, 21);
target = up;
type = BottomGhost;
},
{
horizontal = 1;
place = (780, 140);
place = (780, 140);
type = Stem;
},
{
place = (66, 138);
place = (66, 138);
type = Stem;
}
);
layerId = m01;
shapes = (
{
closed = 1;
nodes = (
(66,0,l),
(204,0,l),
(204,700,l),
(66,700,l)
);
},
{
closed = 1;
nodes = (
(-22,920,l),
(82,780,l),
(172,780,l),
(116,920,l)
);
}
);
width = 272;
},
{
hints = (
{
horizontal = 1;
place = (0, 21);
target = up;
type = BottomGhost;
},
{
horizontal = 1;
place = (780, 140);
place = (780, 140);
type = Stem;
},
{
place = (66, 138);
place = (66, 138);
type = Stem;
}
);
layerId = "6A72B8B1-0803-4BB2-A3A1-70C2871A9914";
shapes = (
{
closed = 1;
nodes = (
(66,0,l),
(204,0,l),
(204,700,l),
(66,700,l)
);
},
{
closed = 1;
nodes = (
(-22,920,l),
(82,780,l),
(172,780,l),
(116,920,l)
);
}
);
width = 272;
}
);
note = Igrave;
unicode = 204;
},
{
glyphname = Imacron;
kernLeft = B;
kernRight = H;
lastChange = "2024-02-25 16:05:16 +0000";
layers = (
{
hints = (
{
horizontal = 1;
place = (0, 21);
target = up;
type = BottomGhost;
},
{
horizontal = 1;
place = (770, 103);
place = (770, 103);
type = Stem;
},
{
place = (75, 138);
place = (75, 138);
type = Stem;
}
);
layerId = m01;
shapes = (
{
closed = 1;
nodes = (
(75,0,l),
(213,0,l),
(213,700,l),
(75,700,l)
);
},
{
closed = 1;
nodes = (
(-32,770,l),
(320,770,l),
(320,873,l),
(-32,873,l)
);
}
);
width = 288;
},
{
hints = (
{
horizontal = 1;
place = (0, 21);
target = up;
type = BottomGhost;
},
{
horizontal = 1;
place = (770, 103);
place = (770, 103);
type = Stem;
},
{
place = (75, 138);
place = (75, 138);
type = Stem;
}
);
layerId = "6A72B8B1-0803-4BB2-A3A1-70C2871A9914";
shapes = (
{
closed = 1;
nodes = (
(75,0,l),
(213,0,l),
(213,700,l),
(75,700,l)
);
},
{
closed = 1;
nodes = (
(-32,770,l),
(320,770,l),
(320,873,l),
(-32,873,l)
);
}
);
width = 288;
}
);
note = Imacron;
unicode = 298;
},
{
glyphname = Iogonek;
kernLeft = B;
kernRight = H;
lastChange = "2024-02-25 16:05:16 +0000";
layers = (
{
hints = (
{
horizontal = 1;
place = (-178, 85);
place = (-178, 85);
type = Stem;
},
{
horizontal = 1;
place = (0, 21);
target = up;
type = BottomGhost;
},
{
place = (59, 138);
place = (59, 138);
type = Stem;
},
{
place = (168, 77);
place = (168, 77);
type = Stem;
},
{
place = (59, 54);
place = (59, 54);
type = Stem;
},
{
place = (168, 29);
place = (168, 29);
type = Stem;
}
);
layerId = m01;
shapes = (
{
closed = 1;
nodes = (
(59,0,l),
(112,0,l),
(61,-17,o),
(28,-55,o),
(28,-98,cs),
(28,-146,o),
(68,-178,o),
(127,-178,cs),
(196,-178,o),
(245,-134,o),
(245,-73,c),
(168,-63,l),
(168,-81,o),
(155,-93,o),
(137,-93,cs),
(122,-93,o),
(113,-84,o),
(113,-69,cs),
(113,-42,o),
(140,-20,o),
(197,0,c),
(197,700,l),
(59,700,l)
);
}
);
width = 273;
},
{
hints = (
{
horizontal = 1;
place = (-178, 85);
place = (-178, 85);
type = Stem;
},
{
horizontal = 1;
place = (0, 21);
target = up;
type = BottomGhost;
},
{
place = (59, 138);
place = (59, 138);
type = Stem;
},
{
place = (168, 77);
place = (168, 77);
type = Stem;
},
{
place = (59, 54);
place = (59, 54);
type = Stem;
},
{
place = (168, 29);
place = (168, 29);
type = Stem;
}
);
layerId = "6A72B8B1-0803-4BB2-A3A1-70C2871A9914";
shapes = (
{
closed = 1;
nodes = (
(59,0,l),
(112,0,l),
(61,-17,o),
(28,-55,o),
(28,-98,cs),
(28,-146,o),
(68,-178,o),
(127,-178,cs),
(196,-178,o),
(245,-134,o),
(245,-73,c),
(168,-63,l),
(168,-81,o),
(155,-93,o),
(137,-93,cs),
(122,-93,o),
(113,-84,o),
(113,-69,cs),
(113,-42,o),
(140,-20,o),
(197,0,c),
(197,700,l),
(59,700,l)
);
}
);
width = 273;
}
);
note = Iogonek;
unicode = 302;
},
{
glyphname = Itilde;
kernLeft = B;
kernRight = H;
lastChange = "2024-02-25 16:05:16 +0000";
layers = (
{
hints = (
{
horizontal = 1;
place = (0, 21);
target = up;
type = BottomGhost;
},
{
horizontal = 1;
place = (837, 105);
place = (837, 105);
type = Stem;
},
{
place = (89, 138);
place = (89, 138);
type = Stem;
},
{
place = (-52, 112);
place = (-52, 112);
type = Stem;
},
{
horizontal = 1;
place = (780, 104);
place = (780, 104);
type = Stem;
},
{
place = (256, 112);
place = (256, 112);
type = Stem;
}
);
layerId = m01;
shapes = (
{
closed = 1;
nodes = (
(89,0,l),
(227,0,l),
(227,700,l),
(89,700,l)
);
},
{
closed = 1;
nodes = (
(60,780,l),
(60,811,o),
(69,837,o),
(98,837,cs),
(140,837,o),
(161,780,o),
(238,780,cs),
(323,780,o),
(368,848,o),
(368,932,c),
(256,942,l),
(256,910,o),
(246,884,o),
(218,884,cs),
(176,884,o),
(158,942,o),
(82,942,cs),
(-3,942,o),
(-52,873,o),
(-52,790,c)
);
}
);
width = 316;
},
{
hints = (
{
horizontal = 1;
place = (0, 21);
target = up;
type = BottomGhost;
},
{
horizontal = 1;
place = (837, 105);
place = (837, 105);
type = Stem;
},
{
place = (89, 138);
place = (89, 138);
type = Stem;
},
{
place = (-52, 112);
place = (-52, 112);
type = Stem;
},
{
horizontal = 1;
place = (780, 104);
place = (780, 104);
type = Stem;
},
{
place = (256, 112);
place = (256, 112);
type = Stem;
}
);
layerId = "6A72B8B1-0803-4BB2-A3A1-70C2871A9914";
shapes = (
{
closed = 1;
nodes = (
(89,0,l),
(227,0,l),
(227,700,l),
(89,700,l)
);
},
{
closed = 1;
nodes = (
(60,780,l),
(60,811,o),
(69,837,o),
(98,837,cs),
(140,837,o),
(161,780,o),
(238,780,cs),
(323,780,o),
(368,848,o),
(368,932,c),
(256,942,l),
(256,910,o),
(246,884,o),
(218,884,cs),
(176,884,o),
(158,942,o),
(82,942,cs),
(-3,942,o),
(-52,873,o),
(-52,790,c)
);
}
);
width = 316;
}
);
note = Itilde;
unicode = 296;
},
{
glyphname = J;
kernLeft = J;
kernRight = IJ;
lastChange = "2024-02-25 16:05:16 +0000";
layers = (
{
hints = (
{
horizontal = 1;
place = (-16, 113);
place = (-16, 113);
type = Stem;
},
{
place = (32, 138);
place = (32, 138);
type = Stem;
},
{
place = (389, 138);
place = (389, 138);
type = Stem;
}
);
layerId = m01;
shapes = (
{
closed = 1;
nodes = (
(425,-16,o),
(527,86,o),
(527,232,cs),
(527,700,l),
(389,700,l),
(389,232,ls),
(389,151,o),
(345,97,o),
(280,97,cs),
(215,97,o),
(170,152,o),
(170,232,cs),
(170,270,l),
(32,270,l),
(32,232,ls),
(32,87,o),
(135,-16,o),
(280,-16,cs)
);
}
);
width = 591;
},
{
hints = (
{
horizontal = 1;
place = (-16, 113);
place = (-16, 113);
type = Stem;
},
{
place = (32, 138);
place = (32, 138);
type = Stem;
},
{
place = (389, 138);
place = (389, 138);
type = Stem;
}
);
layerId = "6A72B8B1-0803-4BB2-A3A1-70C2871A9914";
shapes = (
{
closed = 1;
nodes = (
(425,-16,o),
(527,86,o),
(527,232,cs),
(527,700,l),
(389,700,l),
(389,232,ls),
(389,151,o),
(345,97,o),
(280,97,cs),
(215,97,o),
(170,152,o),
(170,232,cs),
(170,270,l),
(32,270,l),
(32,232,ls),
(32,87,o),
(135,-16,o),
(280,-16,cs)
);
}
);
width = 591;
}
);
note = J;
unicode = 74;
},
{
glyphname = uni004A0301;
kernLeft = J;
kernRight = IJ;
lastChange = "2024-02-25 16:05:16 +0000";
layers = (
{
hints = (
{
horizontal = 1;
place = (-16, 113);
place = (-16, 113);
type = Stem;
},
{
horizontal = 1;
place = (780, 140);
place = (780, 140);
type = Stem;
},
{
place = (32, 138);
place = (32, 138);
type = Stem;
},
{
place = (389, 138);
place = (389, 138);
type = Stem;
}
);
layerId = m01;
shapes = (
{
closed = 1;
nodes = (
(425,-16,o),
(527,86,o),
(527,232,cs),
(527,700,l),
(389,700,l),
(389,232,ls),
(389,151,o),
(345,97,o),
(280,97,cs),
(215,97,o),
(170,152,o),
(170,232,cs),
(170,270,l),
(32,270,l),
(32,232,ls),
(32,87,o),
(135,-16,o),
(280,-16,cs)
);
},
{
closed = 1;
nodes = (
(421,780,l),
(511,780,l),
(615,920,l),
(477,920,l)
);
}
);
width = 589;
},
{
hints = (
{
horizontal = 1;
place = (-16, 113);
place = (-16, 113);
type = Stem;
},
{
horizontal = 1;
place = (780, 140);
place = (780, 140);
type = Stem;
},
{
place = (32, 138);
place = (32, 138);
type = Stem;
},
{
place = (389, 138);
place = (389, 138);
type = Stem;
}
);
layerId = "6A72B8B1-0803-4BB2-A3A1-70C2871A9914";
shapes = (
{
closed = 1;
nodes = (
(425,-16,o),
(527,86,o),
(527,232,cs),
(527,700,l),
(389,700,l),
(389,232,ls),
(389,151,o),
(345,97,o),
(280,97,cs),
(215,97,o),
(170,152,o),
(170,232,cs),
(170,270,l),
(32,270,l),
(32,232,ls),
(32,87,o),
(135,-16,o),
(280,-16,cs)
);
},
{
closed = 1;
nodes = (
(421,780,l),
(511,780,l),
(615,920,l),
(477,920,l)
);
}
);
width = 589;
}
);
note = uni004A0301;
},
{
glyphname = Jcircumflex;
kernLeft = J;
kernRight = IJ;
lastChange = "2024-02-25 16:05:16 +0000";
layers = (
{
hints = (
{
horizontal = 1;
place = (-16, 113);
place = (-16, 113);
type = Stem;
},
{
horizontal = 1;
place = (780, 140);
place = (780, 140);
type = Stem;
},
{
place = (32, 138);
place = (32, 138);
type = Stem;
},
{
place = (389, 138);
place = (389, 138);
type = Stem;
},
{
horizontal = 1;
place = (880, 40);
place = (880, 40);
type = Stem;
}
);
layerId = m01;
shapes = (
{
closed = 1;
nodes = (
(425,-16,o),
(527,86,o),
(527,232,cs),
(527,700,l),
(389,700,l),
(389,232,ls),
(389,151,o),
(345,97,o),
(280,97,cs),
(215,97,o),
(170,152,o),
(170,232,cs),
(170,270,l),
(32,270,l),
(32,232,ls),
(32,87,o),
(135,-16,o),
(280,-16,cs)
);
},
{
closed = 1;
nodes = (
(274,780,l),
(398,780,l),
(458,880,l),
(518,780,l),
(642,780,l),
(560,920,l),
(356,920,l)
);
}
);
width = 616;
},
{
hints = (
{
horizontal = 1;
place = (-16, 113);
place = (-16, 113);
type = Stem;
},
{
horizontal = 1;
place = (780, 140);
place = (780, 140);
type = Stem;
},
{
place = (32, 138);
place = (32, 138);
type = Stem;
},
{
place = (389, 138);
place = (389, 138);
type = Stem;
},
{
horizontal = 1;
place = (880, 40);
place = (880, 40);
type = Stem;
}
);
layerId = "6A72B8B1-0803-4BB2-A3A1-70C2871A9914";
shapes = (
{
closed = 1;
nodes = (
(425,-16,o),
(527,86,o),
(527,232,cs),
(527,700,l),
(389,700,l),
(389,232,ls),
(389,151,o),
(345,97,o),
(280,97,cs),
(215,97,o),
(170,152,o),
(170,232,cs),
(170,270,l),
(32,270,l),
(32,232,ls),
(32,87,o),
(135,-16,o),
(280,-16,cs)
);
},
{
closed = 1;
nodes = (
(274,780,l),
(398,780,l),
(458,880,l),
(518,780,l),
(642,780,l),
(560,920,l),
(356,920,l)
);
}
);
width = 616;
}
);
note = Jcircumflex;
unicode = 308;
},
{
glyphname = K;
kernLeft = B;
kernRight = K;
lastChange = "2024-02-25 16:05:16 +0000";
layers = (
{
hints = (
{
horizontal = 1;
place = (0, 21);
target = up;
type = BottomGhost;
},
{
place = (68, 138);
place = (68, 138);
type = Stem;
}
);
layerId = m01;
shapes = (
{
closed = 1;
nodes = (
(68,0,l),
(206,0,l),
(206,238,l),
(274,314,l),
(490,0,l),
(645,0,l),
(361,411,l),
(621,700,l),
(463,700,l),
(206,418,l),
(206,700,l),
(68,700,l)
);
}
);
width = 661;
},
{
hints = (
{
horizontal = 1;
place = (0, 21);
target = up;
type = BottomGhost;
},
{
place = (68, 138);
place = (68, 138);
type = Stem;
}
);
layerId = "6A72B8B1-0803-4BB2-A3A1-70C2871A9914";
shapes = (
{
closed = 1;
nodes = (
(68,0,l),
(206,0,l),
(206,238,l),
(274,314,l),
(490,0,l),
(645,0,l),
(361,411,l),
(621,700,l),
(463,700,l),
(206,418,l),
(206,700,l),
(68,700,l)
);
}
);
width = 661;
}
);
note = K;
unicode = 75;
},
{
glyphname = uni0136;
kernLeft = B;
kernRight = K;
lastChange = "2024-02-25 16:05:16 +0000";
layers = (
{
hints = (
{
horizontal = 1;
place = (-287, 73);
place = (-287, 73);
type = Stem;
},
{
horizontal = 1;
place = (-160, 100);
place = (-160, 100);
type = Stem;
},
{
horizontal = 1;
place = (0, 21);
target = up;
type = BottomGhost;
},
{
place = (68, 138);
place = (68, 138);
type = Stem;
},
{
place = (286, 150);
place = (286, 150);
type = Stem;
},
{
place = (366, 70);
place = (366, 70);
type = Stem;
}
);
layerId = m01;
shapes = (
{
closed = 1;
nodes = (
(68,0,l),
(206,0,l),
(206,238,l),
(274,314,l),
(490,0,l),
(645,0,l),
(361,411,l),
(621,700,l),
(463,700,l),
(206,418,l),
(206,700,l),
(68,700,l)
);
},
{
closed = 1;
nodes = (
(277,-287,l),
(383,-287,o),
(436,-245,o),
(436,-160,cs),
(436,-60,l),
(286,-60,l),
(286,-160,l),
(366,-160,l),
(366,-198,o),
(340,-214,o),
(277,-214,c)
);
}
);
width = 661;
},
{
hints = (
{
horizontal = 1;
place = (-287, 73);
place = (-287, 73);
type = Stem;
},
{
horizontal = 1;
place = (-160, 100);
place = (-160, 100);
type = Stem;
},
{
horizontal = 1;
place = (0, 21);
target = up;
type = BottomGhost;
},
{
place = (68, 138);
place = (68, 138);
type = Stem;
},
{
place = (286, 150);
place = (286, 150);
type = Stem;
},
{
place = (366, 70);
place = (366, 70);
type = Stem;
}
);
layerId = "6A72B8B1-0803-4BB2-A3A1-70C2871A9914";
shapes = (
{
closed = 1;
nodes = (
(68,0,l),
(206,0,l),
(206,238,l),
(274,314,l),
(490,0,l),
(645,0,l),
(361,411,l),
(621,700,l),
(463,700,l),
(206,418,l),
(206,700,l),
(68,700,l)
);
},
{
closed = 1;
nodes = (
(277,-287,l),
(383,-287,o),
(436,-245,o),
(436,-160,cs),
(436,-60,l),
(286,-60,l),
(286,-160,l),
(366,-160,l),
(366,-198,o),
(340,-214,o),
(277,-214,c)
);
}
);
width = 661;
}
);
note = uni0136;
unicode = 310;
},
{
glyphname = L;
kernLeft = B;
kernRight = L;
lastChange = "2024-02-25 16:05:16 +0000";
layers = (
{
hints = (
{
horizontal = 1;
place = (0, 113);
place = (0, 113);
type = Stem;
},
{
place = (68, 138);
place = (68, 138);
type = Stem;
}
);
layerId = m01;
shapes = (
{
closed = 1;
nodes = (
(68,0,l),
(531,0,l),
(531,113,l),
(206,113,l),
(206,700,l),
(68,700,l)
);
}
);
width = 547;
},
{
hints = (
{
horizontal = 1;
place = (0, 113);
place = (0, 113);
type = Stem;
},
{
place = (68, 138);
place = (68, 138);
type = Stem;
}
);
layerId = "6A72B8B1-0803-4BB2-A3A1-70C2871A9914";
shapes = (
{
closed = 1;
nodes = (
(68,0,l),
(531,0,l),
(531,113,l),
(206,113,l),
(206,700,l),
(68,700,l)
);
}
);
width = 547;
}
);
note = L;
unicode = 76;
},
{
glyphname = Lacute;
kernLeft = B;
kernRight = L;
lastChange = "2024-02-25 16:05:16 +0000";
layers = (
{
hints = (
{
horizontal = 1;
place = (0, 113);
place = (0, 113);
type = Stem;
},
{
horizontal = 1;
place = (780, 140);
place = (780, 140);
type = Stem;
},
{
place = (68, 138);
place = (68, 138);
type = Stem;
}
);
layerId = m01;
shapes = (
{
closed = 1;
nodes = (
(68,0,l),
(531,0,l),
(531,113,l),
(206,113,l),
(206,700,l),
(68,700,l)
);
},
{
closed = 1;
nodes = (
(100,780,l),
(190,780,l),
(294,920,l),
(156,920,l)
);
}
);
width = 547;
},
{
hints = (
{
horizontal = 1;
place = (0, 113);
place = (0, 113);
type = Stem;
},
{
horizontal = 1;
place = (780, 140);
place = (780, 140);
type = Stem;
},
{
place = (68, 138);
place = (68, 138);
type = Stem;
}
);
layerId = "6A72B8B1-0803-4BB2-A3A1-70C2871A9914";
shapes = (
{
closed = 1;
nodes = (
(68,0,l),
(531,0,l),
(531,113,l),
(206,113,l),
(206,700,l),
(68,700,l)
);
},
{
closed = 1;
nodes = (
(100,780,l),
(190,780,l),
(294,920,l),
(156,920,l)
);
}
);
width = 547;
}
);
note = Lacute;
unicode = 313;
},
{
glyphname = Lcaron;
kernLeft = B;
kernRight = L;
lastChange = "2024-02-25 16:05:16 +0000";
layers = (
{
hints = (
{
horizontal = 1;
place = (0, 113);
place = (0, 113);
type = Stem;
},
{
horizontal = 1;
place = (482, 73);
place = (482, 73);
type = Stem;
},
{
horizontal = 1;
place = (609, 100);
place = (609, 100);
type = Stem;
},
{
place = (68, 138);
place = (68, 138);
type = Stem;
},
{
place = (279, 150);
place = (279, 150);
type = Stem;
},
{
horizontal = 1;
place = (609, 91);
place = (609, 91);
type = Stem;
},
{
place = (359, 70);
place = (359, 70);
type = Stem;
}
);
layerId = m01;
shapes = (
{
closed = 1;
nodes = (
(68,0,l),
(531,0,l),
(531,113,l),
(206,113,l),
(206,700,l),
(68,700,l)
);
},
{
closed = 1;
nodes = (
(270,482,l),
(376,482,o),
(429,524,o),
(429,609,cs),
(429,709,l),
(279,709,l),
(279,609,l),
(359,609,l),
(359,571,o),
(333,555,o),
(270,555,c)
);
}
);
width = 547;
},
{
hints = (
{
horizontal = 1;
place = (0, 113);
place = (0, 113);
type = Stem;
},
{
horizontal = 1;
place = (482, 73);
place = (482, 73);
type = Stem;
},
{
horizontal = 1;
place = (609, 100);
place = (609, 100);
type = Stem;
},
{
place = (68, 138);
place = (68, 138);
type = Stem;
},
{
place = (279, 150);
place = (279, 150);
type = Stem;
},
{
horizontal = 1;
place = (609, 91);
place = (609, 91);
type = Stem;
},
{
place = (359, 70);
place = (359, 70);
type = Stem;
}
);
layerId = "6A72B8B1-0803-4BB2-A3A1-70C2871A9914";
shapes = (
{
closed = 1;
nodes = (
(68,0,l),
(531,0,l),
(531,113,l),
(206,113,l),
(206,700,l),
(68,700,l)
);
},
{
closed = 1;
nodes = (
(270,482,l),
(376,482,o),
(429,524,o),
(429,609,cs),
(429,709,l),
(279,709,l),
(279,609,l),
(359,609,l),
(359,571,o),
(333,555,o),
(270,555,c)
);
}
);
width = 547;
}
);
note = Lcaron;
unicode = 317;
},
{
glyphname = uni013B;
kernLeft = B;
kernRight = L;
lastChange = "2024-02-25 16:05:16 +0000";
layers = (
{
hints = (
{
horizontal = 1;
place = (-287, 73);
place = (-287, 73);
type = Stem;
},
{
horizontal = 1;
place = (-160, 100);
place = (-160, 100);
type = Stem;
},
{
horizontal = 1;
place = (0, 113);
place = (0, 113);
type = Stem;
},
{
place = (68, 138);
place = (68, 138);
type = Stem;
},
{
place = (309, 70);
place = (309, 70);
type = Stem;
},
{
place = (229, 150);
place = (229, 150);
type = Stem;
}
);
layerId = m01;
shapes = (
{
closed = 1;
nodes = (
(68,0,l),
(531,0,l),
(531,113,l),
(206,113,l),
(206,700,l),
(68,700,l)
);
},
{
closed = 1;
nodes = (
(220,-287,l),
(326,-287,o),
(379,-245,o),
(379,-160,cs),
(379,-60,l),
(229,-60,l),
(229,-160,l),
(309,-160,l),
(309,-198,o),
(283,-214,o),
(220,-214,c)
);
}
);
width = 589;
},
{
hints = (
{
horizontal = 1;
place = (-287, 73);
place = (-287, 73);
type = Stem;
},
{
horizontal = 1;
place = (-160, 100);
place = (-160, 100);
type = Stem;
},
{
horizontal = 1;
place = (0, 113);
place = (0, 113);
type = Stem;
},
{
place = (68, 138);
place = (68, 138);
type = Stem;
},
{
place = (309, 70);
place = (309, 70);
type = Stem;
},
{
place = (229, 150);
place = (229, 150);
type = Stem;
}
);
layerId = "6A72B8B1-0803-4BB2-A3A1-70C2871A9914";
shapes = (
{
closed = 1;
nodes = (
(68,0,l),
(531,0,l),
(531,113,l),
(206,113,l),
(206,700,l),
(68,700,l)
);
},
{
closed = 1;
nodes = (
(220,-287,l),
(326,-287,o),
(379,-245,o),
(379,-160,cs),
(379,-60,l),
(229,-60,l),
(229,-160,l),
(309,-160,l),
(309,-198,o),
(283,-214,o),
(220,-214,c)
);
}
);
width = 589;
}
);
note = uni013B;
unicode = 315;
},
{
glyphname = Ldot;
kernLeft = B;
kernRight = L;
lastChange = "2024-02-25 16:05:16 +0000";
layers = (
{
hints = (
{
horizontal = 1;
place = (0, 113);
place = (0, 113);
type = Stem;
},
{
horizontal = 1;
place = (275, 150);
place = (275, 150);
type = Stem;
},
{
place = (68, 138);
place = (68, 138);
type = Stem;
},
{
place = (270, 140);
place = (270, 140);
type = Stem;
}
);
layerId = m01;
shapes = (
{
closed = 1;
nodes = (
(68,0,l),
(531,0,l),
(531,113,l),
(206,113,l),
(206,700,l),
(68,700,l)
);
},
{
closed = 1;
nodes = (
(270,275,l),
(410,275,l),
(410,425,l),
(270,425,l)
);
}
);
width = 547;
},
{
hints = (
{
horizontal = 1;
place = (0, 113);
place = (0, 113);
type = Stem;
},
{
horizontal = 1;
place = (275, 150);
place = (275, 150);
type = Stem;
},
{
place = (68, 138);
place = (68, 138);
type = Stem;
},
{
place = (270, 140);
place = (270, 140);
type = Stem;
}
);
layerId = "6A72B8B1-0803-4BB2-A3A1-70C2871A9914";
shapes = (
{
closed = 1;
nodes = (
(68,0,l),
(531,0,l),
(531,113,l),
(206,113,l),
(206,700,l),
(68,700,l)
);
},
{
closed = 1;
nodes = (
(270,275,l),
(410,275,l),
(410,425,l),
(270,425,l)
);
}
);
width = 547;
}
);
note = Ldot;
unicode = 319;
},
{
glyphname = Lslash;
kernRight = L;
lastChange = "2024-02-25 16:05:16 +0000";
layers = (
{
hints = (
{
horizontal = 1;
place = (0, 113);
place = (0, 113);
type = Stem;
},
{
place = (87, 138);
place = (87, 138);
type = Stem;
}
);
layerId = m01;
shapes = (
{
closed = 1;
nodes = (
(8,225,l),
(87,257,l),
(87,0,l),
(550,0,l),
(550,113,l),
(225,113,l),
(225,314,l),
(368,373,l),
(368,475,l),
(225,416,l),
(225,700,l),
(87,700,l),
(87,359,l),
(8,327,l)
);
}
);
width = 566;
},
{
hints = (
{
horizontal = 1;
place = (0, 113);
place = (0, 113);
type = Stem;
},
{
place = (87, 138);
place = (87, 138);
type = Stem;
}
);
layerId = "6A72B8B1-0803-4BB2-A3A1-70C2871A9914";
shapes = (
{
closed = 1;
nodes = (
(8,225,l),
(87,257,l),
(87,0,l),
(550,0,l),
(550,113,l),
(225,113,l),
(225,314,l),
(368,373,l),
(368,475,l),
(225,416,l),
(225,700,l),
(87,700,l),
(87,359,l),
(8,327,l)
);
}
);
width = 566;
}
);
note = Lslash;
unicode = 321;
},
{
glyphname = M;
kernLeft = B;
kernRight = H;
lastChange = "2024-02-25 16:05:16 +0000";
layers = (
{
hints = (
{
horizontal = 1;
place = (0, 21);
target = up;
type = BottomGhost;
},
{
place = (68, 138);
place = (68, 138);
type = Stem;
},
{
place = (668, 138);
place = (668, 138);
type = Stem;
}
);
layerId = m01;
shapes = (
{
closed = 1;
nodes = (
(68,0,l),
(206,0,l),
(206,466,l),
(386,0,l),
(488,0,l),
(668,466,l),
(668,0,l),
(806,0,l),
(806,700,l),
(626,700,l),
(437,202,l),
(247,700,l),
(68,700,l)
);
}
);
width = 874;
},
{
hints = (
{
horizontal = 1;
place = (0, 21);
target = up;
type = BottomGhost;
},
{
place = (68, 138);
place = (68, 138);
type = Stem;
},
{
place = (668, 138);
place = (668, 138);
type = Stem;
}
);
layerId = "6A72B8B1-0803-4BB2-A3A1-70C2871A9914";
shapes = (
{
closed = 1;
nodes = (
(68,0,l),
(206,0,l),
(206,466,l),
(386,0,l),
(488,0,l),
(668,466,l),
(668,0,l),
(806,0,l),
(806,700,l),
(626,700,l),
(437,202,l),
(247,700,l),
(68,700,l)
);
}
);
width = 874;
}
);
note = M;
unicode = 77;
},
{
glyphname = N;
kernLeft = B;
kernRight = H;
lastChange = "2024-02-25 16:05:16 +0000";
layers = (
{
hints = (
{
horizontal = 1;
place = (0, 21);
target = up;
type = BottomGhost;
},
{
place = (68, 139);
place = (68, 139);
type = Stem;
},
{
place = (525, 139);
place = (525, 139);
type = Stem;
}
);
layerId = m01;
shapes = (
{
closed = 1;
nodes = (
(68,0,l),
(207,0,l),
(207,489,l),
(515,0,l),
(664,0,l),
(664,700,l),
(525,700,l),
(525,211,l),
(217,700,l),
(68,700,l)
);
}
);
width = 732;
},
{
hints = (
{
horizontal = 1;
place = (0, 21);
target = up;
type = BottomGhost;
},
{
place = (68, 139);
place = (68, 139);
type = Stem;
},
{
place = (525, 139);
place = (525, 139);
type = Stem;
}
);
layerId = "6A72B8B1-0803-4BB2-A3A1-70C2871A9914";
shapes = (
{
closed = 1;
nodes = (
(68,0,l),
(207,0,l),
(207,489,l),
(515,0,l),
(664,0,l),
(664,700,l),
(525,700,l),
(525,211,l),
(217,700,l),
(68,700,l)
);
}
);
width = 732;
}
);
note = N;
unicode = 78;
},
{
glyphname = Nacute;
kernLeft = B;
kernRight = H;
lastChange = "2024-02-25 16:05:16 +0000";
layers = (
{
hints = (
{
horizontal = 1;
place = (0, 21);
target = up;
type = BottomGhost;
},
{
horizontal = 1;
place = (780, 140);
place = (780, 140);
type = Stem;
},
{
place = (68, 139);
place = (68, 139);
type = Stem;
},
{
place = (525, 139);
place = (525, 139);
type = Stem;
}
);
layerId = m01;
shapes = (
{
closed = 1;
nodes = (
(68,0,l),
(207,0,l),
(207,489,l),
(515,0,l),
(664,0,l),
(664,700,l),
(525,700,l),
(525,211,l),
(217,700,l),
(68,700,l)
);
},
{
closed = 1;
nodes = (
(319,780,l),
(409,780,l),
(513,920,l),
(375,920,l)
);
}
);
width = 732;
},
{
hints = (
{
horizontal = 1;
place = (0, 21);
target = up;
type = BottomGhost;
},
{
horizontal = 1;
place = (780, 140);
place = (780, 140);
type = Stem;
},
{
place = (68, 139);
place = (68, 139);
type = Stem;
},
{
place = (525, 139);
place = (525, 139);
type = Stem;
}
);
layerId = "6A72B8B1-0803-4BB2-A3A1-70C2871A9914";
shapes = (
{
closed = 1;
nodes = (
(68,0,l),
(207,0,l),
(207,489,l),
(515,0,l),
(664,0,l),
(664,700,l),
(525,700,l),
(525,211,l),
(217,700,l),
(68,700,l)
);
},
{
closed = 1;
nodes = (
(319,780,l),
(409,780,l),
(513,920,l),
(375,920,l)
);
}
);
width = 732;
}
);
note = Nacute;
unicode = 323;
},
{
glyphname = Ncaron;
kernLeft = B;
kernRight = H;
lastChange = "2024-02-25 16:05:16 +0000";
layers = (
{
hints = (
{
horizontal = 1;
place = (0, 21);
target = up;
type = BottomGhost;
},
{
horizontal = 1;
place = (790, 140);
place = (790, 140);
type = Stem;
},
{
place = (68, 139);
place = (68, 139);
type = Stem;
},
{
place = (525, 139);
place = (525, 139);
type = Stem;
}
);
layerId = m01;
shapes = (
{
closed = 1;
nodes = (
(68,0,l),
(207,0,l),
(207,489,l),
(515,0,l),
(664,0,l),
(664,700,l),
(525,700,l),
(525,211,l),
(217,700,l),
(68,700,l)
);
},
{
closed = 1;
nodes = (
(182,930,l),
(264,790,l),
(468,790,l),
(550,930,l),
(426,930,l),
(366,830,l),
(306,930,l)
);
}
);
width = 732;
},
{
hints = (
{
horizontal = 1;
place = (0, 21);
target = up;
type = BottomGhost;
},
{
horizontal = 1;
place = (790, 140);
place = (790, 140);
type = Stem;
},
{
place = (68, 139);
place = (68, 139);
type = Stem;
},
{
place = (525, 139);
place = (525, 139);
type = Stem;
}
);
layerId = "6A72B8B1-0803-4BB2-A3A1-70C2871A9914";
shapes = (
{
closed = 1;
nodes = (
(68,0,l),
(207,0,l),
(207,489,l),
(515,0,l),
(664,0,l),
(664,700,l),
(525,700,l),
(525,211,l),
(217,700,l),
(68,700,l)
);
},
{
closed = 1;
nodes = (
(182,930,l),
(264,790,l),
(468,790,l),
(550,930,l),
(426,930,l),
(366,830,l),
(306,930,l)
);
}
);
width = 732;
}
);
note = Ncaron;
unicode = 327;
},
{
glyphname = uni0145;
kernLeft = B;
kernRight = H;
lastChange = "2024-02-25 16:05:16 +0000";
layers = (
{
hints = (
{
horizontal = 1;
place = (-287, 73);
place = (-287, 73);
type = Stem;
},
{
horizontal = 1;
place = (-160, 100);
place = (-160, 100);
type = Stem;
},
{
horizontal = 1;
place = (0, 21);
target = up;
type = BottomGhost;
},
{
place = (68, 139);
place = (68, 139);
type = Stem;
},
{
place = (296, 150);
place = (296, 150);
type = Stem;
},
{
place = (525, 139);
place = (525, 139);
type = Stem;
},
{
place = (376, 70);
place = (376, 70);
type = Stem;
}
);
layerId = m01;
shapes = (
{
closed = 1;
nodes = (
(68,0,l),
(207,0,l),
(207,489,l),
(515,0,l),
(664,0,l),
(664,700,l),
(525,700,l),
(525,211,l),
(217,700,l),
(68,700,l)
);
},
{
closed = 1;
nodes = (
(287,-287,l),
(393,-287,o),
(446,-245,o),
(446,-160,cs),
(446,-60,l),
(296,-60,l),
(296,-160,l),
(376,-160,l),
(376,-198,o),
(350,-214,o),
(287,-214,c)
);
}
);
width = 732;
},
{
hints = (
{
horizontal = 1;
place = (-287, 73);
place = (-287, 73);
type = Stem;
},
{
horizontal = 1;
place = (-160, 100);
place = (-160, 100);
type = Stem;
},
{
horizontal = 1;
place = (0, 21);
target = up;
type = BottomGhost;
},
{
place = (68, 139);
place = (68, 139);
type = Stem;
},
{
place = (296, 150);
place = (296, 150);
type = Stem;
},
{
place = (525, 139);
place = (525, 139);
type = Stem;
},
{
place = (376, 70);
place = (376, 70);
type = Stem;
}
);
layerId = "6A72B8B1-0803-4BB2-A3A1-70C2871A9914";
shapes = (
{
closed = 1;
nodes = (
(68,0,l),
(207,0,l),
(207,489,l),
(515,0,l),
(664,0,l),
(664,700,l),
(525,700,l),
(525,211,l),
(217,700,l),
(68,700,l)
);
},
{
closed = 1;
nodes = (
(287,-287,l),
(393,-287,o),
(446,-245,o),
(446,-160,cs),
(446,-60,l),
(296,-60,l),
(296,-160,l),
(376,-160,l),
(376,-198,o),
(350,-214,o),
(287,-214,c)
);
}
);
width = 732;
}
);
note = uni0145;
unicode = 325;
},
{
glyphname = Ntilde;
kernLeft = B;
kernRight = H;
lastChange = "2024-02-25 16:05:16 +0000";
layers = (
{
hints = (
{
horizontal = 1;
place = (0, 21);
target = up;
type = BottomGhost;
},
{
horizontal = 1;
place = (817, 105);
place = (817, 105);
type = Stem;
},
{
place = (68, 139);
place = (68, 139);
type = Stem;
},
{
place = (525, 139);
place = (525, 139);
type = Stem;
},
{
place = (156, 112);
place = (156, 112);
type = Stem;
},
{
horizontal = 1;
place = (760, 104);
place = (760, 104);
type = Stem;
},
{
place = (464, 112);
place = (464, 112);
type = Stem;
}
);
layerId = m01;
shapes = (
{
closed = 1;
nodes = (
(68,0,l),
(207,0,l),
(207,489,l),
(515,0,l),
(664,0,l),
(664,700,l),
(525,700,l),
(525,211,l),
(217,700,l),
(68,700,l)
);
},
{
closed = 1;
nodes = (
(268,760,l),
(268,791,o),
(277,817,o),
(306,817,cs),
(348,817,o),
(369,760,o),
(446,760,cs),
(531,760,o),
(576,828,o),
(576,912,c),
(464,922,l),
(464,890,o),
(454,864,o),
(426,864,cs),
(384,864,o),
(366,922,o),
(290,922,cs),
(205,922,o),
(156,853,o),
(156,770,c)
);
}
);
width = 732;
},
{
hints = (
{
horizontal = 1;
place = (0, 21);
target = up;
type = BottomGhost;
},
{
horizontal = 1;
place = (817, 105);
place = (817, 105);
type = Stem;
},
{
place = (68, 139);
place = (68, 139);
type = Stem;
},
{
place = (525, 139);
place = (525, 139);
type = Stem;
},
{
place = (156, 112);
place = (156, 112);
type = Stem;
},
{
horizontal = 1;
place = (760, 104);
place = (760, 104);
type = Stem;
},
{
place = (464, 112);
place = (464, 112);
type = Stem;
}
);
layerId = "6A72B8B1-0803-4BB2-A3A1-70C2871A9914";
shapes = (
{
closed = 1;
nodes = (
(68,0,l),
(207,0,l),
(207,489,l),
(515,0,l),
(664,0,l),
(664,700,l),
(525,700,l),
(525,211,l),
(217,700,l),
(68,700,l)
);
},
{
closed = 1;
nodes = (
(268,760,l),
(268,791,o),
(277,817,o),
(306,817,cs),
(348,817,o),
(369,760,o),
(446,760,cs),
(531,760,o),
(576,828,o),
(576,912,c),
(464,922,l),
(464,890,o),
(454,864,o),
(426,864,cs),
(384,864,o),
(366,922,o),
(290,922,cs),
(205,922,o),
(156,853,o),
(156,770,c)
);
}
);
width = 732;
}
);
note = Ntilde;
unicode = 209;
},
{
glyphname = Eng;
kernLeft = B;
kernRight = H;
lastChange = "2024-02-25 16:05:16 +0000";
layers = (
{
hints = (
{
horizontal = 1;
place = (-200, 113);
place = (-200, 113);
type = Stem;
},
{
horizontal = 1;
place = (0, 21);
target = up;
type = BottomGhost;
},
{
place = (68, 139);
place = (68, 139);
type = Stem;
},
{
place = (525, 139);
place = (525, 139);
type = Stem;
},
{
place = (529, 135);
place = (529, 135);
type = Stem;
}
);
layerId = m01;
shapes = (
{
closed = 1;
nodes = (
(379,-200,l),
(494,-200,ls),
(608,-200,o),
(664,-147,o),
(664,-40,cs),
(664,700,l),
(525,700,l),
(525,211,l),
(217,700,l),
(68,700,l),
(68,0,l),
(207,0,l),
(207,489,l),
(515,0,l),
(529,0,l),
(529,-27,ls),
(529,-67,o),
(509,-87,o),
(469,-87,cs),
(379,-87,l)
);
}
);
width = 732;
},
{
hints = (
{
horizontal = 1;
place = (-200, 113);
place = (-200, 113);
type = Stem;
},
{
horizontal = 1;
place = (0, 21);
target = up;
type = BottomGhost;
},
{
place = (68, 139);
place = (68, 139);
type = Stem;
},
{
place = (525, 139);
place = (525, 139);
type = Stem;
},
{
place = (529, 135);
place = (529, 135);
type = Stem;
}
);
layerId = "6A72B8B1-0803-4BB2-A3A1-70C2871A9914";
shapes = (
{
closed = 1;
nodes = (
(379,-200,l),
(494,-200,ls),
(608,-200,o),
(664,-147,o),
(664,-40,cs),
(664,700,l),
(525,700,l),
(525,211,l),
(217,700,l),
(68,700,l),
(68,0,l),
(207,0,l),
(207,489,l),
(515,0,l),
(529,0,l),
(529,-27,ls),
(529,-67,o),
(509,-87,o),
(469,-87,cs),
(379,-87,l)
);
}
);
width = 732;
}
);
note = Eng;
unicode = 330;
},
{
glyphname = O;
kernLeft = C;
kernRight = C;
lastChange = "2024-02-25 16:05:16 +0000";
layers = (
{
hints = (
{
horizontal = 1;
place = (-16, 113);
place = (-16, 113);
type = Stem;
},
{
horizontal = 1;
place = (603, 113);
place = (603, 113);
type = Stem;
},
{
place = (44, 138);
place = (44, 138);
type = Stem;
},
{
place = (610, 138);
place = (610, 138);
type = Stem;
}
);
layerId = m01;
shapes = (
{
closed = 1;
nodes = (
(603,-16,o),
(748,135,o),
(748,350,cs),
(748,565,o),
(603,716,o),
(396,716,cs),
(189,716,o),
(44,565,o),
(44,350,cs),
(44,135,o),
(189,-16,o),
(396,-16,cs)
);
},
{
closed = 1;
nodes = (
(182,501,o),
(269,603,o),
(396,603,cs),
(523,603,o),
(610,501,o),
(610,350,cs),
(610,199,o),
(523,97,o),
(396,97,cs),
(269,97,o),
(182,199,o),
(182,350,cs)
);
}
);
width = 792;
},
{
hints = (
{
horizontal = 1;
place = (-16, 113);
place = (-16, 113);
type = Stem;
},
{
horizontal = 1;
place = (603, 113);
place = (603, 113);
type = Stem;
},
{
place = (44, 138);
place = (44, 138);
type = Stem;
},
{
place = (610, 138);
place = (610, 138);
type = Stem;
}
);
layerId = "6A72B8B1-0803-4BB2-A3A1-70C2871A9914";
shapes = (
{
closed = 1;
nodes = (
(603,-16,o),
(748,135,o),
(748,350,cs),
(748,565,o),
(603,716,o),
(396,716,cs),
(189,716,o),
(44,565,o),
(44,350,cs),
(44,135,o),
(189,-16,o),
(396,-16,cs)
);
},
{
closed = 1;
nodes = (
(182,501,o),
(269,603,o),
(396,603,cs),
(523,603,o),
(610,501,o),
(610,350,cs),
(610,199,o),
(523,97,o),
(396,97,cs),
(269,97,o),
(182,199,o),
(182,350,cs)
);
}
);
width = 792;
}
);
note = O;
unicode = 79;
},
{
glyphname = Oacute;
kernLeft = C;
kernRight = C;
lastChange = "2024-02-25 16:05:16 +0000";
layers = (
{
hints = (
{
horizontal = 1;
place = (-16, 113);
place = (-16, 113);
type = Stem;
},
{
horizontal = 1;
place = (603, 113);
place = (603, 113);
type = Stem;
},
{
horizontal = 1;
place = (780, 140);
place = (780, 140);
type = Stem;
},
{
place = (44, 138);
place = (44, 138);
type = Stem;
},
{
place = (610, 138);
place = (610, 138);
type = Stem;
}
);
layerId = m01;
shapes = (
{
closed = 1;
nodes = (
(603,-16,o),
(748,135,o),
(748,350,cs),
(748,565,o),
(603,716,o),
(396,716,cs),
(189,716,o),
(44,565,o),
(44,350,cs),
(44,135,o),
(189,-16,o),
(396,-16,cs)
);
},
{
closed = 1;
nodes = (
(182,501,o),
(269,603,o),
(396,603,cs),
(523,603,o),
(610,501,o),
(610,350,cs),
(610,199,o),
(523,97,o),
(396,97,cs),
(269,97,o),
(182,199,o),
(182,350,cs)
);
},
{
closed = 1;
nodes = (
(359,780,l),
(449,780,l),
(553,920,l),
(415,920,l)
);
}
);
width = 792;
},
{
hints = (
{
horizontal = 1;
place = (-16, 113);
place = (-16, 113);
type = Stem;
},
{
horizontal = 1;
place = (603, 113);
place = (603, 113);
type = Stem;
},
{
horizontal = 1;
place = (780, 140);
place = (780, 140);
type = Stem;
},
{
place = (44, 138);
place = (44, 138);
type = Stem;
},
{
place = (610, 138);
place = (610, 138);
type = Stem;
}
);
layerId = "6A72B8B1-0803-4BB2-A3A1-70C2871A9914";
shapes = (
{
closed = 1;
nodes = (
(603,-16,o),
(748,135,o),
(748,350,cs),
(748,565,o),
(603,716,o),
(396,716,cs),
(189,716,o),
(44,565,o),
(44,350,cs),
(44,135,o),
(189,-16,o),
(396,-16,cs)
);
},
{
closed = 1;
nodes = (
(182,501,o),
(269,603,o),
(396,603,cs),
(523,603,o),
(610,501,o),
(610,350,cs),
(610,199,o),
(523,97,o),
(396,97,cs),
(269,97,o),
(182,199,o),
(182,350,cs)
);
},
{
closed = 1;
nodes = (
(359,780,l),
(449,780,l),
(553,920,l),
(415,920,l)
);
}
);
width = 792;
}
);
note = Oacute;
unicode = 211;
},
{
glyphname = Obreve;
kernLeft = C;
kernRight = C;
lastChange = "2024-02-25 16:05:16 +0000";
layers = (
{
hints = (
{
horizontal = 1;
place = (-16, 113);
place = (-16, 113);
type = Stem;
},
{
horizontal = 1;
place = (603, 113);
place = (603, 113);
type = Stem;
},
{
horizontal = 1;
place = (780, 95);
place = (780, 95);
type = Stem;
},
{
place = (44, 138);
place = (44, 138);
type = Stem;
},
{
place = (610, 138);
place = (610, 138);
type = Stem;
},
{
horizontal = 1;
place = (780, 170);
place = (780, 170);
type = Stem;
},
{
place = (226, 95);
place = (226, 95);
type = Stem;
},
{
place = (471, 95);
place = (471, 95);
type = Stem;
}
);
layerId = m01;
shapes = (
{
closed = 1;
nodes = (
(603,-16,o),
(748,135,o),
(748,350,cs),
(748,565,o),
(603,716,o),
(396,716,cs),
(189,716,o),
(44,565,o),
(44,350,cs),
(44,135,o),
(189,-16,o),
(396,-16,cs)
);
},
{
closed = 1;
nodes = (
(182,501,o),
(269,603,o),
(396,603,cs),
(523,603,o),
(610,501,o),
(610,350,cs),
(610,199,o),
(523,97,o),
(396,97,cs),
(269,97,o),
(182,199,o),
(182,350,cs)
);
},
{
closed = 1;
nodes = (
(226,950,l),
(226,850,o),
(301,780,o),
(396,780,cs),
(488,780,o),
(566,850,o),
(566,950,c),
(471,950,l),
(471,905,o),
(437,875,o),
(396,875,cs),
(354,875,o),
(321,905,o),
(321,950,c)
);
}
);
width = 792;
},
{
hints = (
{
horizontal = 1;
place = (-16, 113);
place = (-16, 113);
type = Stem;
},
{
horizontal = 1;
place = (603, 113);
place = (603, 113);
type = Stem;
},
{
horizontal = 1;
place = (780, 95);
place = (780, 95);
type = Stem;
},
{
place = (44, 138);
place = (44, 138);
type = Stem;
},
{
place = (610, 138);
place = (610, 138);
type = Stem;
},
{
horizontal = 1;
place = (780, 170);
place = (780, 170);
type = Stem;
},
{
place = (226, 95);
place = (226, 95);
type = Stem;
},
{
place = (471, 95);
place = (471, 95);
type = Stem;
}
);
layerId = "6A72B8B1-0803-4BB2-A3A1-70C2871A9914";
shapes = (
{
closed = 1;
nodes = (
(603,-16,o),
(748,135,o),
(748,350,cs),
(748,565,o),
(603,716,o),
(396,716,cs),
(189,716,o),
(44,565,o),
(44,350,cs),
(44,135,o),
(189,-16,o),
(396,-16,cs)
);
},
{
closed = 1;
nodes = (
(182,501,o),
(269,603,o),
(396,603,cs),
(523,603,o),
(610,501,o),
(610,350,cs),
(610,199,o),
(523,97,o),
(396,97,cs),
(269,97,o),
(182,199,o),
(182,350,cs)
);
},
{
closed = 1;
nodes = (
(226,950,l),
(226,850,o),
(301,780,o),
(396,780,cs),
(488,780,o),
(566,850,o),
(566,950,c),
(471,950,l),
(471,905,o),
(437,875,o),
(396,875,cs),
(354,875,o),
(321,905,o),
(321,950,c)
);
}
);
width = 792;
}
);
note = Obreve;
unicode = 334;
},
{
glyphname = Ocircumflex;
kernLeft = C;
kernRight = C;
lastChange = "2024-02-25 16:05:16 +0000";
layers = (
{
hints = (
{
horizontal = 1;
place = (-16, 113);
place = (-16, 113);
type = Stem;
},
{
horizontal = 1;
place = (603, 113);
place = (603, 113);
type = Stem;
},
{
horizontal = 1;
place = (780, 140);
place = (780, 140);
type = Stem;
},
{
place = (44, 138);
place = (44, 138);
type = Stem;
},
{
place = (610, 138);
place = (610, 138);
type = Stem;
},
{
horizontal = 1;
place = (880, 40);
place = (880, 40);
type = Stem;
}
);
layerId = m01;
shapes = (
{
closed = 1;
nodes = (
(603,-16,o),
(748,135,o),
(748,350,cs),
(748,565,o),
(603,716,o),
(396,716,cs),
(189,716,o),
(44,565,o),
(44,350,cs),
(44,135,o),
(189,-16,o),
(396,-16,cs)
);
},
{
closed = 1;
nodes = (
(182,501,o),
(269,603,o),
(396,603,cs),
(523,603,o),
(610,501,o),
(610,350,cs),
(610,199,o),
(523,97,o),
(396,97,cs),
(269,97,o),
(182,199,o),
(182,350,cs)
);
},
{
closed = 1;
nodes = (
(212,780,l),
(336,780,l),
(396,880,l),
(456,780,l),
(580,780,l),
(498,920,l),
(294,920,l)
);
}
);
width = 792;
},
{
hints = (
{
horizontal = 1;
place = (-16, 113);
place = (-16, 113);
type = Stem;
},
{
horizontal = 1;
place = (603, 113);
place = (603, 113);
type = Stem;
},
{
horizontal = 1;
place = (780, 140);
place = (780, 140);
type = Stem;
},
{
place = (44, 138);
place = (44, 138);
type = Stem;
},
{
place = (610, 138);
place = (610, 138);
type = Stem;
},
{
horizontal = 1;
place = (880, 40);
place = (880, 40);
type = Stem;
}
);
layerId = "6A72B8B1-0803-4BB2-A3A1-70C2871A9914";
shapes = (
{
closed = 1;
nodes = (
(603,-16,o),
(748,135,o),
(748,350,cs),
(748,565,o),
(603,716,o),
(396,716,cs),
(189,716,o),
(44,565,o),
(44,350,cs),
(44,135,o),
(189,-16,o),
(396,-16,cs)
);
},
{
closed = 1;
nodes = (
(182,501,o),
(269,603,o),
(396,603,cs),
(523,603,o),
(610,501,o),
(610,350,cs),
(610,199,o),
(523,97,o),
(396,97,cs),
(269,97,o),
(182,199,o),
(182,350,cs)
);
},
{
closed = 1;
nodes = (
(212,780,l),
(336,780,l),
(396,880,l),
(456,780,l),
(580,780,l),
(498,920,l),
(294,920,l)
);
}
);
width = 792;
}
);
note = Ocircumflex;
unicode = 212;
},
{
glyphname = Odieresis;
kernLeft = C;
kernRight = C;
lastChange = "2024-02-25 16:05:16 +0000";
layers = (
{
hints = (
{
horizontal = 1;
place = (-16, 113);
place = (-16, 113);
type = Stem;
},
{
horizontal = 1;
place = (603, 113);
place = (603, 113);
type = Stem;
},
{
horizontal = 1;
place = (770, 120);
place = (770, 120);
type = Stem;
},
{
place = (44, 138);
place = (44, 138);
type = Stem;
},
{
place = (236, 130);
place = (236, 130);
type = Stem;
},
{
place = (426, 130);
place = (426, 130);
type = Stem;
},
{
place = (610, 138);
place = (610, 138);
type = Stem;
}
);
layerId = m01;
shapes = (
{
closed = 1;
nodes = (
(603,-16,o),
(748,135,o),
(748,350,cs),
(748,565,o),
(603,716,o),
(396,716,cs),
(189,716,o),
(44,565,o),
(44,350,cs),
(44,135,o),
(189,-16,o),
(396,-16,cs)
);
},
{
closed = 1;
nodes = (
(182,501,o),
(269,603,o),
(396,603,cs),
(523,603,o),
(610,501,o),
(610,350,cs),
(610,199,o),
(523,97,o),
(396,97,cs),
(269,97,o),
(182,199,o),
(182,350,cs)
);
},
{
closed = 1;
nodes = (
(236,770,l),
(366,770,l),
(366,890,l),
(236,890,l)
);
},
{
closed = 1;
nodes = (
(426,770,l),
(556,770,l),
(556,890,l),
(426,890,l)
);
}
);
width = 792;
},
{
hints = (
{
horizontal = 1;
place = (-16, 113);
place = (-16, 113);
type = Stem;
},
{
horizontal = 1;
place = (603, 113);
place = (603, 113);
type = Stem;
},
{
horizontal = 1;
place = (770, 120);
place = (770, 120);
type = Stem;
},
{
place = (44, 138);
place = (44, 138);
type = Stem;
},
{
place = (236, 130);
place = (236, 130);
type = Stem;
},
{
place = (426, 130);
place = (426, 130);
type = Stem;
},
{
place = (610, 138);
place = (610, 138);
type = Stem;
}
);
layerId = "6A72B8B1-0803-4BB2-A3A1-70C2871A9914";
shapes = (
{
closed = 1;
nodes = (
(603,-16,o),
(748,135,o),
(748,350,cs),
(748,565,o),
(603,716,o),
(396,716,cs),
(189,716,o),
(44,565,o),
(44,350,cs),
(44,135,o),
(189,-16,o),
(396,-16,cs)
);
},
{
closed = 1;
nodes = (
(182,501,o),
(269,603,o),
(396,603,cs),
(523,603,o),
(610,501,o),
(610,350,cs),
(610,199,o),
(523,97,o),
(396,97,cs),
(269,97,o),
(182,199,o),
(182,350,cs)
);
},
{
closed = 1;
nodes = (
(236,770,l),
(366,770,l),
(366,890,l),
(236,890,l)
);
},
{
closed = 1;
nodes = (
(426,770,l),
(556,770,l),
(556,890,l),
(426,890,l)
);
}
);
width = 792;
}
);
note = Odieresis;
unicode = 214;
},
{
glyphname = Ograve;
kernLeft = C;
kernRight = C;
lastChange = "2024-02-25 16:05:16 +0000";
layers = (
{
hints = (
{
horizontal = 1;
place = (-16, 113);
place = (-16, 113);
type = Stem;
},
{
horizontal = 1;
place = (603, 113);
place = (603, 113);
type = Stem;
},
{
horizontal = 1;
place = (780, 140);
place = (780, 140);
type = Stem;
},
{
place = (44, 138);
place = (44, 138);
type = Stem;
},
{
place = (610, 138);
place = (610, 138);
type = Stem;
}
);
layerId = m01;
shapes = (
{
closed = 1;
nodes = (
(603,-16,o),
(748,135,o),
(748,350,cs),
(748,565,o),
(603,716,o),
(396,716,cs),
(189,716,o),
(44,565,o),
(44,350,cs),
(44,135,o),
(189,-16,o),
(396,-16,cs)
);
},
{
closed = 1;
nodes = (
(182,501,o),
(269,603,o),
(396,603,cs),
(523,603,o),
(610,501,o),
(610,350,cs),
(610,199,o),
(523,97,o),
(396,97,cs),
(269,97,o),
(182,199,o),
(182,350,cs)
);
},
{
closed = 1;
nodes = (
(239,920,l),
(343,780,l),
(433,780,l),
(377,920,l)
);
}
);
width = 792;
},
{
hints = (
{
horizontal = 1;
place = (-16, 113);
place = (-16, 113);
type = Stem;
},
{
horizontal = 1;
place = (603, 113);
place = (603, 113);
type = Stem;
},
{
horizontal = 1;
place = (780, 140);
place = (780, 140);
type = Stem;
},
{
place = (44, 138);
place = (44, 138);
type = Stem;
},
{
place = (610, 138);
place = (610, 138);
type = Stem;
}
);
layerId = "6A72B8B1-0803-4BB2-A3A1-70C2871A9914";
shapes = (
{
closed = 1;
nodes = (
(603,-16,o),
(748,135,o),
(748,350,cs),
(748,565,o),
(603,716,o),
(396,716,cs),
(189,716,o),
(44,565,o),
(44,350,cs),
(44,135,o),
(189,-16,o),
(396,-16,cs)
);
},
{
closed = 1;
nodes = (
(182,501,o),
(269,603,o),
(396,603,cs),
(523,603,o),
(610,501,o),
(610,350,cs),
(610,199,o),
(523,97,o),
(396,97,cs),
(269,97,o),
(182,199,o),
(182,350,cs)
);
},
{
closed = 1;
nodes = (
(239,920,l),
(343,780,l),
(433,780,l),
(377,920,l)
);
}
);
width = 792;
}
);
note = Ograve;
unicode = 210;
},
{
glyphname = Ohungarumlaut;
kernLeft = C;
kernRight = C;
lastChange = "2024-02-25 16:05:16 +0000";
layers = (
{
hints = (
{
horizontal = 1;
place = (-16, 113);
place = (-16, 113);
type = Stem;
},
{
horizontal = 1;
place = (603, 113);
place = (603, 113);
type = Stem;
},
{
horizontal = 1;
place = (780, 140);
place = (780, 140);
type = Stem;
},
{
place = (44, 138);
place = (44, 138);
type = Stem;
},
{
place = (610, 138);
place = (610, 138);
type = Stem;
}
);
layerId = m01;
shapes = (
{
closed = 1;
nodes = (
(603,-16,o),
(748,135,o),
(748,350,cs),
(748,565,o),
(603,716,o),
(396,716,cs),
(189,716,o),
(44,565,o),
(44,350,cs),
(44,135,o),
(189,-16,o),
(396,-16,cs)
);
},
{
closed = 1;
nodes = (
(182,501,o),
(269,603,o),
(396,603,cs),
(523,603,o),
(610,501,o),
(610,350,cs),
(610,199,o),
(523,97,o),
(396,97,cs),
(269,97,o),
(182,199,o),
(182,350,cs)
);
},
{
closed = 1;
nodes = (
(262,780,l),
(352,780,l),
(456,920,l),
(318,920,l)
);
},
{
closed = 1;
nodes = (
(436,780,l),
(526,780,l),
(630,920,l),
(492,920,l)
);
}
);
width = 792;
},
{
hints = (
{
horizontal = 1;
place = (-16, 113);
place = (-16, 113);
type = Stem;
},
{
horizontal = 1;
place = (603, 113);
place = (603, 113);
type = Stem;
},
{
horizontal = 1;
place = (780, 140);
place = (780, 140);
type = Stem;
},
{
place = (44, 138);
place = (44, 138);
type = Stem;
},
{
place = (610, 138);
place = (610, 138);
type = Stem;
}
);
layerId = "6A72B8B1-0803-4BB2-A3A1-70C2871A9914";
shapes = (
{
closed = 1;
nodes = (
(603,-16,o),
(748,135,o),
(748,350,cs),
(748,565,o),
(603,716,o),
(396,716,cs),
(189,716,o),
(44,565,o),
(44,350,cs),
(44,135,o),
(189,-16,o),
(396,-16,cs)
);
},
{
closed = 1;
nodes = (
(182,501,o),
(269,603,o),
(396,603,cs),
(523,603,o),
(610,501,o),
(610,350,cs),
(610,199,o),
(523,97,o),
(396,97,cs),
(269,97,o),
(182,199,o),
(182,350,cs)
);
},
{
closed = 1;
nodes = (
(262,780,l),
(352,780,l),
(456,920,l),
(318,920,l)
);
},
{
closed = 1;
nodes = (
(436,780,l),
(526,780,l),
(630,920,l),
(492,920,l)
);
}
);
width = 792;
}
);
note = Ohungarumlaut;
unicode = 336;
},
{
glyphname = Omacron;
kernLeft = C;
kernRight = C;
lastChange = "2024-02-25 16:05:16 +0000";
layers = (
{
hints = (
{
horizontal = 1;
place = (-16, 113);
place = (-16, 113);
type = Stem;
},
{
horizontal = 1;
place = (603, 113);
place = (603, 113);
type = Stem;
},
{
horizontal = 1;
place = (770, 103);
place = (770, 103);
type = Stem;
},
{
place = (44, 138);
place = (44, 138);
type = Stem;
},
{
place = (610, 138);
place = (610, 138);
type = Stem;
}
);
layerId = m01;
shapes = (
{
closed = 1;
nodes = (
(603,-16,o),
(748,135,o),
(748,350,cs),
(748,565,o),
(603,716,o),
(396,716,cs),
(189,716,o),
(44,565,o),
(44,350,cs),
(44,135,o),
(189,-16,o),
(396,-16,cs)
);
},
{
closed = 1;
nodes = (
(182,501,o),
(269,603,o),
(396,603,cs),
(523,603,o),
(610,501,o),
(610,350,cs),
(610,199,o),
(523,97,o),
(396,97,cs),
(269,97,o),
(182,199,o),
(182,350,cs)
);
},
{
closed = 1;
nodes = (
(220,770,l),
(572,770,l),
(572,873,l),
(220,873,l)
);
}
);
width = 792;
},
{
hints = (
{
horizontal = 1;
place = (-16, 113);
place = (-16, 113);
type = Stem;
},
{
horizontal = 1;
place = (603, 113);
place = (603, 113);
type = Stem;
},
{
horizontal = 1;
place = (770, 103);
place = (770, 103);
type = Stem;
},
{
place = (44, 138);
place = (44, 138);
type = Stem;
},
{
place = (610, 138);
place = (610, 138);
type = Stem;
}
);
layerId = "6A72B8B1-0803-4BB2-A3A1-70C2871A9914";
shapes = (
{
closed = 1;
nodes = (
(603,-16,o),
(748,135,o),
(748,350,cs),
(748,565,o),
(603,716,o),
(396,716,cs),
(189,716,o),
(44,565,o),
(44,350,cs),
(44,135,o),
(189,-16,o),
(396,-16,cs)
);
},
{
closed = 1;
nodes = (
(182,501,o),
(269,603,o),
(396,603,cs),
(523,603,o),
(610,501,o),
(610,350,cs),
(610,199,o),
(523,97,o),
(396,97,cs),
(269,97,o),
(182,199,o),
(182,350,cs)
);
},
{
closed = 1;
nodes = (
(220,770,l),
(572,770,l),
(572,873,l),
(220,873,l)
);
}
);
width = 792;
}
);
note = Omacron;
unicode = 332;
},
{
glyphname = Oslash;
kernLeft = C;
kernRight = C;
lastChange = "2024-02-25 16:05:16 +0000";
layers = (
{
hints = (
{
horizontal = 1;
place = (-16, 113);
place = (-16, 113);
type = Stem;
},
{
horizontal = 1;
place = (603, 113);
place = (603, 113);
type = Stem;
},
{
place = (45, 138);
place = (45, 138);
type = Stem;
},
{
place = (611, 138);
place = (611, 138);
type = Stem;
}
);
layerId = m01;
shapes = (
{
closed = 1;
nodes = (
(14,-66,l),
(133,-66,l),
(210,33,l),
(263,2,o),
(326,-16,o),
(397,-16,cs),
(604,-16,o),
(749,135,o),
(749,350,cs),
(749,454,o),
(715,543,o),
(656,607,c),
(779,765,l),
(660,765,l),
(584,667,l),
(531,698,o),
(468,716,o),
(397,716,cs),
(190,716,o),
(45,565,o),
(45,350,cs),
(45,246,o),
(79,157,o),
(137,93,c)
);
},
{
closed = 1;
nodes = (
(183,501,o),
(270,603,o),
(397,603,cs),
(439,603,o),
(477,592,o),
(509,571,c),
(220,199,l),
(196,240,o),
(183,291,o),
(183,350,cs)
);
},
{
closed = 1;
nodes = (
(574,501,l),
(598,460,o),
(611,409,o),
(611,350,cs),
(611,199,o),
(524,97,o),
(397,97,cs),
(355,97,o),
(317,108,o),
(285,129,c)
);
}
);
width = 793;
},
{
hints = (
{
horizontal = 1;
place = (-16, 113);
place = (-16, 113);
type = Stem;
},
{
horizontal = 1;
place = (603, 113);
place = (603, 113);
type = Stem;
},
{
place = (45, 138);
place = (45, 138);
type = Stem;
},
{
place = (611, 138);
place = (611, 138);
type = Stem;
}
);
layerId = "6A72B8B1-0803-4BB2-A3A1-70C2871A9914";
shapes = (
{
closed = 1;
nodes = (
(14,-66,l),
(133,-66,l),
(210,33,l),
(263,2,o),
(326,-16,o),
(397,-16,cs),
(604,-16,o),
(749,135,o),
(749,350,cs),
(749,454,o),
(715,543,o),
(656,607,c),
(779,765,l),
(660,765,l),
(584,667,l),
(531,698,o),
(468,716,o),
(397,716,cs),
(190,716,o),
(45,565,o),
(45,350,cs),
(45,246,o),
(79,157,o),
(137,93,c)
);
},
{
closed = 1;
nodes = (
(183,501,o),
(270,603,o),
(397,603,cs),
(439,603,o),
(477,592,o),
(509,571,c),
(220,199,l),
(196,240,o),
(183,291,o),
(183,350,cs)
);
},
{
closed = 1;
nodes = (
(574,501,l),
(598,460,o),
(611,409,o),
(611,350,cs),
(611,199,o),
(524,97,o),
(397,97,cs),
(355,97,o),
(317,108,o),
(285,129,c)
);
}
);
width = 793;
}
);
note = Oslash;
unicode = 216;
},
{
glyphname = Oslashacute;
kernLeft = C;
kernRight = C;
lastChange = "2024-02-25 16:05:16 +0000";
layers = (
{
hints = (
{
horizontal = 1;
place = (-16, 113);
place = (-16, 113);
type = Stem;
},
{
horizontal = 1;
place = (603, 113);
place = (603, 113);
type = Stem;
},
{
horizontal = 1;
place = (780, 140);
place = (780, 140);
type = Stem;
},
{
place = (45, 138);
place = (45, 138);
type = Stem;
},
{
place = (611, 138);
place = (611, 138);
type = Stem;
}
);
layerId = m01;
shapes = (
{
closed = 1;
nodes = (
(14,-66,l),
(133,-66,l),
(210,33,l),
(263,2,o),
(326,-16,o),
(397,-16,cs),
(604,-16,o),
(749,135,o),
(749,350,cs),
(749,454,o),
(715,543,o),
(656,607,c),
(779,765,l),
(660,765,l),
(584,667,l),
(531,698,o),
(468,716,o),
(397,716,cs),
(190,716,o),
(45,565,o),
(45,350,cs),
(45,246,o),
(79,157,o),
(137,93,c)
);
},
{
closed = 1;
nodes = (
(183,501,o),
(270,603,o),
(397,603,cs),
(439,603,o),
(477,592,o),
(509,571,c),
(220,199,l),
(196,240,o),
(183,291,o),
(183,350,cs)
);
},
{
closed = 1;
nodes = (
(574,501,l),
(598,460,o),
(611,409,o),
(611,350,cs),
(611,199,o),
(524,97,o),
(397,97,cs),
(355,97,o),
(317,108,o),
(285,129,c)
);
},
{
closed = 1;
nodes = (
(340,780,l),
(430,780,l),
(534,920,l),
(396,920,l)
);
}
);
width = 793;
},
{
hints = (
{
horizontal = 1;
place = (-16, 113);
place = (-16, 113);
type = Stem;
},
{
horizontal = 1;
place = (603, 113);
place = (603, 113);
type = Stem;
},
{
horizontal = 1;
place = (780, 140);
place = (780, 140);
type = Stem;
},
{
place = (45, 138);
place = (45, 138);
type = Stem;
},
{
place = (611, 138);
place = (611, 138);
type = Stem;
}
);
layerId = "6A72B8B1-0803-4BB2-A3A1-70C2871A9914";
shapes = (
{
closed = 1;
nodes = (
(14,-66,l),
(133,-66,l),
(210,33,l),
(263,2,o),
(326,-16,o),
(397,-16,cs),
(604,-16,o),
(749,135,o),
(749,350,cs),
(749,454,o),
(715,543,o),
(656,607,c),
(779,765,l),
(660,765,l),
(584,667,l),
(531,698,o),
(468,716,o),
(397,716,cs),
(190,716,o),
(45,565,o),
(45,350,cs),
(45,246,o),
(79,157,o),
(137,93,c)
);
},
{
closed = 1;
nodes = (
(183,501,o),
(270,603,o),
(397,603,cs),
(439,603,o),
(477,592,o),
(509,571,c),
(220,199,l),
(196,240,o),
(183,291,o),
(183,350,cs)
);
},
{
closed = 1;
nodes = (
(574,501,l),
(598,460,o),
(611,409,o),
(611,350,cs),
(611,199,o),
(524,97,o),
(397,97,cs),
(355,97,o),
(317,108,o),
(285,129,c)
);
},
{
closed = 1;
nodes = (
(340,780,l),
(430,780,l),
(534,920,l),
(396,920,l)
);
}
);
width = 793;
}
);
note = Oslashacute;
unicode = 510;
},
{
glyphname = Otilde;
kernLeft = C;
kernRight = C;
lastChange = "2024-02-25 16:05:16 +0000";
layers = (
{
hints = (
{
horizontal = 1;
place = (-16, 113);
place = (-16, 113);
type = Stem;
},
{
horizontal = 1;
place = (603, 113);
place = (603, 113);
type = Stem;
},
{
horizontal = 1;
place = (837, 105);
place = (837, 105);
type = Stem;
},
{
place = (44, 138);
place = (44, 138);
type = Stem;
},
{
place = (610, 138);
place = (610, 138);
type = Stem;
},
{
place = (186, 112);
place = (186, 112);
type = Stem;
},
{
horizontal = 1;
place = (780, 104);
place = (780, 104);
type = Stem;
},
{
place = (494, 112);
place = (494, 112);
type = Stem;
}
);
layerId = m01;
shapes = (
{
closed = 1;
nodes = (
(603,-16,o),
(748,135,o),
(748,350,cs),
(748,565,o),
(603,716,o),
(396,716,cs),
(189,716,o),
(44,565,o),
(44,350,cs),
(44,135,o),
(189,-16,o),
(396,-16,cs)
);
},
{
closed = 1;
nodes = (
(182,501,o),
(269,603,o),
(396,603,cs),
(523,603,o),
(610,501,o),
(610,350,cs),
(610,199,o),
(523,97,o),
(396,97,cs),
(269,97,o),
(182,199,o),
(182,350,cs)
);
},
{
closed = 1;
nodes = (
(298,780,l),
(298,811,o),
(307,837,o),
(336,837,cs),
(378,837,o),
(399,780,o),
(476,780,cs),
(561,780,o),
(606,848,o),
(606,932,c),
(494,942,l),
(494,910,o),
(484,884,o),
(456,884,cs),
(414,884,o),
(396,942,o),
(320,942,cs),
(235,942,o),
(186,873,o),
(186,790,c)
);
}
);
width = 792;
},
{
hints = (
{
horizontal = 1;
place = (-16, 113);
place = (-16, 113);
type = Stem;
},
{
horizontal = 1;
place = (603, 113);
place = (603, 113);
type = Stem;
},
{
horizontal = 1;
place = (837, 105);
place = (837, 105);
type = Stem;
},
{
place = (44, 138);
place = (44, 138);
type = Stem;
},
{
place = (610, 138);
place = (610, 138);
type = Stem;
},
{
place = (186, 112);
place = (186, 112);
type = Stem;
},
{
horizontal = 1;
place = (780, 104);
place = (780, 104);
type = Stem;
},
{
place = (494, 112);
place = (494, 112);
type = Stem;
}
);
layerId = "6A72B8B1-0803-4BB2-A3A1-70C2871A9914";
shapes = (
{
closed = 1;
nodes = (
(603,-16,o),
(748,135,o),
(748,350,cs),
(748,565,o),
(603,716,o),
(396,716,cs),
(189,716,o),
(44,565,o),
(44,350,cs),
(44,135,o),
(189,-16,o),
(396,-16,cs)
);
},
{
closed = 1;
nodes = (
(182,501,o),
(269,603,o),
(396,603,cs),
(523,603,o),
(610,501,o),
(610,350,cs),
(610,199,o),
(523,97,o),
(396,97,cs),
(269,97,o),
(182,199,o),
(182,350,cs)
);
},
{
closed = 1;
nodes = (
(298,780,l),
(298,811,o),
(307,837,o),
(336,837,cs),
(378,837,o),
(399,780,o),
(476,780,cs),
(561,780,o),
(606,848,o),
(606,932,c),
(494,942,l),
(494,910,o),
(484,884,o),
(456,884,cs),
(414,884,o),
(396,942,o),
(320,942,cs),
(235,942,o),
(186,873,o),
(186,790,c)
);
}
);
width = 792;
}
);
note = Otilde;
unicode = 213;
},
{
glyphname = OE;
kernLeft = C;
kernRight = AE;
lastChange = "2024-02-25 16:05:16 +0000";
layers = (
{
hints = (
{
horizontal = 1;
place = (0, 113);
place = (0, 113);
type = Stem;
},
{
horizontal = 1;
place = (307, 113);
place = (307, 113);
type = Stem;
},
{
horizontal = 1;
place = (587, 113);
place = (587, 113);
type = Stem;
},
{
place = (44, 138);
place = (44, 138);
type = Stem;
},
{
place = (610, 138);
place = (610, 138);
type = Stem;
},
{
horizontal = 1;
place = (-16, 113);
place = (-16, 113);
type = Stem;
},
{
horizontal = 1;
place = (603, 113);
place = (603, 113);
type = Stem;
}
);
layerId = m01;
shapes = (
{
closed = 1;
nodes = (
(610,0,l),
(1078,0,l),
(1078,113,l),
(748,113,l),
(748,307,l),
(1018,307,l),
(1018,420,l),
(748,420,l),
(748,587,l),
(1078,587,l),
(1078,700,l),
(610,700,l),
(610,616,l),
(562,677,o),
(491,716,o),
(396,716,cs),
(189,716,o),
(44,565,o),
(44,350,cs),
(44,135,o),
(189,-16,o),
(396,-16,cs),
(491,-16,o),
(562,23,o),
(610,84,c)
);
},
{
closed = 1;
nodes = (
(182,501,o),
(269,603,o),
(396,603,cs),
(523,603,o),
(610,501,o),
(610,350,cs),
(610,199,o),
(523,97,o),
(396,97,cs),
(269,97,o),
(182,199,o),
(182,350,cs)
);
}
);
width = 1122;
},
{
hints = (
{
horizontal = 1;
place = (0, 113);
place = (0, 113);
type = Stem;
},
{
horizontal = 1;
place = (307, 113);
place = (307, 113);
type = Stem;
},
{
horizontal = 1;
place = (587, 113);
place = (587, 113);
type = Stem;
},
{
place = (44, 138);
place = (44, 138);
type = Stem;
},
{
place = (610, 138);
place = (610, 138);
type = Stem;
},
{
horizontal = 1;
place = (-16, 113);
place = (-16, 113);
type = Stem;
},
{
horizontal = 1;
place = (603, 113);
place = (603, 113);
type = Stem;
}
);
layerId = "6A72B8B1-0803-4BB2-A3A1-70C2871A9914";
shapes = (
{
closed = 1;
nodes = (
(610,0,l),
(1078,0,l),
(1078,113,l),
(748,113,l),
(748,307,l),
(1018,307,l),
(1018,420,l),
(748,420,l),
(748,587,l),
(1078,587,l),
(1078,700,l),
(610,700,l),
(610,616,l),
(562,677,o),
(491,716,o),
(396,716,cs),
(189,716,o),
(44,565,o),
(44,350,cs),
(44,135,o),
(189,-16,o),
(396,-16,cs),
(491,-16,o),
(562,23,o),
(610,84,c)
);
},
{
closed = 1;
nodes = (
(182,501,o),
(269,603,o),
(396,603,cs),
(523,603,o),
(610,501,o),
(610,350,cs),
(610,199,o),
(523,97,o),
(396,97,cs),
(269,97,o),
(182,199,o),
(182,350,cs)
);
}
);
width = 1122;
}
);
note = OE;
unicode = 338;
},
{
glyphname = P;
kernLeft = B;
kernRight = P;
lastChange = "2024-02-25 16:05:16 +0000";
layers = (
{
hints = (
{
horizontal = 1;
place = (0, 21);
target = up;
type = BottomGhost;
},
{
horizontal = 1;
place = (278, 113);
place = (278, 113);
type = Stem;
},
{
horizontal = 1;
place = (587, 113);
place = (587, 113);
type = Stem;
},
{
place = (68, 138);
place = (68, 138);
type = Stem;
},
{
place = (441, 138);
place = (441, 138);
type = Stem;
}
);
layerId = m01;
shapes = (
{
closed = 1;
nodes = (
(68,0,l),
(206,0,l),
(206,278,l),
(308,278,ls),
(471,278,o),
(579,362,o),
(579,489,cs),
(579,616,o),
(471,700,o),
(308,700,cs),
(68,700,l)
);
},
{
closed = 1;
nodes = (
(206,391,l),
(206,587,l),
(308,587,ls),
(389,587,o),
(441,549,o),
(441,489,cs),
(441,429,o),
(389,391,o),
(308,391,cs)
);
}
);
width = 611;
},
{
hints = (
{
horizontal = 1;
place = (0, 21);
target = up;
type = BottomGhost;
},
{
horizontal = 1;
place = (278, 113);
place = (278, 113);
type = Stem;
},
{
horizontal = 1;
place = (587, 113);
place = (587, 113);
type = Stem;
},
{
place = (68, 138);
place = (68, 138);
type = Stem;
},
{
place = (441, 138);
place = (441, 138);
type = Stem;
}
);
layerId = "6A72B8B1-0803-4BB2-A3A1-70C2871A9914";
shapes = (
{
closed = 1;
nodes = (
(68,0,l),
(206,0,l),
(206,278,l),
(308,278,ls),
(471,278,o),
(579,362,o),
(579,489,cs),
(579,616,o),
(471,700,o),
(308,700,cs),
(68,700,l)
);
},
{
closed = 1;
nodes = (
(206,391,l),
(206,587,l),
(308,587,ls),
(389,587,o),
(441,549,o),
(441,489,cs),
(441,429,o),
(389,391,o),
(308,391,cs)
);
}
);
width = 611;
}
);
note = P;
unicode = 80;
},
{
glyphname = Thorn;
kernLeft = B;
kernRight = Thorn;
lastChange = "2024-02-25 16:05:16 +0000";
layers = (
{
hints = (
{
horizontal = 1;
place = (0, 21);
target = up;
type = BottomGhost;
},
{
horizontal = 1;
place = (134, 113);
place = (134, 113);
type = Stem;
},
{
horizontal = 1;
place = (453, 113);
place = (453, 113);
type = Stem;
},
{
place = (68, 138);
place = (68, 138);
type = Stem;
},
{
place = (441, 138);
place = (441, 138);
type = Stem;
}
);
layerId = m01;
shapes = (
{
closed = 1;
nodes = (
(68,0,l),
(206,0,l),
(206,134,l),
(308,134,ls),
(471,134,o),
(579,220,o),
(579,350,cs),
(579,480,o),
(471,566,o),
(308,566,cs),
(206,566,l),
(206,700,l),
(68,700,l)
);
},
{
closed = 1;
nodes = (
(206,247,l),
(206,453,l),
(308,453,ls),
(390,453,o),
(441,414,o),
(441,350,cs),
(441,286,o),
(390,247,o),
(308,247,cs)
);
}
);
width = 619;
},
{
hints = (
{
horizontal = 1;
place = (0, 21);
target = up;
type = BottomGhost;
},
{
horizontal = 1;
place = (134, 113);
place = (134, 113);
type = Stem;
},
{
horizontal = 1;
place = (453, 113);
place = (453, 113);
type = Stem;
},
{
place = (68, 138);
place = (68, 138);
type = Stem;
},
{
place = (441, 138);
place = (441, 138);
type = Stem;
}
);
layerId = "6A72B8B1-0803-4BB2-A3A1-70C2871A9914";
shapes = (
{
closed = 1;
nodes = (
(68,0,l),
(206,0,l),
(206,134,l),
(308,134,ls),
(471,134,o),
(579,220,o),
(579,350,cs),
(579,480,o),
(471,566,o),
(308,566,cs),
(206,566,l),
(206,700,l),
(68,700,l)
);
},
{
closed = 1;
nodes = (
(206,247,l),
(206,453,l),
(308,453,ls),
(390,453,o),
(441,414,o),
(441,350,cs),
(441,286,o),
(390,247,o),
(308,247,cs)
);
}
);
width = 619;
}
);
note = Thorn;
unicode = 222;
},
{
glyphname = Q;
kernLeft = C;
kernRight = C;
lastChange = "2024-02-25 16:05:16 +0000";
layers = (
{
hints = (
{
horizontal = 1;
place = (-16, 113);
place = (-16, 113);
type = Stem;
},
{
horizontal = 1;
place = (603, 113);
place = (603, 113);
type = Stem;
},
{
place = (44, 138);
place = (44, 138);
type = Stem;
},
{
place = (610, 138);
place = (610, 138);
type = Stem;
}
);
layerId = m01;
shapes = (
{
closed = 1;
nodes = (
(606,-66,l),
(761,-66,l),
(653,90,l),
(713,155,o),
(748,245,o),
(748,350,cs),
(748,565,o),
(603,716,o),
(396,716,cs),
(189,716,o),
(44,565,o),
(44,350,cs),
(44,135,o),
(189,-16,o),
(396,-16,cs),
(452,-16,o),
(504,-5,o),
(550,16,c)
);
},
{
closed = 1;
nodes = (
(182,501,o),
(269,603,o),
(396,603,cs),
(523,603,o),
(610,501,o),
(610,350,cs),
(610,293,o),
(598,243,o),
(575,203,c),
(463,366,l),
(308,366,l),
(481,115,l),
(456,103,o),
(427,97,o),
(396,97,cs),
(269,97,o),
(182,199,o),
(182,350,cs)
);
}
);
width = 795;
},
{
hints = (
{
horizontal = 1;
place = (-16, 113);
place = (-16, 113);
type = Stem;
},
{
horizontal = 1;
place = (603, 113);
place = (603, 113);
type = Stem;
},
{
place = (44, 138);
place = (44, 138);
type = Stem;
},
{
place = (610, 138);
place = (610, 138);
type = Stem;
}
);
layerId = "6A72B8B1-0803-4BB2-A3A1-70C2871A9914";
shapes = (
{
closed = 1;
nodes = (
(606,-66,l),
(761,-66,l),
(653,90,l),
(713,155,o),
(748,245,o),
(748,350,cs),
(748,565,o),
(603,716,o),
(396,716,cs),
(189,716,o),
(44,565,o),
(44,350,cs),
(44,135,o),
(189,-16,o),
(396,-16,cs),
(452,-16,o),
(504,-5,o),
(550,16,c)
);
},
{
closed = 1;
nodes = (
(182,501,o),
(269,603,o),
(396,603,cs),
(523,603,o),
(610,501,o),
(610,350,cs),
(610,293,o),
(598,243,o),
(575,203,c),
(463,366,l),
(308,366,l),
(481,115,l),
(456,103,o),
(427,97,o),
(396,97,cs),
(269,97,o),
(182,199,o),
(182,350,cs)
);
}
);
width = 795;
}
);
note = Q;
unicode = 81;
},
{
glyphname = R;
kernLeft = B;
kernRight = R;
lastChange = "2024-02-25 16:24:49 +0000";
layers = (
{
hints = (
{
horizontal = 1;
place = (0, 21);
target = up;
type = BottomGhost;
},
{
horizontal = 1;
place = (278, 113);
place = (278, 113);
type = Stem;
},
{
horizontal = 1;
place = (587, 113);
place = (587, 113);
type = Stem;
},
{
place = (68, 138);
place = (68, 138);
type = Stem;
},
{
place = (442.5, 139.5);
place = (442.5, 139.5);
type = Stem;
},
{
place = (441, 138);
place = (441, 138);
type = Stem;
}
);
layerId = m01;
shapes = (
{
closed = 1;
nodes = (
(-190,1800,l),
(-256,1827,o),
(-343,1818,o),
(-435,1769,cs),
(-648,1656,l),
(-567,1503,l),
(-435,1549,l),
(-473,1621,l),
(-383,1669,ls),
(-335,1694,o),
(-291,1699,o),
(-257,1683,c)
);
},
{
closed = 1;
nodes = (
(143,-1114,l),
(300,-1233,l),
(384,-1123,l),
(297,-1058,l)
);
},
{
closed = 1;
nodes = (
(-1072,-169,l),
(-1075,-170,o),
(-1077,-172,o),
(-1080,-173,cs),
(-1171,-219,l),
(-1223,-116,l),
(-1356,-160,l),
(-1207,-454,l),
(-1044,-471,l),
(-1120,-320,l),
(-1020,-270,ls),
(-1017,-269,o),
(-1016,-267,o),
(-1013,-266,c)
);
},
{
closed = 1;
nodes = (
(2143,522,l),
(2149,505,o),
(2151,487,o),
(2146,468,cs),
(2131,412,o),
(2075,388,o),
(2001,404,c),
(1981,293,l),
(2050,273,o),
(2073,230,o),
(2059,153,cs),
(2029,-7,l),
(2162,-42,l),
(2190,96,ls),
(2212,202,o),
(2183,272,o),
(2102,308,c),
(2188,307,o),
(2259,357,o),
(2282,442,cs),
(2293,484,o),
(2289,525,o),
(2273,562,c)
);
}
);
width = 642;
},
{
hints = (
{
horizontal = 1;
place = (0, 21);
target = up;
type = BottomGhost;
},
{
horizontal = 1;
place = (278, 113);
place = (278, 113);
type = Stem;
},
{
horizontal = 1;
place = (587, 113);
place = (587, 113);
type = Stem;
},
{
place = (68, 138);
place = (68, 138);
type = Stem;
},
{
place = (442.5, 139.5);
place = (442.5, 139.5);
type = Stem;
},
{
place = (441, 138);
place = (441, 138);
type = Stem;
}
);
layerId = "6A72B8B1-0803-4BB2-A3A1-70C2871A9914";
shapes = (
{
closed = 1;
nodes = (
(540,612,l),
(494,667,o),
(413,700,o),
(308,700,cs),
(68,700,l),
(68,527,l),
(206,506,l),
(206,587,l),
(308,587,ls),
(362,587,o),
(403,570,o),
(425,541,c)
);
},
{
closed = 1;
nodes = (
(68,197,l),
(68,0,l),
(206,0,l),
(206,109,l)
);
},
{
closed = 1;
nodes = (
(317,391,l),
(314,391,o),
(311,391,o),
(308,391,cs),
(206,391,l),
(206,506,l),
(68,527,l),
(68,197,l),
(206,109,l),
(206,278,l),
(318,278,ls),
(321,278,o),
(323,278,o),
(326,278,c)
);
},
{
closed = 1;
nodes = (
(425,541,l),
(435,526,o),
(441,509,o),
(441,489,cs),
(441,431,o),
(393,394,o),
(317,391,c),
(326,278,l),
(398,276,o),
(432,241,o),
(437,163,cs),
(448,0,l),
(586,0,l),
(578,140,ls),
(572,248,o),
(527,309,o),
(439,323,c),
(523,344,o),
(579,410,o),
(579,498,cs),
(579,542,o),
(565,580,o),
(540,612,c)
);
}
);
width = 642;
}
);
note = R;
unicode = 82;
},
{
glyphname = Racute;
kernLeft = B;
kernRight = R;
lastChange = "2024-02-25 16:05:16 +0000";
layers = (
{
hints = (
{
horizontal = 1;
place = (0, 21);
target = up;
type = BottomGhost;
},
{
horizontal = 1;
place = (278, 113);
place = (278, 113);
type = Stem;
},
{
horizontal = 1;
place = (587, 113);
place = (587, 113);
type = Stem;
},
{
horizontal = 1;
place = (780, 140);
place = (780, 140);
type = Stem;
},
{
place = (68, 138);
place = (68, 138);
type = Stem;
},
{
place = (442.5, 139.5);
place = (442.5, 139.5);
type = Stem;
},
{
place = (441, 138);
place = (441, 138);
type = Stem;
}
);
layerId = m01;
shapes = (
{
closed = 1;
nodes = (
(68,0,l),
(206,0,l),
(206,278,l),
(318,278,ls),
(396,278,o),
(432,244,o),
(437,163,cs),
(448,0,l),
(586,0,l),
(578,140,ls),
(572,248,o),
(527,309,o),
(439,323,c),
(523,344,o),
(579,410,o),
(579,498,cs),
(579,620,o),
(472,700,o),
(308,700,cs),
(68,700,l)
);
},
{
closed = 1;
nodes = (
(206,391,l),
(206,587,l),
(308,587,ls),
(389,587,o),
(441,549,o),
(441,489,cs),
(441,429,o),
(389,391,o),
(308,391,cs)
);
},
{
closed = 1;
nodes = (
(230,780,l),
(320,780,l),
(424,920,l),
(286,920,l)
);
}
);
width = 642;
},
{
hints = (
{
horizontal = 1;
place = (0, 21);
target = up;
type = BottomGhost;
},
{
horizontal = 1;
place = (278, 113);
place = (278, 113);
type = Stem;
},
{
horizontal = 1;
place = (587, 113);
place = (587, 113);
type = Stem;
},
{
horizontal = 1;
place = (780, 140);
place = (780, 140);
type = Stem;
},
{
place = (68, 138);
place = (68, 138);
type = Stem;
},
{
place = (442.5, 139.5);
place = (442.5, 139.5);
type = Stem;
},
{
place = (441, 138);
place = (441, 138);
type = Stem;
}
);
layerId = "6A72B8B1-0803-4BB2-A3A1-70C2871A9914";
shapes = (
{
closed = 1;
nodes = (
(68,0,l),
(206,0,l),
(206,278,l),
(318,278,ls),
(396,278,o),
(432,244,o),
(437,163,cs),
(448,0,l),
(586,0,l),
(578,140,ls),
(572,248,o),
(527,309,o),
(439,323,c),
(523,344,o),
(579,410,o),
(579,498,cs),
(579,620,o),
(472,700,o),
(308,700,cs),
(68,700,l)
);
},
{
closed = 1;
nodes = (
(206,391,l),
(206,587,l),
(308,587,ls),
(389,587,o),
(441,549,o),
(441,489,cs),
(441,429,o),
(389,391,o),
(308,391,cs)
);
},
{
closed = 1;
nodes = (
(230,780,l),
(320,780,l),
(424,920,l),
(286,920,l)
);
}
);
width = 642;
}
);
note = Racute;
unicode = 340;
},
{
glyphname = Rcaron;
kernLeft = B;
kernRight = R;
lastChange = "2024-02-25 16:05:16 +0000";
layers = (
{
hints = (
{
horizontal = 1;
place = (0, 21);
target = up;
type = BottomGhost;
},
{
horizontal = 1;
place = (278, 113);
place = (278, 113);
type = Stem;
},
{
horizontal = 1;
place = (587, 113);
place = (587, 113);
type = Stem;
},
{
horizontal = 1;
place = (790, 140);
place = (790, 140);
type = Stem;
},
{
place = (68, 138);
place = (68, 138);
type = Stem;
},
{
place = (442.5, 139.5);
place = (442.5, 139.5);
type = Stem;
},
{
place = (441, 138);
place = (441, 138);
type = Stem;
}
);
layerId = m01;
shapes = (
{
closed = 1;
nodes = (
(68,0,l),
(206,0,l),
(206,278,l),
(318,278,ls),
(396,278,o),
(432,244,o),
(437,163,cs),
(448,0,l),
(586,0,l),
(578,140,ls),
(572,248,o),
(527,309,o),
(439,323,c),
(523,344,o),
(579,410,o),
(579,498,cs),
(579,620,o),
(472,700,o),
(308,700,cs),
(68,700,l)
);
},
{
closed = 1;
nodes = (
(123,930,l),
(205,790,l),
(409,790,l),
(491,930,l),
(367,930,l),
(307,830,l),
(247,930,l)
);
},
{
closed = 1;
nodes = (
(206,391,l),
(206,587,l),
(308,587,ls),
(389,587,o),
(441,549,o),
(441,489,cs),
(441,429,o),
(389,391,o),
(308,391,cs)
);
}
);
width = 642;
},
{
hints = (
{
horizontal = 1;
place = (0, 21);
target = up;
type = BottomGhost;
},
{
horizontal = 1;
place = (278, 113);
place = (278, 113);
type = Stem;
},
{
horizontal = 1;
place = (587, 113);
place = (587, 113);
type = Stem;
},
{
horizontal = 1;
place = (790, 140);
place = (790, 140);
type = Stem;
},
{
place = (68, 138);
place = (68, 138);
type = Stem;
},
{
place = (442.5, 139.5);
place = (442.5, 139.5);
type = Stem;
},
{
place = (441, 138);
place = (441, 138);
type = Stem;
}
);
layerId = "6A72B8B1-0803-4BB2-A3A1-70C2871A9914";
shapes = (
{
closed = 1;
nodes = (
(68,0,l),
(206,0,l),
(206,278,l),
(318,278,ls),
(396,278,o),
(432,244,o),
(437,163,cs),
(448,0,l),
(586,0,l),
(578,140,ls),
(572,248,o),
(527,309,o),
(439,323,c),
(523,344,o),
(579,410,o),
(579,498,cs),
(579,620,o),
(472,700,o),
(308,700,cs),
(68,700,l)
);
},
{
closed = 1;
nodes = (
(123,930,l),
(205,790,l),
(409,790,l),
(491,930,l),
(367,930,l),
(307,830,l),
(247,930,l)
);
},
{
closed = 1;
nodes = (
(206,391,l),
(206,587,l),
(308,587,ls),
(389,587,o),
(441,549,o),
(441,489,cs),
(441,429,o),
(389,391,o),
(308,391,cs)
);
}
);
width = 642;
}
);
note = Rcaron;
unicode = 344;
},
{
glyphname = uni0156;
kernLeft = B;
kernRight = R;
lastChange = "2024-02-25 16:05:16 +0000";
layers = (
{
hints = (
{
horizontal = 1;
place = (-287, 73);
place = (-287, 73);
type = Stem;
},
{
horizontal = 1;
place = (-160, 100);
place = (-160, 100);
type = Stem;
},
{
horizontal = 1;
place = (0, 21);
target = up;
type = BottomGhost;
},
{
horizontal = 1;
place = (278, 113);
place = (278, 113);
type = Stem;
},
{
horizontal = 1;
place = (587, 113);
place = (587, 113);
type = Stem;
},
{
place = (68, 138);
place = (68, 138);
type = Stem;
},
{
place = (257, 150);
place = (257, 150);
type = Stem;
},
{
place = (441, 138);
place = (441, 138);
type = Stem;
},
{
place = (442.5, 139.5);
place = (442.5, 139.5);
type = Stem;
},
{
place = (337, 70);
place = (337, 70);
type = Stem;
}
);
layerId = m01;
shapes = (
{
closed = 1;
nodes = (
(68,0,l),
(206,0,l),
(206,278,l),
(318,278,ls),
(396,278,o),
(432,244,o),
(437,163,cs),
(448,0,l),
(586,0,l),
(578,140,ls),
(572,248,o),
(527,309,o),
(439,323,c),
(523,344,o),
(579,410,o),
(579,498,cs),
(579,620,o),
(472,700,o),
(308,700,cs),
(68,700,l)
);
},
{
closed = 1;
nodes = (
(206,391,l),
(206,587,l),
(308,587,ls),
(389,587,o),
(441,549,o),
(441,489,cs),
(441,429,o),
(389,391,o),
(308,391,cs)
);
},
{
closed = 1;
nodes = (
(248,-287,l),
(354,-287,o),
(407,-245,o),
(407,-160,cs),
(407,-60,l),
(257,-60,l),
(257,-160,l),
(337,-160,l),
(337,-198,o),
(311,-214,o),
(248,-214,c)
);
}
);
width = 642;
},
{
hints = (
{
horizontal = 1;
place = (-287, 73);
place = (-287, 73);
type = Stem;
},
{
horizontal = 1;
place = (-160, 100);
place = (-160, 100);
type = Stem;
},
{
horizontal = 1;
place = (0, 21);
target = up;
type = BottomGhost;
},
{
horizontal = 1;
place = (278, 113);
place = (278, 113);
type = Stem;
},
{
horizontal = 1;
place = (587, 113);
place = (587, 113);
type = Stem;
},
{
place = (68, 138);
place = (68, 138);
type = Stem;
},
{
place = (257, 150);
place = (257, 150);
type = Stem;
},
{
place = (441, 138);
place = (441, 138);
type = Stem;
},
{
place = (442.5, 139.5);
place = (442.5, 139.5);
type = Stem;
},
{
place = (337, 70);
place = (337, 70);
type = Stem;
}
);
layerId = "6A72B8B1-0803-4BB2-A3A1-70C2871A9914";
shapes = (
{
closed = 1;
nodes = (
(68,0,l),
(206,0,l),
(206,278,l),
(318,278,ls),
(396,278,o),
(432,244,o),
(437,163,cs),
(448,0,l),
(586,0,l),
(578,140,ls),
(572,248,o),
(527,309,o),
(439,323,c),
(523,344,o),
(579,410,o),
(579,498,cs),
(579,620,o),
(472,700,o),
(308,700,cs),
(68,700,l)
);
},
{
closed = 1;
nodes = (
(206,391,l),
(206,587,l),
(308,587,ls),
(389,587,o),
(441,549,o),
(441,489,cs),
(441,429,o),
(389,391,o),
(308,391,cs)
);
},
{
closed = 1;
nodes = (
(248,-287,l),
(354,-287,o),
(407,-245,o),
(407,-160,cs),
(407,-60,l),
(257,-60,l),
(257,-160,l),
(337,-160,l),
(337,-198,o),
(311,-214,o),
(248,-214,c)
);
}
);
width = 642;
}
);
note = uni0156;
unicode = 342;
},
{
glyphname = S;
kernLeft = S;
kernRight = S;
lastChange = "2024-02-25 16:24:37 +0000";
layers = (
{
hints = (
{
horizontal = 1;
place = (-16, 113);
place = (-16, 113);
type = Stem;
},
{
horizontal = 1;
place = (603, 113);
place = (603, 113);
type = Stem;
},
{
place = (25, 139);
place = (25, 139);
type = Stem;
},
{
place = (443, 138);
place = (443, 138);
type = Stem;
},
{
place = (64, 138);
place = (64, 138);
type = Stem;
}
);
layerId = m01;
shapes = (
{
closed = 1;
nodes = (
(975,1759,l),
(996,1771,o),
(1024,1775,o),
(1052,1771,cs),
(1109,1763,o),
(1157,1722,o),
(1158,1662,c),
(1296,1652,l),
(1303,1781,o),
(1193,1864,o),
(1069,1883,cs),
(1006,1892,o),
(949,1883,o),
(904,1860,c)
);
},
{
closed = 1;
nodes = (
(2118,-435,l),
(2168,-432,o),
(2214,-411,o),
(2248,-374,cs),
(2332,-283,o),
(2276,-170,o),
(2225,-72,c),
(2102,-98,l),
(2143,-176,o),
(2180,-244,o),
(2138,-290,cs),
(2121,-308,o),
(2101,-314,o),
(2079,-314,c)
);
},
{
closed = 1;
nodes = (
(-1319,101,l),
(-1375,73,o),
(-1414,25,o),
(-1426,-41,cs),
(-1448,-171,o),
(-1338,-232,o),
(-1241,-286,c),
(-1152,-197,l),
(-1229,-152,o),
(-1298,-113,o),
(-1288,-53,cs),
(-1284,-30,o),
(-1270,-13,o),
(-1251,-2,c)
);
},
{
closed = 1;
nodes = (
(417,-1041,l),
(407,-1072,o),
(380,-1100,o),
(351,-1118,cs),
(270,-1168,o),
(181,-1139,o),
(131,-1059,c),
(19,-1141,l),
(104,-1279,o),
(266,-1304,o),
(405,-1217,cs),
(481,-1170,o),
(529,-1104,o),
(543,-1036,c)
);
}
);
width = 616;
},
{
hints = (
{
horizontal = 1;
place = (-16, 113);
place = (-16, 113);
type = Stem;
},
{
horizontal = 1;
place = (603, 113);
place = (603, 113);
type = Stem;
},
{
place = (25, 139);
place = (25, 139);
type = Stem;
},
{
place = (443, 138);
place = (443, 138);
type = Stem;
},
{
place = (64, 138);
place = (64, 138);
type = Stem;
}
);
layerId = "6A72B8B1-0803-4BB2-A3A1-70C2871A9914";
shapes = (
{
closed = 1;
nodes = (
(230,580,l),
(249,595,o),
(276,603,o),
(305,603,cs),
(362,603,o),
(416,570,o),
(425,511,c),
(563,521,l),
(552,649,o),
(431,716,o),
(305,716,cs),
(242,716,o),
(187,699,o),
(145,670,c)
);
},
{
closed = 1;
nodes = (
(526,65,l),
(561,101,o),
(581,147,o),
(581,198,cs),
(581,322,o),
(464,367,o),
(360,405,c),
(287,302,l),
(370,273,o),
(443,248,o),
(443,185,cs),
(443,161,o),
(432,142,o),
(416,128,c)
);
},
{
closed = 1;
nodes = (
(145,670,l),
(95,634,o),
(64,580,o),
(64,513,cs),
(64,381,o),
(183,339,o),
(287,302,c),
(360,405,l),
(277,436,o),
(202,463,o),
(202,524,cs),
(202,547,o),
(213,566,o),
(230,580,c)
);
},
{
closed = 1;
nodes = (
(416,128,l),
(391,107,o),
(354,97,o),
(319,97,cs),
(224,97,o),
(164,169,o),
(164,263,c),
(25,253,l),
(25,91,o),
(149,-16,o),
(313,-16,cs),
(402,-16,o),
(478,15,o),
(526,65,c)
);
}
);
width = 616;
}
);
note = S;
unicode = 83;
},
{
glyphname = Sacute;
kernLeft = S;
kernRight = S;
lastChange = "2024-02-25 16:05:16 +0000";
layers = (
{
hints = (
{
horizontal = 1;
place = (-16, 113);
place = (-16, 113);
type = Stem;
},
{
horizontal = 1;
place = (603, 113);
place = (603, 113);
type = Stem;
},
{
horizontal = 1;
place = (780, 140);
place = (780, 140);
type = Stem;
},
{
place = (25, 139);
place = (25, 139);
type = Stem;
},
{
place = (443, 138);
place = (443, 138);
type = Stem;
},
{
place = (64, 138);
place = (64, 138);
type = Stem;
}
);
layerId = m01;
shapes = (
{
closed = 1;
nodes = (
(466,-16,o),
(581,76,o),
(581,198,cs),
(581,422,o),
(202,387,o),
(202,524,cs),
(202,573,o),
(250,603,o),
(305,603,cs),
(362,603,o),
(416,570,o),
(425,511,c),
(563,521,l),
(552,649,o),
(431,716,o),
(305,716,cs),
(167,716,o),
(64,636,o),
(64,513,cs),
(64,277,o),
(443,328,o),
(443,185,cs),
(443,126,o),
(379,97,o),
(319,97,cs),
(224,97,o),
(164,169,o),
(164,263,c),
(25,253,l),
(25,91,o),
(149,-16,o),
(313,-16,cs)
);
},
{
closed = 1;
nodes = (
(273,780,l),
(363,780,l),
(467,920,l),
(329,920,l)
);
}
);
width = 616;
},
{
hints = (
{
horizontal = 1;
place = (-16, 113);
place = (-16, 113);
type = Stem;
},
{
horizontal = 1;
place = (603, 113);
place = (603, 113);
type = Stem;
},
{
horizontal = 1;
place = (780, 140);
place = (780, 140);
type = Stem;
},
{
place = (25, 139);
place = (25, 139);
type = Stem;
},
{
place = (443, 138);
place = (443, 138);
type = Stem;
},
{
place = (64, 138);
place = (64, 138);
type = Stem;
}
);
layerId = "6A72B8B1-0803-4BB2-A3A1-70C2871A9914";
shapes = (
{
closed = 1;
nodes = (
(466,-16,o),
(581,76,o),
(581,198,cs),
(581,422,o),
(202,387,o),
(202,524,cs),
(202,573,o),
(250,603,o),
(305,603,cs),
(362,603,o),
(416,570,o),
(425,511,c),
(563,521,l),
(552,649,o),
(431,716,o),
(305,716,cs),
(167,716,o),
(64,636,o),
(64,513,cs),
(64,277,o),
(443,328,o),
(443,185,cs),
(443,126,o),
(379,97,o),
(319,97,cs),
(224,97,o),
(164,169,o),
(164,263,c),
(25,253,l),
(25,91,o),
(149,-16,o),
(313,-16,cs)
);
},
{
closed = 1;
nodes = (
(273,780,l),
(363,780,l),
(467,920,l),
(329,920,l)
);
}
);
width = 616;
}
);
note = Sacute;
unicode = 346;
},
{
glyphname = Scaron;
kernLeft = S;
kernRight = S;
lastChange = "2024-02-25 16:05:16 +0000";
layers = (
{
hints = (
{
horizontal = 1;
place = (-16, 113);
place = (-16, 113);
type = Stem;
},
{
horizontal = 1;
place = (603, 113);
place = (603, 113);
type = Stem;
},
{
horizontal = 1;
place = (790, 140);
place = (790, 140);
type = Stem;
},
{
place = (25, 139);
place = (25, 139);
type = Stem;
},
{
place = (443, 138);
place = (443, 138);
type = Stem;
},
{
place = (64, 138);
place = (64, 138);
type = Stem;
}
);
layerId = m01;
shapes = (
{
closed = 1;
nodes = (
(466,-16,o),
(581,76,o),
(581,198,cs),
(581,422,o),
(202,387,o),
(202,524,cs),
(202,573,o),
(250,603,o),
(305,603,cs),
(362,603,o),
(416,570,o),
(425,511,c),
(563,521,l),
(552,649,o),
(431,716,o),
(305,716,cs),
(167,716,o),
(64,636,o),
(64,513,cs),
(64,277,o),
(443,328,o),
(443,185,cs),
(443,126,o),
(379,97,o),
(319,97,cs),
(224,97,o),
(164,169,o),
(164,263,c),
(25,253,l),
(25,91,o),
(149,-16,o),
(313,-16,cs)
);
},
{
closed = 1;
nodes = (
(126,930,l),
(208,790,l),
(412,790,l),
(494,930,l),
(370,930,l),
(310,830,l),
(250,930,l)
);
}
);
width = 616;
},
{
hints = (
{
horizontal = 1;
place = (-16, 113);
place = (-16, 113);
type = Stem;
},
{
horizontal = 1;
place = (603, 113);
place = (603, 113);
type = Stem;
},
{
horizontal = 1;
place = (790, 140);
place = (790, 140);
type = Stem;
},
{
place = (25, 139);
place = (25, 139);
type = Stem;
},
{
place = (443, 138);
place = (443, 138);
type = Stem;
},
{
place = (64, 138);
place = (64, 138);
type = Stem;
}
);
layerId = "6A72B8B1-0803-4BB2-A3A1-70C2871A9914";
shapes = (
{
closed = 1;
nodes = (
(466,-16,o),
(581,76,o),
(581,198,cs),
(581,422,o),
(202,387,o),
(202,524,cs),
(202,573,o),
(250,603,o),
(305,603,cs),
(362,603,o),
(416,570,o),
(425,511,c),
(563,521,l),
(552,649,o),
(431,716,o),
(305,716,cs),
(167,716,o),
(64,636,o),
(64,513,cs),
(64,277,o),
(443,328,o),
(443,185,cs),
(443,126,o),
(379,97,o),
(319,97,cs),
(224,97,o),
(164,169,o),
(164,263,c),
(25,253,l),
(25,91,o),
(149,-16,o),
(313,-16,cs)
);
},
{
closed = 1;
nodes = (
(126,930,l),
(208,790,l),
(412,790,l),
(494,930,l),
(370,930,l),
(310,830,l),
(250,930,l)
);
}
);
width = 616;
}
);
note = Scaron;
unicode = 352;
},
{
glyphname = Scedilla;
kernLeft = S;
kernRight = S;
lastChange = "2024-02-25 16:05:16 +0000";
layers = (
{
hints = (
{
horizontal = 1;
place = (-216, 65);
place = (-216, 65);
type = Stem;
},
{
horizontal = 1;
place = (-13, 21);
target = up;
type = BottomGhost;
},
{
horizontal = 1;
place = (603, 113);
place = (603, 113);
type = Stem;
},
{
place = (64, 138);
place = (64, 138);
type = Stem;
},
{
place = (443, 138);
place = (443, 138);
type = Stem;
},
{
horizontal = 1;
place = (-94, 55);
place = (-94, 55);
type = Stem;
},
{
place = (344, 75);
place = (344, 75);
type = Stem;
},
{
horizontal = 1;
place = (-94, 191);
place = (-94, 191);
type = Stem;
},
{
place = (25, 139);
place = (25, 139);
type = Stem;
}
);
layerId = m01;
shapes = (
{
closed = 1;
nodes = (
(373,-216,o),
(419,-178,o),
(419,-124,cs),
(419,-75,o),
(382,-39,o),
(333,-39,cs),
(327,-39,o),
(321,-40,o),
(315,-41,c),
(327,-16,l),
(473,-10,o),
(581,80,o),
(581,198,cs),
(581,422,o),
(202,387,o),
(202,524,cs),
(202,573,o),
(250,603,o),
(305,603,cs),
(362,603,o),
(416,570,o),
(425,511,c),
(563,521,l),
(552,649,o),
(431,716,o),
(305,716,cs),
(167,716,o),
(64,636,o),
(64,513,cs),
(64,277,o),
(443,328,o),
(443,185,cs),
(443,126,o),
(379,97,o),
(319,97,cs),
(224,97,o),
(164,169,o),
(164,263,c),
(25,253,l),
(25,107,o),
(125,6,o),
(265,-13,c),
(226,-84,l),
(286,-103,l),
(291,-97,o),
(300,-94,o),
(310,-94,cs),
(330,-94,o),
(344,-105,o),
(344,-122,cs),
(344,-139,o),
(330,-151,o),
(309,-151,cs),
(290,-151,o),
(277,-142,o),
(274,-127,c),
(201,-137,l),
(203,-183,o),
(247,-216,o),
(308,-216,cs)
);
}
);
width = 616;
},
{
hints = (
{
horizontal = 1;
place = (-216, 65);
place = (-216, 65);
type = Stem;
},
{
horizontal = 1;
place = (-13, 21);
target = up;
type = BottomGhost;
},
{
horizontal = 1;
place = (603, 113);
place = (603, 113);
type = Stem;
},
{
place = (64, 138);
place = (64, 138);
type = Stem;
},
{
place = (443, 138);
place = (443, 138);
type = Stem;
},
{
horizontal = 1;
place = (-94, 55);
place = (-94, 55);
type = Stem;
},
{
place = (344, 75);
place = (344, 75);
type = Stem;
},
{
horizontal = 1;
place = (-94, 191);
place = (-94, 191);
type = Stem;
},
{
place = (25, 139);
place = (25, 139);
type = Stem;
}
);
layerId = "6A72B8B1-0803-4BB2-A3A1-70C2871A9914";
shapes = (
{
closed = 1;
nodes = (
(373,-216,o),
(419,-178,o),
(419,-124,cs),
(419,-75,o),
(382,-39,o),
(333,-39,cs),
(327,-39,o),
(321,-40,o),
(315,-41,c),
(327,-16,l),
(473,-10,o),
(581,80,o),
(581,198,cs),
(581,422,o),
(202,387,o),
(202,524,cs),
(202,573,o),
(250,603,o),
(305,603,cs),
(362,603,o),
(416,570,o),
(425,511,c),
(563,521,l),
(552,649,o),
(431,716,o),
(305,716,cs),
(167,716,o),
(64,636,o),
(64,513,cs),
(64,277,o),
(443,328,o),
(443,185,cs),
(443,126,o),
(379,97,o),
(319,97,cs),
(224,97,o),
(164,169,o),
(164,263,c),
(25,253,l),
(25,107,o),
(125,6,o),
(265,-13,c),
(226,-84,l),
(286,-103,l),
(291,-97,o),
(300,-94,o),
(310,-94,cs),
(330,-94,o),
(344,-105,o),
(344,-122,cs),
(344,-139,o),
(330,-151,o),
(309,-151,cs),
(290,-151,o),
(277,-142,o),
(274,-127,c),
(201,-137,l),
(203,-183,o),
(247,-216,o),
(308,-216,cs)
);
}
);
width = 616;
}
);
note = Scedilla;
unicode = 350;
},
{
glyphname = Scircumflex;
kernLeft = S;
kernRight = S;
lastChange = "2024-02-25 16:05:16 +0000";
layers = (
{
hints = (
{
horizontal = 1;
place = (-16, 113);
place = (-16, 113);
type = Stem;
},
{
horizontal = 1;
place = (603, 113);
place = (603, 113);
type = Stem;
},
{
horizontal = 1;
place = (780, 140);
place = (780, 140);
type = Stem;
},
{
place = (25, 139);
place = (25, 139);
type = Stem;
},
{
place = (443, 138);
place = (443, 138);
type = Stem;
},
{
place = (64, 138);
place = (64, 138);
type = Stem;
},
{
horizontal = 1;
place = (880, 40);
place = (880, 40);
type = Stem;
}
);
layerId = m01;
shapes = (
{
closed = 1;
nodes = (
(466,-16,o),
(581,76,o),
(581,198,cs),
(581,422,o),
(202,387,o),
(202,524,cs),
(202,573,o),
(250,603,o),
(305,603,cs),
(362,603,o),
(416,570,o),
(425,511,c),
(563,521,l),
(552,649,o),
(431,716,o),
(305,716,cs),
(167,716,o),
(64,636,o),
(64,513,cs),
(64,277,o),
(443,328,o),
(443,185,cs),
(443,126,o),
(379,97,o),
(319,97,cs),
(224,97,o),
(164,169,o),
(164,263,c),
(25,253,l),
(25,91,o),
(149,-16,o),
(313,-16,cs)
);
},
{
closed = 1;
nodes = (
(126,780,l),
(250,780,l),
(310,880,l),
(370,780,l),
(494,780,l),
(412,920,l),
(208,920,l)
);
}
);
width = 616;
},
{
hints = (
{
horizontal = 1;
place = (-16, 113);
place = (-16, 113);
type = Stem;
},
{
horizontal = 1;
place = (603, 113);
place = (603, 113);
type = Stem;
},
{
horizontal = 1;
place = (780, 140);
place = (780, 140);
type = Stem;
},
{
place = (25, 139);
place = (25, 139);
type = Stem;
},
{
place = (443, 138);
place = (443, 138);
type = Stem;
},
{
place = (64, 138);
place = (64, 138);
type = Stem;
},
{
horizontal = 1;
place = (880, 40);
place = (880, 40);
type = Stem;
}
);
layerId = "6A72B8B1-0803-4BB2-A3A1-70C2871A9914";
shapes = (
{
closed = 1;
nodes = (
(466,-16,o),
(581,76,o),
(581,198,cs),
(581,422,o),
(202,387,o),
(202,524,cs),
(202,573,o),
(250,603,o),
(305,603,cs),
(362,603,o),
(416,570,o),
(425,511,c),
(563,521,l),
(552,649,o),
(431,716,o),
(305,716,cs),
(167,716,o),
(64,636,o),
(64,513,cs),
(64,277,o),
(443,328,o),
(443,185,cs),
(443,126,o),
(379,97,o),
(319,97,cs),
(224,97,o),
(164,169,o),
(164,263,c),
(25,253,l),
(25,91,o),
(149,-16,o),
(313,-16,cs)
);
},
{
closed = 1;
nodes = (
(126,780,l),
(250,780,l),
(310,880,l),
(370,780,l),
(494,780,l),
(412,920,l),
(208,920,l)
);
}
);
width = 616;
}
);
note = Scircumflex;
unicode = 348;
},
{
glyphname = uni0218;
kernLeft = S;
kernRight = S;
lastChange = "2024-02-25 16:05:16 +0000";
layers = (
{
hints = (
{
horizontal = 1;
place = (-287, 73);
place = (-287, 73);
type = Stem;
},
{
horizontal = 1;
place = (-160, 100);
place = (-160, 100);
type = Stem;
},
{
horizontal = 1;
place = (-16, 113);
place = (-16, 113);
type = Stem;
},
{
horizontal = 1;
place = (603, 113);
place = (603, 113);
type = Stem;
},
{
place = (25, 139);
place = (25, 139);
type = Stem;
},
{
place = (240, 150);
place = (240, 150);
type = Stem;
},
{
place = (443, 138);
place = (443, 138);
type = Stem;
},
{
place = (64, 138);
place = (64, 138);
type = Stem;
},
{
place = (320, 70);
place = (320, 70);
type = Stem;
}
);
layerId = m01;
shapes = (
{
closed = 1;
nodes = (
(466,-16,o),
(581,76,o),
(581,198,cs),
(581,422,o),
(202,387,o),
(202,524,cs),
(202,573,o),
(250,603,o),
(305,603,cs),
(362,603,o),
(416,570,o),
(425,511,c),
(563,521,l),
(552,649,o),
(431,716,o),
(305,716,cs),
(167,716,o),
(64,636,o),
(64,513,cs),
(64,277,o),
(443,328,o),
(443,185,cs),
(443,126,o),
(379,97,o),
(319,97,cs),
(224,97,o),
(164,169,o),
(164,263,c),
(25,253,l),
(25,91,o),
(149,-16,o),
(313,-16,cs)
);
},
{
closed = 1;
nodes = (
(231,-287,l),
(337,-287,o),
(390,-245,o),
(390,-160,cs),
(390,-60,l),
(240,-60,l),
(240,-160,l),
(320,-160,l),
(320,-198,o),
(294,-214,o),
(231,-214,c)
);
}
);
width = 616;
},
{
hints = (
{
horizontal = 1;
place = (-287, 73);
place = (-287, 73);
type = Stem;
},
{
horizontal = 1;
place = (-160, 100);
place = (-160, 100);
type = Stem;
},
{
horizontal = 1;
place = (-16, 113);
place = (-16, 113);
type = Stem;
},
{
horizontal = 1;
place = (603, 113);
place = (603, 113);
type = Stem;
},
{
place = (25, 139);
place = (25, 139);
type = Stem;
},
{
place = (240, 150);
place = (240, 150);
type = Stem;
},
{
place = (443, 138);
place = (443, 138);
type = Stem;
},
{
place = (64, 138);
place = (64, 138);
type = Stem;
},
{
place = (320, 70);
place = (320, 70);
type = Stem;
}
);
layerId = "6A72B8B1-0803-4BB2-A3A1-70C2871A9914";
shapes = (
{
closed = 1;
nodes = (
(466,-16,o),
(581,76,o),
(581,198,cs),
(581,422,o),
(202,387,o),
(202,524,cs),
(202,573,o),
(250,603,o),
(305,603,cs),
(362,603,o),
(416,570,o),
(425,511,c),
(563,521,l),
(552,649,o),
(431,716,o),
(305,716,cs),
(167,716,o),
(64,636,o),
(64,513,cs),
(64,277,o),
(443,328,o),
(443,185,cs),
(443,126,o),
(379,97,o),
(319,97,cs),
(224,97,o),
(164,169,o),
(164,263,c),
(25,253,l),
(25,91,o),
(149,-16,o),
(313,-16,cs)
);
},
{
closed = 1;
nodes = (
(231,-287,l),
(337,-287,o),
(390,-245,o),
(390,-160,cs),
(390,-60,l),
(240,-60,l),
(240,-160,l),
(320,-160,l),
(320,-198,o),
(294,-214,o),
(231,-214,c)
);
}
);
width = 616;
}
);
note = uni0218;
unicode = 536;
},
{
glyphname = uni1E9E;
kernLeft = B;
kernRight = B;
lastChange = "2024-02-25 16:05:16 +0000";
layers = (
{
hints = (
{
horizontal = 1;
place = (0, 118);
place = (0, 118);
type = Stem;
},
{
horizontal = 1;
place = (587, 113);
place = (587, 113);
type = Stem;
},
{
place = (68, 138);
place = (68, 138);
type = Stem;
},
{
place = (530, 138);
place = (530, 138);
type = Stem;
}
);
layerId = m01;
shapes = (
{
closed = 1;
nodes = (
(296,0,l),
(386,0,ls),
(556,0,o),
(668,82,o),
(668,207,cs),
(668,313,o),
(588,385,o),
(455,403,c),
(576,536,ls),
(599,561,o),
(611,590,o),
(611,618,cs),
(611,667,o),
(574,700,o),
(518,700,cs),
(68,700,l),
(68,0,l),
(206,0,l),
(206,587,l),
(468,587,l),
(306,406,l),
(306,306,l),
(386,306,ls),
(477,306,o),
(530,272,o),
(530,213,cs),
(530,153,o),
(477,118,o),
(386,118,cs),
(296,118,l)
);
}
);
width = 713;
},
{
hints = (
{
horizontal = 1;
place = (0, 118);
place = (0, 118);
type = Stem;
},
{
horizontal = 1;
place = (587, 113);
place = (587, 113);
type = Stem;
},
{
place = (68, 138);
place = (68, 138);
type = Stem;
},
{
place = (530, 138);
place = (530, 138);
type = Stem;
}
);
layerId = "6A72B8B1-0803-4BB2-A3A1-70C2871A9914";
shapes = (
{
closed = 1;
nodes = (
(296,0,l),
(386,0,ls),
(556,0,o),
(668,82,o),
(668,207,cs),
(668,313,o),
(588,385,o),
(455,403,c),
(576,536,ls),
(599,561,o),
(611,590,o),
(611,618,cs),
(611,667,o),
(574,700,o),
(518,700,cs),
(68,700,l),
(68,0,l),
(206,0,l),
(206,587,l),
(468,587,l),
(306,406,l),
(306,306,l),
(386,306,ls),
(477,306,o),
(530,272,o),
(530,213,cs),
(530,153,o),
(477,118,o),
(386,118,cs),
(296,118,l)
);
}
);
width = 713;
}
);
note = uni1E9E;
unicode = 7838;
},
{
glyphname = T;
kernLeft = T;
kernRight = T;
lastChange = "2024-02-25 16:05:16 +0000";
layers = (
{
hints = (
{
horizontal = 1;
place = (0, 21);
target = up;
type = BottomGhost;
},
{
horizontal = 1;
place = (587, 113);
place = (587, 113);
type = Stem;
},
{
place = (266, 138);
place = (266, 138);
type = Stem;
}
);
layerId = m01;
shapes = (
{
closed = 1;
nodes = (
(266,0,l),
(404,0,l),
(404,587,l),
(654,587,l),
(654,700,l),
(16,700,l),
(16,587,l),
(266,587,l)
);
}
);
width = 670;
},
{
hints = (
{
horizontal = 1;
place = (0, 21);
target = up;
type = BottomGhost;
},
{
horizontal = 1;
place = (587, 113);
place = (587, 113);
type = Stem;
},
{
place = (266, 138);
place = (266, 138);
type = Stem;
}
);
layerId = "6A72B8B1-0803-4BB2-A3A1-70C2871A9914";
shapes = (
{
closed = 1;
nodes = (
(266,0,l),
(404,0,l),
(404,587,l),
(654,587,l),
(654,700,l),
(16,700,l),
(16,587,l),
(266,587,l)
);
}
);
width = 670;
}
);
note = T;
unicode = 84;
},
{
glyphname = Tbar;
kernLeft = T;
kernRight = T;
lastChange = "2024-02-25 16:05:16 +0000";
layers = (
{
hints = (
{
horizontal = 1;
place = (0, 21);
target = up;
type = BottomGhost;
},
{
horizontal = 1;
place = (305, 90);
place = (305, 90);
type = Stem;
},
{
horizontal = 1;
place = (587, 113);
place = (587, 113);
type = Stem;
},
{
place = (266, 138);
place = (266, 138);
type = Stem;
}
);
layerId = m01;
shapes = (
{
closed = 1;
nodes = (
(155,305,l),
(266,305,l),
(266,0,l),
(404,0,l),
(404,305,l),
(515,305,l),
(515,395,l),
(404,395,l),
(404,587,l),
(654,587,l),
(654,700,l),
(16,700,l),
(16,587,l),
(266,587,l),
(266,395,l),
(155,395,l)
);
}
);
width = 670;
},
{
hints = (
{
horizontal = 1;
place = (0, 21);
target = up;
type = BottomGhost;
},
{
horizontal = 1;
place = (305, 90);
place = (305, 90);
type = Stem;
},
{
horizontal = 1;
place = (587, 113);
place = (587, 113);
type = Stem;
},
{
place = (266, 138);
place = (266, 138);
type = Stem;
}
);
layerId = "6A72B8B1-0803-4BB2-A3A1-70C2871A9914";
shapes = (
{
closed = 1;
nodes = (
(155,305,l),
(266,305,l),
(266,0,l),
(404,0,l),
(404,305,l),
(515,305,l),
(515,395,l),
(404,395,l),
(404,587,l),
(654,587,l),
(654,700,l),
(16,700,l),
(16,587,l),
(266,587,l),
(266,395,l),
(155,395,l)
);
}
);
width = 670;
}
);
note = Tbar;
unicode = 358;
},
{
glyphname = Tcaron;
kernLeft = T;
kernRight = T;
lastChange = "2024-02-25 16:05:16 +0000";
layers = (
{
hints = (
{
horizontal = 1;
place = (0, 21);
target = up;
type = BottomGhost;
},
{
horizontal = 1;
place = (587, 113);
place = (587, 113);
type = Stem;
},
{
horizontal = 1;
place = (790, 140);
place = (790, 140);
type = Stem;
},
{
place = (266, 138);
place = (266, 138);
type = Stem;
}
);
layerId = m01;
shapes = (
{
closed = 1;
nodes = (
(266,0,l),
(404,0,l),
(404,587,l),
(654,587,l),
(654,700,l),
(16,700,l),
(16,587,l),
(266,587,l)
);
},
{
closed = 1;
nodes = (
(151,930,l),
(233,790,l),
(437,790,l),
(519,930,l),
(395,930,l),
(335,830,l),
(275,930,l)
);
}
);
width = 670;
},
{
hints = (
{
horizontal = 1;
place = (0, 21);
target = up;
type = BottomGhost;
},
{
horizontal = 1;
place = (587, 113);
place = (587, 113);
type = Stem;
},
{
horizontal = 1;
place = (790, 140);
place = (790, 140);
type = Stem;
},
{
place = (266, 138);
place = (266, 138);
type = Stem;
}
);
layerId = "6A72B8B1-0803-4BB2-A3A1-70C2871A9914";
shapes = (
{
closed = 1;
nodes = (
(266,0,l),
(404,0,l),
(404,587,l),
(654,587,l),
(654,700,l),
(16,700,l),
(16,587,l),
(266,587,l)
);
},
{
closed = 1;
nodes = (
(151,930,l),
(233,790,l),
(437,790,l),
(519,930,l),
(395,930,l),
(335,830,l),
(275,930,l)
);
}
);
width = 670;
}
);
note = Tcaron;
unicode = 356;
},
{
glyphname = uni0162;
kernLeft = T;
kernRight = T;
lastChange = "2024-02-25 16:05:16 +0000";
layers = (
{
hints = (
{
horizontal = 1;
place = (-216, 65);
place = (-216, 65);
type = Stem;
},
{
horizontal = 1;
place = (-94, 55);
place = (-94, 55);
type = Stem;
},
{
horizontal = 1;
place = (0, 21);
target = up;
type = BottomGhost;
},
{
horizontal = 1;
place = (587, 113);
place = (587, 113);
type = Stem;
},
{
place = (266, 138);
place = (266, 138);
type = Stem;
},
{
place = (369, 75);
place = (369, 75);
type = Stem;
}
);
layerId = m01;
shapes = (
{
closed = 1;
nodes = (
(266,0,l),
(296,0,l),
(251,-84,l),
(311,-103,l),
(316,-97,o),
(325,-94,o),
(335,-94,cs),
(355,-94,o),
(369,-105,o),
(369,-122,cs),
(369,-139,o),
(355,-151,o),
(334,-151,cs),
(315,-151,o),
(302,-142,o),
(299,-127,c),
(226,-137,l),
(228,-183,o),
(272,-216,o),
(333,-216,cs),
(398,-216,o),
(444,-178,o),
(444,-124,cs),
(444,-75,o),
(407,-39,o),
(358,-39,cs),
(352,-39,o),
(346,-40,o),
(340,-41,c),
(360,0,l),
(404,0,l),
(404,587,l),
(654,587,l),
(654,700,l),
(16,700,l),
(16,587,l),
(266,587,l)
);
}
);
width = 670;
},
{
hints = (
{
horizontal = 1;
place = (-216, 65);
place = (-216, 65);
type = Stem;
},
{
horizontal = 1;
place = (-94, 55);
place = (-94, 55);
type = Stem;
},
{
horizontal = 1;
place = (0, 21);
target = up;
type = BottomGhost;
},
{
horizontal = 1;
place = (587, 113);
place = (587, 113);
type = Stem;
},
{
place = (266, 138);
place = (266, 138);
type = Stem;
},
{
place = (369, 75);
place = (369, 75);
type = Stem;
}
);
layerId = "6A72B8B1-0803-4BB2-A3A1-70C2871A9914";
shapes = (
{
closed = 1;
nodes = (
(266,0,l),
(296,0,l),
(251,-84,l),
(311,-103,l),
(316,-97,o),
(325,-94,o),
(335,-94,cs),
(355,-94,o),
(369,-105,o),
(369,-122,cs),
(369,-139,o),
(355,-151,o),
(334,-151,cs),
(315,-151,o),
(302,-142,o),
(299,-127,c),
(226,-137,l),
(228,-183,o),
(272,-216,o),
(333,-216,cs),
(398,-216,o),
(444,-178,o),
(444,-124,cs),
(444,-75,o),
(407,-39,o),
(358,-39,cs),
(352,-39,o),
(346,-40,o),
(340,-41,c),
(360,0,l),
(404,0,l),
(404,587,l),
(654,587,l),
(654,700,l),
(16,700,l),
(16,587,l),
(266,587,l)
);
}
);
width = 670;
}
);
note = uni0162;
unicode = 354;
},
{
glyphname = uni021A;
kernLeft = T;
kernRight = T;
lastChange = "2024-02-25 16:05:16 +0000";
layers = (
{
hints = (
{
horizontal = 1;
place = (-287, 73);
place = (-287, 73);
type = Stem;
},
{
horizontal = 1;
place = (-160, 100);
place = (-160, 100);
type = Stem;
},
{
horizontal = 1;
place = (0, 21);
target = up;
type = BottomGhost;
},
{
horizontal = 1;
place = (587, 113);
place = (587, 113);
type = Stem;
},
{
place = (266, 138);
place = (266, 138);
type = Stem;
},
{
place = (266, 149);
place = (266, 149);
type = Stem;
},
{
place = (265, 139);
place = (265, 139);
type = Stem;
},
{
place = (345, 70);
place = (345, 70);
type = Stem;
}
);
layerId = m01;
shapes = (
{
closed = 1;
nodes = (
(266,0,l),
(404,0,l),
(404,587,l),
(654,587,l),
(654,700,l),
(16,700,l),
(16,587,l),
(266,587,l)
);
},
{
closed = 1;
nodes = (
(256,-287,l),
(362,-287,o),
(415,-245,o),
(415,-160,cs),
(415,-60,l),
(265,-60,l),
(265,-160,l),
(345,-160,l),
(345,-198,o),
(319,-214,o),
(256,-214,c)
);
}
);
width = 670;
},
{
hints = (
{
horizontal = 1;
place = (-287, 73);
place = (-287, 73);
type = Stem;
},
{
horizontal = 1;
place = (-160, 100);
place = (-160, 100);
type = Stem;
},
{
horizontal = 1;
place = (0, 21);
target = up;
type = BottomGhost;
},
{
horizontal = 1;
place = (587, 113);
place = (587, 113);
type = Stem;
},
{
place = (266, 138);
place = (266, 138);
type = Stem;
},
{
place = (266, 149);
place = (266, 149);
type = Stem;
},
{
place = (265, 139);
place = (265, 139);
type = Stem;
},
{
place = (345, 70);
place = (345, 70);
type = Stem;
}
);
layerId = "6A72B8B1-0803-4BB2-A3A1-70C2871A9914";
shapes = (
{
closed = 1;
nodes = (
(266,0,l),
(404,0,l),
(404,587,l),
(654,587,l),
(654,700,l),
(16,700,l),
(16,587,l),
(266,587,l)
);
},
{
closed = 1;
nodes = (
(256,-287,l),
(362,-287,o),
(415,-245,o),
(415,-160,cs),
(415,-60,l),
(265,-60,l),
(265,-160,l),
(345,-160,l),
(345,-198,o),
(319,-214,o),
(256,-214,c)
);
}
);
width = 670;
}
);
note = uni021A;
unicode = 538;
},
{
glyphname = U;
kernLeft = U;
kernRight = IJ;
lastChange = "2024-02-25 16:05:16 +0000";
layers = (
{
hints = (
{
horizontal = 1;
place = (-16, 113);
place = (-16, 113);
type = Stem;
},
{
place = (56, 138);
place = (56, 138);
type = Stem;
},
{
place = (473, 138);
place = (473, 138);
type = Stem;
}
);
layerId = m01;
shapes = (
{
closed = 1;
nodes = (
(497,-16,o),
(611,99,o),
(611,262,cs),
(611,700,l),
(473,700,l),
(473,262,ls),
(473,172,o),
(424,97,o),
(334,97,cs),
(244,97,o),
(194,172,o),
(194,262,cs),
(194,700,l),
(56,700,l),
(56,262,ls),
(56,99,o),
(171,-16,o),
(334,-16,cs)
);
}
);
width = 667;
},
{
hints = (
{
horizontal = 1;
place = (-16, 113);
place = (-16, 113);
type = Stem;
},
{
place = (56, 138);
place = (56, 138);
type = Stem;
},
{
place = (473, 138);
place = (473, 138);
type = Stem;
}
);
layerId = "6A72B8B1-0803-4BB2-A3A1-70C2871A9914";
shapes = (
{
closed = 1;
nodes = (
(497,-16,o),
(611,99,o),
(611,262,cs),
(611,700,l),
(473,700,l),
(473,262,ls),
(473,172,o),
(424,97,o),
(334,97,cs),
(244,97,o),
(194,172,o),
(194,262,cs),
(194,700,l),
(56,700,l),
(56,262,ls),
(56,99,o),
(171,-16,o),
(334,-16,cs)
);
}
);
width = 667;
}
);
note = U;
unicode = 85;
},
{
glyphname = Uacute;
kernLeft = U;
kernRight = IJ;
lastChange = "2024-02-25 16:05:16 +0000";
layers = (
{
hints = (
{
horizontal = 1;
place = (-16, 113);
place = (-16, 113);
type = Stem;
},
{
horizontal = 1;
place = (780, 140);
place = (780, 140);
type = Stem;
},
{
place = (56, 138);
place = (56, 138);
type = Stem;
},
{
place = (473, 138);
place = (473, 138);
type = Stem;
}
);
layerId = m01;
shapes = (
{
closed = 1;
nodes = (
(497,-16,o),
(611,99,o),
(611,262,cs),
(611,700,l),
(473,700,l),
(473,262,ls),
(473,172,o),
(424,97,o),
(334,97,cs),
(244,97,o),
(194,172,o),
(194,262,cs),
(194,700,l),
(56,700,l),
(56,262,ls),
(56,99,o),
(171,-16,o),
(334,-16,cs)
);
},
{
closed = 1;
nodes = (
(297,780,l),
(387,780,l),
(491,920,l),
(353,920,l)
);
}
);
width = 667;
},
{
hints = (
{
horizontal = 1;
place = (-16, 113);
place = (-16, 113);
type = Stem;
},
{
horizontal = 1;
place = (780, 140);
place = (780, 140);
type = Stem;
},
{
place = (56, 138);
place = (56, 138);
type = Stem;
},
{
place = (473, 138);
place = (473, 138);
type = Stem;
}
);
layerId = "6A72B8B1-0803-4BB2-A3A1-70C2871A9914";
shapes = (
{
closed = 1;
nodes = (
(497,-16,o),
(611,99,o),
(611,262,cs),
(611,700,l),
(473,700,l),
(473,262,ls),
(473,172,o),
(424,97,o),
(334,97,cs),
(244,97,o),
(194,172,o),
(194,262,cs),
(194,700,l),
(56,700,l),
(56,262,ls),
(56,99,o),
(171,-16,o),
(334,-16,cs)
);
},
{
closed = 1;
nodes = (
(297,780,l),
(387,780,l),
(491,920,l),
(353,920,l)
);
}
);
width = 667;
}
);
note = Uacute;
unicode = 218;
},
{
glyphname = Ubreve;
kernLeft = U;
kernRight = IJ;
lastChange = "2024-02-25 16:05:16 +0000";
layers = (
{
hints = (
{
horizontal = 1;
place = (-16, 113);
place = (-16, 113);
type = Stem;
},
{
horizontal = 1;
place = (780, 95);
place = (780, 95);
type = Stem;
},
{
place = (56, 138);
place = (56, 138);
type = Stem;
},
{
place = (473, 138);
place = (473, 138);
type = Stem;
},
{
horizontal = 1;
place = (780, 170);
place = (780, 170);
type = Stem;
},
{
place = (164, 95);
place = (164, 95);
type = Stem;
},
{
place = (409, 95);
place = (409, 95);
type = Stem;
}
);
layerId = m01;
shapes = (
{
closed = 1;
nodes = (
(497,-16,o),
(611,99,o),
(611,262,cs),
(611,700,l),
(473,700,l),
(473,262,ls),
(473,172,o),
(424,97,o),
(334,97,cs),
(244,97,o),
(194,172,o),
(194,262,cs),
(194,700,l),
(56,700,l),
(56,262,ls),
(56,99,o),
(171,-16,o),
(334,-16,cs)
);
},
{
closed = 1;
nodes = (
(164,950,l),
(164,850,o),
(239,780,o),
(334,780,cs),
(426,780,o),
(504,850,o),
(504,950,c),
(409,950,l),
(409,905,o),
(375,875,o),
(334,875,cs),
(292,875,o),
(259,905,o),
(259,950,c)
);
}
);
width = 667;
},
{
hints = (
{
horizontal = 1;
place = (-16, 113);
place = (-16, 113);
type = Stem;
},
{
horizontal = 1;
place = (780, 95);
place = (780, 95);
type = Stem;
},
{
place = (56, 138);
place = (56, 138);
type = Stem;
},
{
place = (473, 138);
place = (473, 138);
type = Stem;
},
{
horizontal = 1;
place = (780, 170);
place = (780, 170);
type = Stem;
},
{
place = (164, 95);
place = (164, 95);
type = Stem;
},
{
place = (409, 95);
place = (409, 95);
type = Stem;
}
);
layerId = "6A72B8B1-0803-4BB2-A3A1-70C2871A9914";
shapes = (
{
closed = 1;
nodes = (
(497,-16,o),
(611,99,o),
(611,262,cs),
(611,700,l),
(473,700,l),
(473,262,ls),
(473,172,o),
(424,97,o),
(334,97,cs),
(244,97,o),
(194,172,o),
(194,262,cs),
(194,700,l),
(56,700,l),
(56,262,ls),
(56,99,o),
(171,-16,o),
(334,-16,cs)
);
},
{
closed = 1;
nodes = (
(164,950,l),
(164,850,o),
(239,780,o),
(334,780,cs),
(426,780,o),
(504,850,o),
(504,950,c),
(409,950,l),
(409,905,o),
(375,875,o),
(334,875,cs),
(292,875,o),
(259,905,o),
(259,950,c)
);
}
);
width = 667;
}
);
note = Ubreve;
unicode = 364;
},
